<svg width="22" height="25" viewBox="0 0 22 25" fill="none" xmlns="http://www.w3.org/2000/svg">
<path fill-rule="evenodd" clip-rule="evenodd" d="M6.04823 6.9674V6.37209C6.04823 5.05951 6.83696 3.83613 7.52016 3.16436C9.40681 1.31108 12.5988 1.32018 14.4854 3.16436C15.1668 3.82884 15.9573 5.06679 15.9573 6.37209C15.9573 7.76478 15.7852 8.42017 15.0112 9.55616C14.8983 9.72365 14.6002 10.0532 14.4391 10.1842C14.1873 10.39 14.0614 10.5356 13.7782 10.7249C13.6282 10.8269 13.5504 10.8487 13.393 10.9416C12.0729 11.7171 10.4825 11.7171 9.05133 11.1582C8.72917 11.0326 8.54402 10.9033 8.2663 10.7395C7.95525 10.5556 7.84787 10.4136 7.59607 10.2079C6.8888 9.6308 6.04823 8.23083 6.04823 6.9674ZM4.23193 6.64335C4.23193 7.99235 4.68555 9.42873 5.41132 10.41C6.17413 11.444 6.87399 12.0539 8.04968 12.6328C9.86228 13.5249 12.11 13.5449 13.9207 12.651C15.1927 12.0248 14.8613 12.0976 15.6185 11.5059L16.2165 10.9033C16.3443 10.7559 16.4554 10.5957 16.572 10.4409C16.8072 10.1296 16.9905 9.76006 17.1701 9.40506C17.9736 7.81394 17.9625 5.51463 17.1701 3.93625C16.809 3.21715 16.3869 2.54174 15.8074 1.97375C14.9631 1.14906 13.7837 0.446341 12.5599 0.187829C11.0269 -0.136222 9.76044 -0.0597604 8.29037 0.564674C7.59422 0.859596 6.79067 1.38936 6.2556 1.91913C5.19285 2.97503 4.23193 4.56615 4.23193 6.64153V6.64335Z" fill="#7C7979"/>
<path fill-rule="evenodd" clip-rule="evenodd" d="M11.0028 16.7653C13.5226 16.7653 15.6389 17.5336 17.4903 18.8844L18.1717 19.4578C18.4327 19.6836 19.04 20.501 19.2585 20.825C19.8213 21.6515 20.0509 22.5582 20.1787 23.5467C20.2472 24.071 20.112 24.2185 20.4249 24.5498C21.0285 25.1888 21.7913 24.7683 21.945 24.2221C22.1894 23.3464 21.571 21.2328 21.0433 20.3699C20.3972 19.3158 19.8936 18.533 18.8104 17.6938L18.1254 17.1767C17.3441 16.6233 16.6201 16.2483 15.6963 15.8842C11.5823 14.2712 6.70548 14.912 3.22286 17.6683C2.60261 18.158 1.8972 18.9026 1.45655 19.558C1.36397 19.6963 1.30102 19.7819 1.214 19.9148C1.11588 20.0641 1.06774 20.1879 0.980717 20.3353C0.441937 21.2474 -0.198674 23.3064 0.0586815 24.2221C0.147552 24.537 0.349363 24.7246 0.664114 24.8229C1.06774 24.9485 1.31769 24.8138 1.55097 24.5771C1.94534 24.1766 1.7176 23.7178 1.98792 22.5709C2.18973 21.7189 2.68037 20.8159 3.22286 20.1587C3.84125 19.4105 4.3467 18.9645 5.18912 18.411C6.72955 17.3988 8.94392 16.7653 11.0028 16.7653Z" fill="#7C7979"/>
</svg>
