<svg width="16" height="15" viewBox="0 0 16 15" fill="none" xmlns="http://www.w3.org/2000/svg">
<path fill-rule="evenodd" clip-rule="evenodd" d="M1.33808 11.2792V3.72075C1.33808 2.38417 2.46242 1.25983 3.799 1.25983H11.3575C12.6941 1.25983 13.8184 2.38417 13.8184 3.72075V11.2792C13.8184 12.6158 12.6941 13.7402 11.3575 13.7402H3.799C2.46242 13.7402 1.33808 12.6158 1.33808 11.2792ZM0.0783691 3.57422V11.4258C0.0783691 13.2694 1.81373 15 3.65259 15H11.5041C12.0395 15 12.5649 14.8139 12.9394 14.6481C13.6638 14.3272 14.4056 13.5854 14.7265 12.861C14.8923 12.4865 15.0784 11.9611 15.0784 11.4258V3.57422C15.0784 3.03891 14.8923 2.51349 14.7265 2.13902C14.5726 1.79165 14.2452 1.34926 13.9872 1.0912C13.8347 0.938736 13.6852 0.823487 13.5091 0.690329C13.0105 0.313183 12.1822 0 11.5041 0H3.65259C2.74863 0 1.78803 0.47274 1.16957 1.0912C1.0171 1.24366 0.901856 1.39322 0.768698 1.56929C0.391552 2.06785 0.0783691 2.89622 0.0783691 3.57422Z" fill="#5D5C5C"/>
<path fill-rule="evenodd" clip-rule="evenodd" d="M6.93388 4.48238V6.85538H4.56087C3.56608 6.85538 3.59516 8.1444 4.53157 8.1444H6.93388V10.5174C6.93388 11.3624 7.78539 11.399 8.06567 11.034C8.1551 10.9175 8.2229 10.7405 8.2229 10.5467V8.1444H10.6252C11.5602 8.1444 11.5933 6.85538 10.5959 6.85538H8.2229V4.45307C8.2229 4.25932 8.1551 4.08232 8.06567 3.96579C7.78586 3.60121 6.93388 3.63621 6.93388 4.48238Z" fill="#5D5C5C"/>
</svg>
