<svg width="17" height="21" viewBox="0 0 17 21" fill="none" xmlns="http://www.w3.org/2000/svg">
<path fill-rule="evenodd" clip-rule="evenodd" d="M8.77491 6.03428C9.72168 5.87979 11.2327 4.92909 12.7953 5.10131C14.0242 5.23627 15.3043 5.5893 16.4544 7.15857C13.5075 8.8741 13.1344 13.6356 17 15.4048C16.7253 16.2332 15.4853 19.2351 13.7696 20.4581C12.9932 21.0118 12.28 21.1194 11.3987 20.819C9.8602 20.2951 9.14357 19.7924 7.51003 20.3987C6.51776 20.7671 5.56352 21.3324 4.449 20.748C3.43466 20.277 1.46099 17.6668 0.706655 15.387C-0.695029 11.5701 -0.225163 6.37942 4.07016 5.30261C6.41218 4.71582 7.66143 6.20823 8.77491 6.03428ZM8.46599 4.81667C8.10445 2.52288 10.3819 0.131697 12.6428 0.000183105C13.0054 2.85301 10.183 5.14988 8.46599 4.81667Z" fill="#6B6A6A"/>
</svg>
