<svg width="21" height="20" viewBox="0 0 21 20" fill="none" xmlns="http://www.w3.org/2000/svg">
<path fill-rule="evenodd" clip-rule="evenodd" d="M5.70849 0.1118L15.6368 0.34754C18.2265 0.409031 20.295 2.57782 20.2335 5.16704L19.9977 15.097C19.9362 17.6863 17.7671 19.7544 15.1774 19.6929L5.24915 19.4571C2.65943 19.3957 0.59096 17.2269 0.652439 14.6376L0.888219 4.7077C0.9497 2.11841 3.11884 0.0503103 5.70849 0.1118ZM14.6811 10.7245C14.4841 11.7555 13.2161 11.5741 13.1541 10.6883L13.2114 8.27749L7.1367 14.0348C6.49468 14.2651 5.87656 13.6381 6.17746 12.9592L12.1221 7.20472L9.69922 7.14861C8.9696 7.07312 8.71046 5.73862 9.8346 5.63475L13.8018 5.71634C14.4527 5.71989 14.7724 6.01626 14.7848 6.58434L14.6811 10.7246L14.6811 10.7245ZM5.92108 1.64525L15.3516 1.86917C17.2744 1.91483 18.8103 3.52512 18.7646 5.44765L18.5433 14.7695C18.4976 16.692 16.8871 18.2276 14.9642 18.1819L5.53374 17.958C3.61089 17.9124 2.07503 16.3021 2.12068 14.3796L2.34202 5.05771C2.38767 3.13518 3.99823 1.59959 5.92108 1.64525Z" fill="#FFCC00"/>
</svg>
