<svg width="26" height="27" viewBox="0 0 26 27" fill="none" xmlns="http://www.w3.org/2000/svg">
<g clip-path="url(#clip0_8_412)">
<path fill-rule="evenodd" clip-rule="evenodd" d="M12.9999 1.59402C14.7356 2.77113 16.4471 3.92372 18.2069 5.12535L22.1362 7.77386C22.4255 7.97004 23.2933 8.50955 23.438 8.70574H2.56187C2.73061 8.48503 12.783 1.71663 12.9999 1.59402ZM0.0065918 9.04906C0.0065918 9.76023 0.4164 10.2016 0.94674 10.2016H25.0531C25.246 10.2016 25.5834 10.03 25.704 9.90737C26.1379 9.49048 26.1379 8.70574 25.4629 8.21527C23.8719 7.06268 21.3889 5.46868 19.7256 4.31609L13.9883 0.416906C13.0481 -0.220696 12.8553 -0.122603 12.0839 0.392383L3.0681 6.49865C2.48955 6.89102 1.98331 7.23435 1.40476 7.62672C0.850314 7.99456 0.0065918 8.41146 0.0065918 9.00001L0.0065918 9.04906Z" fill="#797575"/>
<path fill-rule="evenodd" clip-rule="evenodd" d="M2.22439 24.7929C2.22439 24.5477 2.46546 24.1063 2.89937 24.1063H23.1005C23.9683 24.1063 23.9683 25.4796 23.1005 25.4796H2.89937C2.68242 25.4796 2.53778 25.3815 2.41725 25.2834C2.34493 25.2098 2.22439 24.9401 2.22439 24.7929ZM0.753906 24.7929C0.753906 25.8229 1.66995 26.9755 2.85116 26.9755H23.1728C24.354 26.9755 25.2701 25.7984 25.2701 24.7929C25.2701 23.7629 24.354 22.6104 23.1728 22.6104H2.85116C1.66995 22.6104 0.753906 23.7875 0.753906 24.7929Z" fill="#797575"/>
<path fill-rule="evenodd" clip-rule="evenodd" d="M20.8828 12.4823V20.4278C20.8828 21.4087 22.3533 21.4087 22.3533 20.4278V12.4823C22.3533 11.3787 20.8828 11.3787 20.8828 12.4823Z" fill="#797575"/>
<path fill-rule="evenodd" clip-rule="evenodd" d="M3.64673 12.4823V20.4278C3.64673 21.4087 5.11722 21.4087 5.11722 20.4278V12.4823C5.11722 11.3787 3.64673 11.3787 3.64673 12.4823Z" fill="#797575"/>
<path fill-rule="evenodd" clip-rule="evenodd" d="M9.35986 12.5313V20.1335C9.35986 21.6049 10.8304 21.2861 10.8304 20.4768V12.3352C10.8304 11.4523 9.35986 11.3052 9.35986 12.5313Z" fill="#797575"/>
<path fill-rule="evenodd" clip-rule="evenodd" d="M15.1455 12.3352V20.4768C15.1455 21.2861 16.616 21.6049 16.616 20.1335V12.5313C16.616 11.2807 15.1455 11.4523 15.1455 12.3352Z" fill="#797575"/>
</g>
<defs>
<clipPath id="clip0_8_412">
<rect width="26" height="27" fill="white"/>
</clipPath>
</defs>
</svg>
