<svg width="15" height="19" viewBox="0 0 15 19" fill="none" xmlns="http://www.w3.org/2000/svg">
<g clip-path="url(#clip0_8_165)">
<path fill-rule="evenodd" clip-rule="evenodd" d="M10.9808 16.0014C10.6837 17.7066 9.2598 19 7.54699 19C5.83487 19 4.41101 17.7066 4.11387 16.0014H5.25514C5.53125 17.0566 6.45298 17.8322 7.54699 17.8322C8.64155 17.8322 9.56329 17.0568 9.83954 16.0014H10.9808ZM1.39523 6.99299C1.58725 3.61843 3.0701 1.5275 4.94743 0.583674C5.76814 0.17049 6.66137 -0.0193114 7.5539 0.0015475C8.4453 0.0224064 9.33557 0.251263 10.1499 0.676134C12.1115 1.69896 13.6561 3.84743 13.7665 6.94713C14.0589 7.34567 14.3274 7.83282 14.5388 8.36849C14.8809 9.23836 15.0746 10.2464 14.9725 11.2288C14.8663 12.2499 14.4482 13.2384 13.565 14.0199C13.1979 14.3469 12.7482 14.6339 12.2072 14.8678L11.99 14.9142L2.94566 15.0703L2.76591 15.0457C2.0939 14.8364 1.55043 14.4808 1.1273 14.026C0.544749 13.4011 0.200774 12.5974 0.0660342 11.7349C-0.0647551 10.9007 0.0018388 10.0088 0.238304 9.17696V9.1746C0.468278 8.36346 0.862904 7.60027 1.39537 6.99299H1.39523ZM5.46184 1.71242C3.9107 2.49293 2.69 4.30219 2.57685 7.28442L2.39654 7.70855C1.92954 8.18727 1.5833 8.83301 1.38479 9.5326C1.19799 10.19 1.14424 10.8872 1.24525 11.5336C1.34218 12.1518 1.58147 12.7217 1.98371 13.1526C2.25108 13.4396 2.5966 13.6698 3.02692 13.8173L11.8536 13.6649C12.2272 13.4928 12.539 13.2903 12.7941 13.0644H12.7963C13.4152 12.5172 13.7088 11.8194 13.7841 11.0966C13.863 10.3346 13.7076 9.53881 13.4345 8.8447C13.2406 8.35252 12.9885 7.91551 12.72 7.58133L12.5793 7.18353C12.5438 4.49761 11.26 2.65463 9.62142 1.80015C8.96056 1.45546 8.24368 1.2695 7.5309 1.25294C6.81982 1.23637 6.11056 1.38637 5.46198 1.71257L5.46184 1.71242Z" fill="#6B6A6A"/>
</g>
<defs>
<clipPath id="clip0_8_165">
<rect width="15" height="19" fill="white"/>
</clipPath>
</defs>
</svg>
