<svg width="26" height="27" viewBox="0 0 26 27" fill="none" xmlns="http://www.w3.org/2000/svg">
<path fill-rule="evenodd" clip-rule="evenodd" d="M12.9933 1.62203C14.729 2.79914 16.4405 3.95173 18.2003 5.15337L22.1296 7.80187C22.4189 7.99806 23.2867 8.53757 23.4314 8.73375H2.55527C2.72402 8.51304 12.7764 1.74465 12.9933 1.62203ZM0 9.07708C0 9.78825 0.409808 10.2297 0.940148 10.2297H25.0465C25.2394 10.2297 25.5769 10.058 25.6974 9.93538C26.1313 9.51849 26.1313 8.73375 25.4563 8.24329C23.8653 7.0907 21.3823 5.49669 19.719 4.3441L13.9817 0.444921C13.0415 -0.192681 12.8487 -0.0945883 12.0773 0.420398L3.06151 6.52667C2.48296 6.91904 1.97672 7.26236 1.39817 7.65473C0.843723 8.02258 0 8.43947 0 9.02803L0 9.07708Z" fill="#7C7979"/>
<path fill-rule="evenodd" clip-rule="evenodd" d="M2.2178 24.821C2.2178 24.5758 2.45887 24.1343 2.89278 24.1343H23.0939C23.9617 24.1343 23.9617 25.5076 23.0939 25.5076H2.89278C2.67582 25.5076 2.53119 25.4095 2.41065 25.3115C2.33833 25.2379 2.2178 24.9681 2.2178 24.821ZM0.747314 24.821C0.747314 25.851 1.66336 27.0035 2.84457 27.0035H23.1662C24.3474 27.0035 25.2635 25.8264 25.2635 24.821C25.2635 23.791 24.3474 22.6384 23.1662 22.6384H2.84457C1.66336 22.6384 0.747314 23.8155 0.747314 24.821Z" fill="#7C7979"/>
<path fill-rule="evenodd" clip-rule="evenodd" d="M20.8762 12.5103V20.4558C20.8762 21.4367 22.3467 21.4367 22.3467 20.4558V12.5103C22.3467 11.4067 20.8762 11.4067 20.8762 12.5103Z" fill="#7C7979"/>
<path fill-rule="evenodd" clip-rule="evenodd" d="M3.64014 12.5103V20.4558C3.64014 21.4367 5.11062 21.4367 5.11062 20.4558V12.5103C5.11062 11.4067 3.64014 11.4067 3.64014 12.5103Z" fill="#7C7979"/>
<path fill-rule="evenodd" clip-rule="evenodd" d="M9.35327 12.5595V20.1617C9.35327 21.6331 10.8238 21.3143 10.8238 20.505V12.3633C10.8238 11.4805 9.35327 11.3333 9.35327 12.5595Z" fill="#7C7979"/>
<path fill-rule="evenodd" clip-rule="evenodd" d="M15.1389 12.3631V20.5048C15.1389 21.3141 16.6094 21.6329 16.6094 20.1615V12.5593C16.6094 11.3086 15.1389 11.4803 15.1389 12.3631Z" fill="#7C7979"/>
</svg>
