<svg width="30" height="26" viewBox="0 0 30 26" fill="none" xmlns="http://www.w3.org/2000/svg">
<path fill-rule="evenodd" clip-rule="evenodd" d="M10.7615 3.97504V8.51358C10.7615 8.64916 10.8286 8.80297 10.8984 8.88814C10.9532 8.95513 11.1233 9.08089 11.2185 9.08089H13.3323C14.0224 9.08089 14.0224 7.94626 13.3323 7.94626H11.9612V6.81159C12.6365 6.81159 13.7322 7.01252 13.7322 6.24428C13.7322 5.47604 12.6365 5.67697 11.9612 5.67697V4.54234C13.1574 4.54234 13.8465 4.73953 13.8465 3.91829C13.8465 3.63787 13.6147 3.40771 13.3323 3.40771H11.2185C11.0443 3.40771 10.7615 3.66863 10.7615 3.97503L10.7615 3.97504Z" fill="#35B735"/>
<path fill-rule="evenodd" clip-rule="evenodd" d="M20.5877 13.3358C19.9123 13.3358 19.6006 13.271 19.0437 13.6747C18.8702 13.8005 18.8548 13.9043 18.6453 13.9599L17.8455 12.4848H21.1018C20.8987 12.7861 20.6901 12.8991 20.5877 13.3358ZM29.3284 18.8293V19.4029C29.2919 20.3437 29.0758 21.2713 28.6817 22.0542C26.5619 26.2651 21.4166 27.271 17.8052 24.2683C17.3226 23.867 15.5856 21.727 15.0381 21.0593C14.8729 20.8579 14.7513 20.6953 14.5764 20.4966C14.4195 20.3185 14.302 20.1381 14.1448 19.9608C12.7557 18.3932 14.1122 16.3557 16.0174 16.7964C15.9377 16.5002 13.6374 12.7695 13.5608 12.4848H3.44901C2.24801 12.4848 1.41775 12.3752 0.615122 11.3278C0.390693 11.0348 0.0783691 10.3617 0.0783691 9.87518V2.61354C0.0783691 1.3503 1.43422 0.00391505 2.70632 0.00391505H9.79031C10.0727 0.00391505 10.3045 0.234069 10.3045 0.514494C10.3045 1.11078 10.0528 1.14183 9.33346 1.13872C8.85748 1.13661 8.38106 1.13854 7.90504 1.13854C6.89997 1.13854 2.98205 1.02118 2.32801 1.27349C1.67002 1.52733 1.22095 2.12729 1.22095 3.01065V9.47807C1.22095 10.6039 1.97245 11.3502 3.10621 11.3502H13.1038V11.0665C13.1038 10.095 13.9954 9.3646 14.9891 9.3646C16.5985 9.3646 16.8336 11.3502 17.2742 11.3502H21.2733C22.418 11.3502 23.1585 10.6149 23.1585 9.47807V2.89722C23.1585 2.0633 22.6284 1.47577 22.01 1.25787C21.3688 1.03186 17.5172 1.13854 16.5315 1.13854C16.1998 1.13854 14.7361 1.21749 14.5176 1.03936C14.1545 0.743354 14.2768 0.00390625 14.8177 0.00390625H21.6732C22.9598 0.00390625 24.3011 1.33586 24.3011 2.61353V9.87517C24.3011 10.2986 24.1387 10.5578 24.0726 10.8396C24.347 10.8396 24.3369 10.7829 24.5296 10.7829C25.4703 10.7829 25.9592 11.4666 26.3821 12.177C26.9752 13.1735 28.2326 15.2856 28.7009 16.2283C29.0841 16.9998 29.2927 17.908 29.3284 18.8293V18.8293ZM14.2464 11.2367C14.2464 10.7854 14.5396 10.556 14.9891 10.556C15.478 10.556 15.8947 11.4981 16.2084 12.0682L19.0103 16.8878C19.306 17.2907 20.0735 17.2239 20.0735 16.5128C20.0735 16.0089 19.1612 15.4416 19.5794 14.7743C19.6681 14.6328 19.9415 14.4705 20.1307 14.4705C20.9557 14.4705 20.9512 15.8887 21.6732 15.8887C22.202 15.8887 22.4073 15.3446 22.1214 14.8762C21.8977 14.5098 21.6732 14.2093 21.6732 13.8464C21.6732 13.5017 21.9564 13.2224 22.3587 13.2224C22.7875 13.2224 22.9425 13.6093 23.1127 13.8919C23.2708 14.1542 23.4567 14.6407 23.8441 14.6407C24.1497 14.6407 24.4725 14.3495 24.4725 14.0733C24.4725 13.6428 23.8441 13.1331 23.8441 12.5983C23.8441 12.0871 24.6711 11.5052 25.2333 12.5235C25.9135 13.7555 27.1255 15.6753 27.6917 16.8333C28.3648 18.2099 28.2949 20.0147 27.6885 21.4083C27.4838 21.8786 27.1906 22.3653 26.8592 22.7407C24.954 24.8992 22.2829 25.4369 19.692 24.1533C18.3241 23.4757 16.9213 21.4934 15.8541 20.1923C15.7217 20.0308 15.6035 19.9005 15.4641 19.7286C15.1293 19.316 14.3793 18.6681 14.9719 18.0843C15.8996 17.1703 17.1053 19.6563 17.9241 20.0131C18.2413 20.1513 18.8167 19.9895 18.8167 19.3493C18.8167 19.147 18.6763 18.9908 18.585 18.8419C18.485 18.6791 18.3984 18.5156 18.2916 18.3391C18.0816 17.9922 17.9214 17.6845 17.7063 17.3318C17.4973 16.989 17.3149 16.6732 17.1224 16.3231C16.8038 15.7434 14.2464 11.5434 14.2464 11.2367L14.2464 11.2367Z" fill="#9B9898"/>
<path fill-rule="evenodd" clip-rule="evenodd" d="M7.6194 7.94634H6.87671V6.64148C7.76284 6.64148 8.47635 6.47896 8.47635 7.37903C8.47635 7.80068 8.05328 7.94634 7.6194 7.94634ZM7.73363 5.45015H6.87672V4.54243C7.58948 4.54243 8.07643 4.42653 8.07643 5.10974C8.07643 5.24636 7.87121 5.45015 7.73363 5.45015ZM5.73414 3.91838V8.57035C5.73414 8.85078 5.96591 9.08096 6.2483 9.08096C7.39872 9.08096 8.5124 9.27489 9.17709 8.52873C9.95424 7.6563 9.7597 6.41549 8.99047 5.90399C9.79636 4.70888 8.7206 3.4078 7.79079 3.4078C6.80508 3.4078 5.73413 3.2048 5.73413 3.91838H5.73414Z" fill="#35B735"/>
<path fill-rule="evenodd" clip-rule="evenodd" d="M14.989 3.91829C14.989 4.67257 15.5469 4.54234 16.2459 4.54234V8.57027C16.2459 9.2556 17.3884 9.2556 17.3884 8.57027V4.54234C18.0874 4.54234 18.6453 4.67257 18.6453 3.91829C18.6453 3.63787 18.4135 3.40771 18.1311 3.40771H15.5032C15.2208 3.40771 14.989 3.63787 14.989 3.91829H14.989Z" fill="#FF9900"/>
</svg>
