<svg width="27" height="26" viewBox="0 0 27 26" fill="none" xmlns="http://www.w3.org/2000/svg">
<path fill-rule="evenodd" clip-rule="evenodd" d="M8.20325 2.64071C8.20325 3.32608 8.88247 3.45731 9.27738 2.9533C9.41745 2.7744 9.47741 2.71272 9.63739 2.55151C10.3665 1.81651 11.6679 1.11738 12.8244 1.11738C14.449 1.11738 15.1596 1.44667 16.2704 2.34312C16.3694 2.42299 16.3913 2.42643 16.4943 2.52546C16.9985 3.01006 16.955 3.25015 17.4453 3.25015C17.8065 3.25015 17.953 2.98377 17.953 2.64071C17.953 2.07207 15.5853 0 13.3318 0C11.955 0 11.145 0.185287 10.0596 0.841166C9.59242 1.12327 8.88935 1.65186 8.55073 2.07453C8.45857 2.18954 8.44137 2.21043 8.34136 2.32224C8.25412 2.41955 8.20276 2.4714 8.20276 2.64071H8.20325Z" fill="#35B735"/>
<path fill-rule="evenodd" clip-rule="evenodd" d="M10.844 4.87496C11.1116 4.87496 11.2426 4.83294 11.4038 4.62234C12.1847 3.60228 13.9216 3.61112 14.7387 4.58548C15.297 5.25143 15.9534 4.65945 15.7691 4.1692C15.5233 3.51479 14.1723 2.74219 13.2304 2.74219C12.225 2.74219 11.2834 3.08966 10.6779 3.74431C10.02 4.45573 10.5427 4.87496 10.8437 4.87496H10.844Z" fill="#35B735"/>
<path fill-rule="evenodd" clip-rule="evenodd" d="M12.012 21.6835H14.1447V24.8828H12.012V21.6835ZM0.0783691 5.78913V20.2111C0.0783691 20.5829 0.389967 21.0859 0.599337 21.2643C0.869158 21.4946 1.26898 21.6835 1.75431 21.6835H10.8948V24.8828C10.3169 24.8828 8.22414 24.7924 7.90664 24.9922C7.41762 25.2998 7.68425 26 8.15263 26H18.0041C18.4629 26 18.7263 25.3416 18.2803 25.0128C17.9613 24.7779 15.8811 24.8826 15.2621 24.8826V21.6833H24.4026C25.3497 21.6833 26.0783 20.9308 26.0783 20.2106V5.78863C26.0783 5.06837 25.3495 4.31592 24.4026 4.31592H19.883C19.13 4.31592 19.1018 5.20181 19.6186 5.39275C19.8515 5.47876 23.2371 5.43305 23.7423 5.43305C24.2903 5.43305 24.9609 5.34163 24.9609 5.89012V20.1088C24.9609 20.3826 24.7098 20.5659 24.4533 20.5659H1.7032C1.4464 20.5659 1.1955 20.3826 1.1955 20.1088V5.89012C1.1955 5.35318 1.82877 5.43305 2.3635 5.43305C2.87464 5.43305 6.25748 5.47605 6.49978 5.40528C7.05712 5.24285 7.04287 4.31592 6.2737 4.31592H1.75431C0.807232 4.31592 0.0786149 5.06837 0.0786149 5.78863L0.0783691 5.78913Z" fill="#9B9898"/>
<path fill-rule="evenodd" clip-rule="evenodd" d="M14.1448 10.3086L15.0587 13.4061C15.2029 13.9313 15.3769 14.4306 15.5266 14.9695C15.5902 15.1988 15.6868 15.5185 15.7617 15.75C15.991 16.4587 16.682 16.3941 16.8826 15.7883L18.5121 10.3083C18.5121 9.94881 18.2725 9.74976 17.9026 9.74976C17.477 9.74976 17.3922 10.2029 17.304 10.5221C17.2018 10.8927 17.0865 11.221 16.9885 11.5778C16.8887 11.941 16.3844 13.4646 16.379 13.7106H16.2775C16.2717 13.4511 15.487 11.0084 15.3528 10.5221C15.216 10.0265 15.1643 9.74976 14.6527 9.74976C14.3632 9.74976 14.145 10.0169 14.145 10.3083L14.1448 10.3086Z" fill="#FF9900"/>
<path fill-rule="evenodd" clip-rule="evenodd" d="M7.64478 10.3086C7.64478 11.021 8.71079 10.8671 9.26985 10.8671V15.6406C9.26985 16.4624 10.387 16.4624 10.387 15.6406V10.8671C10.7856 10.8671 12.0121 11.0188 12.0121 10.3594C12.0121 10.0316 11.8219 9.75 11.5044 9.75H8.15272C7.86324 9.75 7.64502 10.0171 7.64502 10.3086H7.64478Z" fill="#FF9900"/>
<path fill-rule="evenodd" clip-rule="evenodd" d="M12.2659 6.19526C12.2659 7.33573 13.8909 7.34974 13.8909 6.19526C13.8909 5.15234 12.2659 5.13096 12.2659 6.19526Z" fill="#35B735"/>
</svg>
