<svg width="21" height="22" viewBox="0 0 21 22" fill="none" xmlns="http://www.w3.org/2000/svg">
<path fill-rule="evenodd" clip-rule="evenodd" d="M1.6579 19.2071V8.55089H19.3421V19.2071C19.3421 19.8221 18.7393 20.3673 17.9817 20.3673H3.01828C2.23997 20.3673 1.6579 19.8148 1.6579 19.2071ZM4.78712 0.000177427H4.95423C5.17259 0.0220009 5.38393 0.130763 5.52857 0.341546C5.74412 0.655236 5.69638 1.23276 5.69638 1.63286H15.3036V1.0312C15.3036 0.472487 15.5941 0 16.0263 0C17.1065 0 16.9615 0.846324 16.9615 1.63286C18.0741 1.63286 18.9663 1.49233 19.8815 2.24782C20.5506 2.80015 21 3.51766 21 4.59765V19.0781C21 20.2479 20.3305 21.2211 19.3851 21.6998C19.1006 21.8439 18.7033 22 18.2794 22H2.72075C1.89154 22 0.904694 21.3944 0.485172 20.6933C0.199054 20.2149 0 19.7188 0 19.0781V4.59765C0 3.53097 0.469374 2.74018 1.16536 2.20914C2.10832 1.48985 2.8912 1.63286 4.03848 1.63286V0.816517C4.03848 0.338175 4.39972 0.0379693 4.78712 0V0.000177427ZM1.6579 4.4259C1.6579 3.85175 2.24383 3.26571 2.93315 3.26571H4.03848C4.03848 3.8718 3.89208 4.89857 4.88858 4.89857C5.78889 4.89857 5.6962 3.79799 5.6962 3.26571H15.3034C15.3034 3.86098 15.2071 4.89857 16.1535 4.89857C17.1028 4.89857 16.9612 3.8113 16.9612 3.26571C17.6924 3.26571 18.4729 3.15127 18.9287 3.59732C19.1188 3.78327 19.3417 4.0691 19.3417 4.4259V6.91804H1.65755V4.4259H1.6579Z" fill="#727272"/>
</svg>
