<svg width="24" height="23" viewBox="0 0 24 23" fill="none" xmlns="http://www.w3.org/2000/svg">
<path fill-rule="evenodd" clip-rule="evenodd" d="M5.87315 9.52315C5.87315 9.88859 6.26208 10.5995 6.42043 10.8622C6.98773 11.8019 7.23657 12.1543 7.99703 13.0592L9.63366 14.7463L10.9484 15.8122C11.5783 16.2864 12.0116 16.5457 12.7007 16.8902C13.0992 17.0886 13.523 17.3479 14.0502 16.9824C14.5427 16.6405 15.9392 14.8246 16.5187 14.8246C17.1216 14.8246 17.2695 15.1483 17.7429 15.6216L19.5848 17.4636C20.1252 18.0039 20.7864 18.5417 19.9442 19.3735L18.7835 20.549C17.2191 22.5745 14.8307 21.446 12.886 20.6586C11.9185 20.267 10.0791 19.115 9.2282 18.4764L8.27198 17.7255C8.15626 17.6341 8.06577 17.5576 7.95178 17.4619C7.50804 17.0895 6.5318 16.1071 6.1742 15.7356L5.12226 14.4966C4.76727 14.0589 4.44098 13.6152 4.11992 13.1627C2.8496 11.3738 1.42439 8.60695 1.42439 6.33427C1.42439 5.02043 2.45893 4.28955 3.43429 3.31331C4.63936 2.10823 4.86472 2.65465 6.28644 4.07725C6.62751 4.41832 7.68728 5.44329 7.91176 5.73129C8.59652 6.60922 8.09883 6.91462 7.31923 7.69422L6.10459 8.90539C5.97147 9.06635 5.87054 9.24385 5.87054 9.52489L5.87315 9.52315ZM18.137 11.0954C18.5503 11.0954 18.901 10.9275 18.901 10.4663C18.901 9.76156 18.3911 8.57214 18.1379 8.08489C17.4818 6.825 16.2646 5.5712 14.9934 4.94038C14.3025 4.59756 13.3507 4.17731 12.5224 4.17731C12.1978 4.17731 11.7628 4.65847 12.0551 5.18401C12.4058 5.81482 13.3489 5.10135 15.699 7.06601L16.1097 7.50889C16.1872 7.6046 16.2402 7.64027 16.3229 7.74555C16.8101 8.36767 17.2652 9.23254 17.4653 10.0174C17.5462 10.3341 17.6106 11.0963 18.1379 11.0963L18.137 11.0954ZM12.1621 0.538587C12.1621 0.790913 12.1413 0.971892 12.3849 1.1694C12.5032 1.26598 12.6563 1.30862 12.8391 1.34429C15.1396 1.79761 17.0346 2.78342 18.6869 4.43573C18.7965 4.54536 18.9036 4.63759 18.9967 4.75505C19.1124 4.89949 19.1776 4.95517 19.2916 5.08917C19.6336 5.49289 20.1095 6.13763 20.3531 6.58746L21.0118 7.86041C21.4494 8.84361 21.4973 9.40656 21.7383 10.3236C21.9915 11.2877 23.0782 10.8988 23.0782 10.3315C23.0782 9.77113 22.6406 8.37202 22.4178 7.80298C22.1299 7.06601 21.7896 6.33427 21.3633 5.66778C21.0327 5.15181 20.6394 4.64716 20.2557 4.17035C19.9398 3.77794 19.0419 2.9209 18.6373 2.59896C17.1042 1.37735 15.3458 0.483771 13.409 0.100931C13.235 0.066127 13.0609 0.0147916 12.8939 0H12.7277C12.6024 0.0130514 12.4832 0.0591662 12.3727 0.165317C12.2648 0.268858 12.1621 0.351517 12.1621 0.538587ZM0.0783691 6.33601V6.33079C0.0792392 5.59991 0.325474 4.83684 0.616953 4.40179C1.04765 3.75793 1.21905 3.64307 1.75155 3.11058C2.12916 2.73296 2.93834 1.84981 3.34206 1.64621C4.12166 1.2538 4.83426 1.152 5.64083 1.66971C5.80006 1.77238 5.8601 1.81936 5.99844 1.94117C6.55791 2.43104 6.99034 2.89131 7.52457 3.42468C8.20324 4.10335 9.5571 5.20054 9.5571 6.24378C9.5571 6.79106 9.5249 7.07123 9.22472 7.57328C9.01677 7.92131 7.44278 9.49444 7.26616 9.61277C7.36187 9.79375 7.43408 9.96342 7.54371 10.1435C8.79751 12.2048 10.4185 13.8597 12.4414 15.2188C12.7668 15.4372 13.1123 15.5598 13.4212 15.7669L15.5572 13.7701C16.6074 13.1323 17.5871 13.576 18.3293 14.3182L20.89 16.8789C21.566 17.5471 21.9706 18.5686 21.4599 19.5379C21.0875 20.2462 20.4158 20.7804 19.8102 21.3929L19.2507 22.0011C18.5294 22.7155 17.6228 23 16.5204 23C14.4722 23 11.5174 21.6313 9.76418 20.4576C9.54056 20.3079 9.36307 20.1896 9.14467 20.0443C8.44425 19.5771 7.16958 18.5904 6.53615 17.9813L5.79571 17.2391C4.40792 15.8592 3.1985 14.3139 2.18833 12.6259C1.27735 11.1041 0.0801093 8.64262 0.0792392 6.33601H0.0783691Z" fill="#E659B6"/>
</svg>
