<svg width="25" height="25" viewBox="0 0 25 25" fill="none" xmlns="http://www.w3.org/2000/svg">
<g clip-path="url(#clip0_8_250)">
<path fill-rule="evenodd" clip-rule="evenodd" d="M6.29867 10.3513C6.29867 10.7485 6.72142 11.5211 6.89355 11.8068C7.51017 12.8282 7.78066 13.2112 8.60724 14.1948L10.3862 16.0286L11.8152 17.1871C12.4999 17.7026 12.9709 17.9844 13.7199 18.3589C14.1531 18.5746 14.6137 18.8564 15.1868 18.4592C15.7221 18.0875 17.24 16.1137 17.8699 16.1137C18.5253 16.1137 18.6861 16.4655 19.2005 16.98L21.2027 18.9822C21.79 19.5695 22.5088 20.154 21.5933 21.0581L20.3317 22.3358C18.6312 24.5375 16.0351 23.3109 13.9214 22.455C12.8697 22.0294 10.8704 20.7772 9.94547 20.083L8.9061 19.2669C8.78031 19.1675 8.68195 19.0843 8.55806 18.9803C8.07573 18.5755 7.0146 17.5078 6.6259 17.1039L5.48249 15.7572C5.09663 15.2815 4.74197 14.7991 4.39299 14.3073C3.0122 12.3629 1.46307 9.35538 1.46307 6.88507C1.46307 5.45699 2.58756 4.66256 3.64774 3.60142C4.9576 2.29156 5.20255 2.88549 6.7479 4.43179C7.11863 4.80253 8.27055 5.91662 8.51456 6.22967C9.25886 7.18393 8.71789 7.51589 7.8705 8.36328L6.55024 9.67977C6.40554 9.85473 6.29584 10.0477 6.29584 10.3531L6.29867 10.3513ZM19.629 12.0602C20.0782 12.0602 20.4593 11.8777 20.4593 11.3764C20.4593 10.6104 19.9051 9.31754 19.6299 8.78792C18.9168 7.41848 17.5937 6.05565 16.212 5.36998C15.4611 4.99735 14.4264 4.54055 13.5261 4.54055C13.1733 4.54055 12.7004 5.06355 13.0182 5.63479C13.3993 6.32046 14.4245 5.54494 16.979 7.68045L17.4254 8.16184C17.5096 8.26587 17.5672 8.30465 17.6571 8.41908C18.1867 9.09529 18.6813 10.0354 18.8989 10.8884C18.9868 11.2327 19.0568 12.0612 19.6299 12.0612L19.629 12.0602ZM13.1345 0.58542C13.1345 0.859688 13.1118 1.0564 13.3766 1.27109C13.5053 1.37607 13.6717 1.42241 13.8703 1.46119C16.3709 1.95392 18.4307 3.02546 20.2267 4.82144C20.3458 4.94061 20.4622 5.04086 20.5634 5.16853C20.6892 5.32553 20.7601 5.38606 20.884 5.5317C21.2557 5.97053 21.773 6.67133 22.0378 7.16029L22.7537 8.54392C23.2294 9.61262 23.2814 10.2245 23.5434 11.2213C23.8186 12.2692 24.9999 11.8465 24.9999 11.2299C24.9999 10.6208 24.5242 9.10002 24.282 8.4815C23.969 7.68045 23.5992 6.88507 23.1358 6.16063C22.7764 5.5998 22.3489 5.05126 21.9319 4.53299C21.5886 4.10645 20.6125 3.17489 20.1728 2.82496C18.5064 1.49713 16.595 0.525838 14.4898 0.109707C14.3006 0.0718771 14.1115 0.0160778 13.9299 0H13.7493C13.6131 0.0141863 13.4835 0.0643111 13.3634 0.179693C13.2461 0.292237 13.1345 0.382084 13.1345 0.58542ZM0 6.88696V6.88129C0.000945747 6.08686 0.268592 5.25743 0.585417 4.78456C1.05356 4.0847 1.23987 3.95986 1.81867 3.38106C2.22912 2.97061 3.10867 2.01067 3.5475 1.78936C4.39488 1.36283 5.16945 1.25218 6.04616 1.8149C6.21923 1.9265 6.28449 1.97757 6.43486 2.10997C7.04297 2.64243 7.51301 3.14273 8.0937 3.72248C8.83138 4.46017 10.303 5.65276 10.303 6.78671C10.303 7.38159 10.268 7.68612 9.94169 8.23182C9.71566 8.61012 8.0048 10.32 7.81281 10.4487C7.91684 10.6454 7.99534 10.8298 8.11451 11.0256C9.47733 13.2661 11.2393 15.0649 13.4381 16.5421C13.7918 16.7795 14.1673 16.9129 14.503 17.138L16.8248 14.9675C17.9663 14.2742 19.0313 14.7566 19.838 15.5633L22.6213 18.3466C23.3562 19.073 23.7959 20.1833 23.2408 21.2369C22.836 22.0067 22.1059 22.5874 21.4476 23.2532L20.8395 23.9143C20.0555 24.6907 19.07 25 17.8718 25C15.6455 25 12.4337 23.5123 10.5281 22.2365C10.285 22.0738 10.0921 21.9452 9.85468 21.7873C9.09335 21.2794 7.70783 20.2069 7.01933 19.5449L6.2145 18.7382C4.70604 17.2382 3.39145 15.5586 2.29344 13.7238C1.30324 12.0697 0.00189149 9.39415 0.000945747 6.88696H0Z" fill="#00DE00"/>
</g>
<defs>
<clipPath id="clip0_8_250">
<rect width="25" height="25" fill="white"/>
</clipPath>
</defs>
</svg>
