<svg width="27" height="21" viewBox="0 0 27 21" fill="none" xmlns="http://www.w3.org/2000/svg">
<g clip-path="url(#clip0_8_421)">
<path fill-rule="evenodd" clip-rule="evenodd" d="M1.05499 18.8785V12.62H22.0441V19.0829C22.0441 19.6448 21.5232 19.9641 20.937 19.9641H2.27279C1.51085 19.9641 1.06151 19.6193 1.06151 18.8785H1.05499ZM27 3.41119V3.41757L26.0492 14.8935C26.0232 15.8067 25.7301 16.5475 24.9617 16.9307C24.1476 17.333 23.809 17.1351 23.1512 17.1159V18.9807C23.1512 20.0855 22.2721 20.9987 21.1454 20.9987H1.89508C0.937771 20.9987 0 20.0855 0 19.1467V7.18542C0.0065123 6.43185 0.56657 5.84432 1.07453 5.55694C1.64761 5.23763 2.65051 5.32704 3.52967 5.32704L3.90738 1.87212C3.93343 1.61029 4.01809 1.32291 4.1288 1.10578C4.21346 0.933355 4.38929 0.677908 4.51954 0.556571C5.58755 -0.407741 7.02677 0.154242 8.75253 0.205331C8.98697 0.211717 9.20839 0.237262 9.48842 0.262807C9.67077 0.275579 9.93777 0.294738 10.1722 0.320282L20.1425 1.1441C20.3444 1.15687 20.631 1.17603 20.8719 1.20157C21.9074 1.31014 25.1896 1.48895 25.7041 1.68692C26.3423 1.9296 26.9935 2.58099 27 3.41119ZM1.05499 9.47166H22.0441V11.5408H1.05499V9.47166ZM1.05499 7.45363C1.05499 6.88527 1.40014 6.41908 1.95369 6.41908H21.2561C21.6274 6.41908 22.0441 6.82779 22.0441 7.1918V8.37963H1.05499V7.44725V7.45363ZM23.3596 16.0877H23.1512V7.35146C23.1512 6.22749 22.2395 5.33343 21.0933 5.33343H4.64327C4.64327 4.80337 4.85166 3.57084 4.90376 2.95138C4.98191 2.05093 4.93632 1.29098 5.75036 1.08662C6.12808 0.99083 18.2996 2.1148 19.5695 2.17866C20.67 2.22975 22.233 2.40856 23.314 2.48519C25.144 2.6193 26.0166 2.45326 25.8994 3.89015C25.7496 5.7166 25.4566 8.39879 25.3719 10.0911C25.3328 10.9277 25.2026 11.7707 25.1635 12.5753C25.1179 13.4183 25.0072 14.2485 24.9551 15.0596C24.8705 16.3751 23.8871 16.0941 23.3726 16.0941L23.3596 16.0877Z" fill="#6B6A6A"/>
<path fill-rule="evenodd" clip-rule="evenodd" d="M15.3429 15.2066H19.348V17.3779H15.3429V15.2066ZM14.2358 14.7915V17.793C14.2358 18.2337 14.4703 18.4636 14.9196 18.4636H19.7192C20.0643 18.4636 20.403 18.2848 20.403 17.9463V14.6383C20.403 14.3126 20.1099 14.121 19.7713 14.121H14.8154C14.4442 14.121 14.2358 14.4211 14.2358 14.7915Z" fill="#6B6A6A"/>
</g>
<defs>
<clipPath id="clip0_8_421">
<rect width="27" height="21" fill="white"/>
</clipPath>
</defs>
</svg>
