<svg width="24" height="19" viewBox="0 0 24 19" fill="none" xmlns="http://www.w3.org/2000/svg">
<g clip-path="url(#clip0_8_446)">
<path d="M2.56 0.00863647H21.12C21.76 0.00863647 22.4 0.325015 23.04 0.641394C23.68 1.27415 23.68 1.90691 23.68 2.53967V16.144C23.68 16.7767 23.36 17.4095 23.04 18.0422C22.72 18.675 21.76 18.675 21.12 18.675H2.56C1.92 18.675 1.28 18.3586 0.64 18.0422C0 17.4095 0 16.7767 0 16.144V2.53967C0 1.90691 0.32 1.27415 0.64 0.641394C1.28 0.00863647 1.92 0.00863647 2.56 0.00863647ZM13.44 5.0707H15.04V6.6526H16.32V8.23449H15.04V9.50001H16.32V11.0819H15.04V12.6638H13.44L12.48 11.0819H9.92V12.6638H8.32V11.0819H6.72V9.50001H8.32V8.23449H6.72V6.6526H8.32V5.0707H9.92L11.2 6.6526H13.44V5.0707ZM12.48 8.55087L13.44 9.81639V8.55087H12.48ZM10.24 8.23449V9.81639H11.52L10.24 8.23449ZM1.6 16.144C1.6 16.4603 1.6 16.7767 1.92 16.7767C2.24 17.0931 2.24 17.0931 2.56 17.0931H21.12C21.44 17.0931 21.76 17.0931 21.76 16.7767C22.08 16.4603 22.08 16.4603 22.08 16.144V2.53967C22.08 2.22329 22.08 1.90691 21.76 1.90691C21.44 1.59053 21.44 1.59053 21.12 1.59053H2.56C2.24 1.59053 1.92 1.59053 1.92 1.90691C1.6 2.22329 1.6 2.22329 1.6 2.53967V16.144Z" fill="#6B6A6A"/>
</g>
<defs>
<clipPath id="clip0_8_446">
<rect width="24" height="19" fill="white"/>
</clipPath>
</defs>
</svg>
