<svg width="22" height="19" viewBox="0 0 22 19" fill="none" xmlns="http://www.w3.org/2000/svg">
<g clip-path="url(#clip0_8_659)">
<path fill-rule="evenodd" clip-rule="evenodd" d="M19.25 14.1445C19.25 14.4043 19.7959 15.918 19.9125 16.3222C19.9889 16.5869 20.0921 16.8048 20.1523 17.0578C19.9813 17.0187 18.9238 16.4752 18.6769 16.354C16.9322 15.4968 17.532 15.5438 16.3659 15.9551C15.4787 16.2681 15.0184 16.3768 14.0505 16.4243C13.8527 16.434 13.7811 16.4733 13.5342 16.4693C13.2998 16.4655 13.2588 16.4302 13.0194 16.4243C10.7452 16.369 8.24304 14.8111 7.20353 12.808C6.09602 10.674 6.39607 8.38169 7.8441 6.4835C9.76028 3.9714 13.7018 3.11655 16.5855 4.39118C17.9331 4.98697 19.045 5.80959 19.817 7.0847C21.0373 9.10006 21.0091 11.3307 19.6884 13.3929C19.573 13.5729 19.25 13.9052 19.25 14.1443V14.1445ZM15.5117 10.0488C15.5117 11.1096 16.8007 10.8575 16.8007 10.2178C16.8007 9.15701 15.5117 9.40902 15.5117 10.0488ZM12.9336 10.0488C12.9336 11.1096 14.2227 10.8575 14.2227 10.2178C14.2227 9.15701 12.9336 9.40902 12.9336 10.0488ZM10.3556 10.0488C10.3556 11.1096 11.6446 10.8575 11.6446 10.2178C11.6446 9.15701 10.3556 9.40902 10.3556 10.0488ZM22.0002 9.63844V10.5474C21.9252 11.6696 21.5706 12.8124 20.9015 13.9094C20.8505 13.993 20.6681 14.2537 20.6681 14.3134C20.6681 14.5494 21.9142 18.0199 21.9142 18.3244C21.9142 18.7343 21.6518 19 21.3556 19C20.8386 19 19.704 18.3042 19.1647 18.0284C18.9535 17.9204 17.2339 17.0578 17.1446 17.0578L15.6755 17.514C14.7536 17.7397 14.2009 17.7333 13.2775 17.7333C11.7703 17.7333 9.99304 17.15 8.81727 16.374C8.49639 16.1622 8.27657 15.9977 7.97892 15.7622C7.60392 15.4655 7.43653 15.1725 7.16618 15.1252C6.60751 15.0276 6.55411 15.0551 5.94803 14.8866L4.85584 14.5245C4.76652 14.5245 3.04694 15.3869 2.83573 15.4951C2.6626 15.5836 2.53185 15.6667 2.33501 15.7631C2.0467 15.9043 0.975102 16.4667 0.816817 16.4667C0.399673 16.4667 0.086216 16.261 0.086216 15.9177C0.086216 15.4975 0.570889 14.1692 0.714567 13.7485C0.831425 13.4061 0.9229 13.0924 1.03712 12.7564C1.45187 11.5362 1.39033 11.8726 1.06083 11.3291C0.245459 9.98457 0.000488281 8.93206 0.000488281 7.30423C0.000488281 4.96179 1.58621 2.58429 3.60153 1.3426C5.24736 0.328679 6.73682 -0.000274658 8.6803 -0.000274658C10.2591 -0.000274658 11.9169 0.579982 13.1575 1.3426L13.9973 1.95297C14.1475 2.08451 14.2397 2.14639 14.3845 2.2904C14.8388 2.74195 14.6793 2.55041 15.4308 2.69771C15.9846 2.80618 16.5972 2.98807 17.1034 3.20737C20.0225 4.47354 21.818 6.94022 22.0007 9.6382L22.0002 9.63844ZM5.24233 9.79562C5.24233 11.4267 5.40948 12.2303 6.14463 13.5958C5.92911 13.5463 5.70402 13.4593 5.50574 13.379C4.64511 13.0306 4.88026 13.0124 3.72414 13.624L2.6068 14.1727C2.40949 14.2697 2.0364 14.4814 1.84771 14.5245L2.5297 12.408C2.94133 11.1983 2.76293 11.6872 2.00575 10.358C1.90829 10.1869 1.85034 10.058 1.77395 9.86809C1.6456 9.54973 1.51054 9.21936 1.43583 8.849C1.06203 6.99199 1.47295 5.43028 2.60201 3.95023C3.06059 3.34926 3.7512 2.75465 4.39607 2.3777C6.84194 0.947526 9.72268 0.889406 12.2009 2.28216C12.3237 2.35111 12.5551 2.47135 12.6326 2.57559C11.8781 2.59206 10.4413 3.03678 9.78207 3.36338C8.54357 3.97705 7.53567 4.73449 6.72126 5.80253C5.91283 6.8628 5.24209 8.42169 5.24209 9.79562H5.24233Z" fill="#797575"/>
</g>
<defs>
<clipPath id="clip0_8_659">
<rect width="22" height="19" fill="white"/>
</clipPath>
</defs>
</svg>
