<svg width="63" height="64" viewBox="0 0 63 64" fill="none" xmlns="http://www.w3.org/2000/svg">
<path fill-rule="evenodd" clip-rule="evenodd" d="M31.4438 63.0138C32.6255 63.0138 34.2431 62.8542 35.3957 62.7139C39.5365 62.2157 44.6023 60.4791 47.9536 58.2734C56.6952 52.522 61.2428 45.3388 62.7829 34.6052L62.9621 30.5662C62.6521 27.6107 59.0828 27.8332 58.5307 29.9422C58.09 31.6207 59.141 35.4178 56.1625 42.364C55.097 44.8455 53.6102 47.1576 51.8426 49.1409L49.1014 51.8787C48.6898 52.2463 48.5106 52.4156 48.0553 52.7542C43.3382 56.2708 38.0303 58.4862 31.4438 58.4862C22.7894 58.4862 16.0866 54.4859 11.665 49.8955C9.74231 47.8977 8.1877 45.3098 6.94789 42.8284C4.35689 37.6574 3.85806 31.1563 5.13177 25.3517C6.17301 20.6161 8.83182 15.958 12.1493 12.6445C13.0937 11.7013 13.6506 11.0918 14.7161 10.2791C16.5758 8.86185 17.6025 8.23302 19.7915 7.13015C26.2279 3.88441 34.9986 3.6087 41.7304 6.57871C42.2825 6.82057 43.9291 7.67675 44.4667 7.67675C45.6871 7.67675 46.7961 6.66578 46.7961 5.48551C46.7961 3.34749 43.624 2.45262 41.4301 1.669C38.8585 0.749937 34.6402 0.0146894 31.715 0.000177892C30.1943 -0.00949642 26.78 0.377476 25.3707 0.658031C24.0485 0.924075 22.954 1.1611 21.753 1.56258C17.4814 2.9847 14.2366 4.89538 10.832 7.77349C9.8198 8.62967 8.66716 9.63579 7.85838 10.6903C5.33033 13.9892 4.42469 14.7535 2.5117 19.0441C2.27924 19.5616 2.0952 20.1566 1.86274 20.7274C-0.253655 25.9709 -0.486119 32.7139 0.758533 38.5959C1.27673 41.0386 2.18238 43.3218 3.19456 45.3388C3.73214 46.4079 4.18254 47.2302 4.7976 48.2605C5.12692 48.8168 5.37392 49.1312 5.74199 49.6439C7.65013 52.2753 8.80276 53.4556 11.2533 55.642C13.3939 57.5527 17.1521 59.7004 19.8642 60.7355C22.46 61.7271 24.2568 62.2399 27.1287 62.6559L31.439 63.0041L31.4438 63.0138Z" fill="#141313"/>
<path fill-rule="evenodd" clip-rule="evenodd" d="M30.8918 36.1724L22.9735 28.3314C22.3003 27.659 21.7288 27.0882 21.0557 26.4159L19.0071 24.4907C18.2709 23.8715 17.7527 22.9863 16.4693 23.2572C15.4572 23.47 14.5806 24.2198 14.5806 25.3517C14.5806 26.6142 15.3893 27.1898 16.0528 27.8525C16.7938 28.5926 17.4428 29.1053 18.1789 29.8357C19.5592 31.2191 20.8426 32.4962 22.2228 33.8747C22.9202 34.5713 23.5111 35.1759 24.2085 35.8628L26.3345 37.8461C27.6325 39.1424 29.5406 41.5078 30.8918 41.5078C32.398 41.5078 34.0252 39.4036 35.4491 37.9815L59.4413 14.4294C59.7949 14.0763 60.0467 13.8151 60.4002 13.4668C61.0008 12.8718 64.4248 10.5742 62.3278 8.46516C60.2889 6.41421 57.8964 9.67445 56.6324 10.9369L43.8808 23.5329C43.2076 24.2053 42.6216 24.6503 41.9629 25.313L34.6887 32.5639C33.4683 33.5845 31.4342 35.7999 30.8918 36.1627V36.1724Z" fill="#141313"/>
</svg>
