<svg width="27" height="28" viewBox="0 0 27 28" fill="none" xmlns="http://www.w3.org/2000/svg">
<g clip-path="url(#clip0_8_185)">
<path fill-rule="evenodd" clip-rule="evenodd" d="M0 8.85939C0 10.2747 0.242941 10.7943 0.757521 11.9781C2.15683 15.197 3.14287 16.6445 5.15064 19.2499L8.00115 22.2262C8.21559 22.3942 8.40381 22.5869 8.61289 22.7576C8.84048 22.9435 9.04459 23.1231 9.2705 23.2974C11.3385 24.8931 14.2303 26.6871 16.6377 27.5694C17.2761 27.8033 17.9167 27.9629 18.5566 27.9999H19.1152C19.6793 27.9659 20.2421 27.8253 20.802 27.545C21.3959 27.2475 21.6663 27.0051 22.1071 26.5645C22.7431 25.9287 23.5844 24.387 23.5844 23.5156C23.5844 22.3767 23.455 21.9328 22.5408 21.0136L20.9591 19.6012C20.169 18.9789 18.0499 17.5547 17.0784 17.5547C16.0022 17.5547 15.2912 18.0851 14.7001 18.8745C13.8203 20.0491 14.6558 20.7265 15.3434 20.7265C16.2014 20.7265 16.4029 19.5781 16.9157 19.5781C17.6647 19.5781 21.5784 22.286 21.5784 23.1328C21.5784 23.8657 21.1397 24.6714 20.7525 25.0888C19.6235 26.3057 18.3561 26.117 16.985 25.5239L14.8735 24.5366C14.6151 24.4073 14.4437 24.2967 14.2046 24.1722C12.795 23.4379 10.7994 21.9977 9.61275 20.9837L8.7979 20.2196C8.54818 19.9772 8.3438 19.8494 7.98284 19.4558C7.16242 18.5611 6.06466 17.2773 5.42161 16.2971C5.13655 15.8627 4.86277 15.4842 4.57718 15.016C3.86043 13.8409 2.00615 10.5243 2.00615 9.24221C2.00615 7.90023 2.53113 7.14493 3.65055 6.58056C4.92882 5.93612 5.14339 6.20727 5.95134 7.1222C6.57194 7.82502 8.34957 10.1383 8.34957 10.8828C8.34957 11.6023 7.21104 11.5807 7.21104 12.5781C7.21104 13.1341 7.64609 13.5625 8.24114 13.5625C8.70207 13.5625 9.41111 12.9487 9.68926 12.617C10.9977 11.0565 10.1167 9.70329 9.26929 8.20513C8.95836 7.65545 7.76612 6.10636 7.30599 5.64643C6.88797 5.22863 6.61203 4.91331 6.09584 4.57019C4.14964 3.27677 0.00013411 5.59239 0.00013411 8.85946L0 8.85939Z" fill="#686868"/>
<path fill-rule="evenodd" clip-rule="evenodd" d="M25.8616 13.5078C26.8769 13.5078 27.0002 12.9698 27.0002 12.1953C27.0002 10.5621 26.544 8.75049 25.8795 7.31016C25.0025 5.40936 24.6132 5.14774 23.431 3.70958L21.8172 2.32964C19.5714 0.768921 17.3536 9.15527e-05 14.5303 9.15527e-05C13.5363 9.15527e-05 13.257 1.41019 14.0573 1.84442C14.7712 2.23184 16.3285 1.6457 19.3924 3.18958C20.1941 3.59351 20.6945 4.01489 21.393 4.56221C22.2624 5.24338 23.072 6.37204 23.6418 7.32504C24.3091 8.44119 24.7099 9.77452 24.9026 11.0846C25.0366 11.9954 24.8902 12.7928 25.2782 13.2213C25.3791 13.3326 25.671 13.5079 25.8615 13.5079L25.8616 13.5078Z" fill="#686868"/>
<path fill-rule="evenodd" clip-rule="evenodd" d="M20.223 13.5078C21.4193 13.5078 21.3501 12.4826 21.2236 11.6235C21.175 11.2938 21.1504 11.0899 21.068 10.7961C20.2142 7.75366 17.5756 5.7422 14.5302 5.7422C13.4706 5.7422 13.1554 7.48196 14.3879 7.74514C14.8164 7.83665 15.1754 7.72336 16.0287 8.00419C16.9195 8.29733 17.7422 8.85763 18.2953 9.60076C18.5522 9.94591 18.8453 10.4191 18.9974 10.8612C19.4815 12.2678 19.0994 12.6742 19.5575 13.1947C19.72 13.3794 19.8968 13.5079 20.223 13.5079V13.5078Z" fill="#686868"/>
</g>
<defs>
<clipPath id="clip0_8_185">
<rect width="27" height="28" fill="white"/>
</clipPath>
</defs>
</svg>
