<svg width="23" height="23" viewBox="0 0 23 23" fill="none" xmlns="http://www.w3.org/2000/svg">
<path fill-rule="evenodd" clip-rule="evenodd" d="M0.00057079 4.4476L4.43675 8.90604C4.56746 8.81586 5.6571 7.77416 5.70562 7.59208L3.49381 5.35687C6.93339 5.34602 10.3627 5.34602 13.7914 5.34602C15.3326 5.34602 16.6979 5.38712 17.8235 6.43452C19.5416 8.0333 19.4063 9.32443 19.4063 11.4997H21.2032C21.2032 9.46884 21.3635 8.4945 20.3641 6.67882C20.2711 6.50986 20.1706 6.38087 20.0621 6.21705C19.9657 6.0715 19.8675 5.92766 19.7539 5.80608C19.6129 5.65539 19.5404 5.5458 19.3949 5.40139C19.3281 5.33461 19.2853 5.28495 19.2128 5.22444C18.356 4.5081 17.6991 4.07716 16.5855 3.76379C16.2812 3.67817 15.7139 3.55203 15.3194 3.54746C11.3781 3.50123 7.40372 3.54917 3.45842 3.54917L5.71532 1.26887L4.46872 0H4.44703L0 4.42477V4.44703L0.00057079 4.4476Z" fill="#FFCC00"/>
<path fill-rule="evenodd" clip-rule="evenodd" d="M1.79745 13.4769C1.79745 14.5249 2.19472 15.5186 2.63651 16.3217C2.72955 16.4907 2.83001 16.6197 2.93846 16.7835C3.03492 16.929 3.1331 17.0729 3.24668 17.1944C3.38767 17.3451 3.46016 17.4547 3.60571 17.5991C3.94533 17.9382 4.4345 18.3063 4.84318 18.5626C5.55268 19.0073 6.80042 19.4434 7.68058 19.4536C11.6219 19.4999 15.5963 19.4519 19.5416 19.4519L17.2847 21.7322L18.5313 23.0011H18.553L23 18.5763V18.5541L18.5638 14.0956L17.2836 15.3536C17.3241 15.4199 17.3013 15.3885 17.3463 15.4473L18.5285 16.6459C18.5844 16.7104 18.5564 16.6779 18.5941 16.7156L18.6403 16.7589C18.803 16.9188 19.4006 17.477 19.4954 17.6556C16.0666 17.6556 12.6373 17.6556 9.20859 17.6556C7.66745 17.6556 6.30212 17.6145 5.17653 16.5671C3.45845 14.9684 3.59372 13.6772 3.59372 11.502H1.79688V13.4786L1.79745 13.4769Z" fill="#FF9900"/>
</svg>
