<svg width="14" height="14" viewBox="0 0 14 14" fill="none" xmlns="http://www.w3.org/2000/svg">
<g clip-path="url(#clip0_8_465)">
<path fill-rule="evenodd" clip-rule="evenodd" d="M12.3118 12.894H4.97737C4.63708 12.894 4.39515 12.676 4.39515 12.3703V4.91939C4.39515 4.63705 4.63655 4.39565 4.91888 4.39565H12.3698C12.6755 4.39565 12.8935 4.63758 12.8935 4.97787V12.3123C12.8935 12.676 12.675 12.8945 12.3113 12.8945L12.3118 12.894ZM3.28918 4.89014V12.3995C3.28918 13.2434 4.04634 14.0005 4.89017 14.0005H12.3996C13.2434 14.0005 14.0005 13.2434 14.0005 12.3995V4.89014C14.0005 4.04631 13.2434 3.28915 12.3996 3.28915H4.89017C4.04634 3.28915 3.28918 4.04631 3.28918 4.89014Z" fill="#FFCC00"/>
<path fill-rule="evenodd" clip-rule="evenodd" d="M0 1.94978V8.78973C0 9.67291 0.292442 10.27 1.01876 10.5944C1.3899 10.7597 1.78443 10.7401 2.21193 10.7401V9.60485H1.57174C1.37554 9.60485 1.13521 9.36451 1.13521 9.16831V1.57173C1.13521 1.37553 1.37554 1.13519 1.57174 1.13519H9.16832C9.36453 1.13519 9.60486 1.37553 9.60486 1.57173V2.1832H10.7401C10.7401 1.40265 10.7236 0.990568 10.2238 0.487568C9.87125 0.132384 9.48204 0.000518799 8.79028 0.000518799H1.95032C0.663046 0.000518799 0.000531713 0.663033 0.000531713 1.95031L0 1.94978Z" fill="#FFCC00"/>
</g>
<defs>
<clipPath id="clip0_8_465">
<rect width="14" height="14" fill="white"/>
</clipPath>
</defs>
</svg>
