<svg width="358" height="115" viewBox="0 0 358 115" fill="none" xmlns="http://www.w3.org/2000/svg">
<path d="M347.07 0.000732422H9.93041C4.446 0.000732422 0 5.67286 0 12.6698V101.33C0 108.327 4.446 113.999 9.93041 113.999H347.07C352.554 113.999 357 108.327 357 101.33V12.6698C357 5.67286 352.554 0.000732422 347.07 0.000732422Z" fill="#272626"/>
<path fill-rule="evenodd" clip-rule="evenodd" d="M244.302 0.000732422H344.331C351.293 0.000732422 357 5.69662 357 12.6698V100.34C357 107.854 350.855 113.999 343.341 113.999H297.176C264.324 96.4627 241.978 61.8385 241.978 22.0018C241.978 14.4533 242.783 7.08895 244.302 0.000732422Z" fill="#FFFF00"/>
<path fill-rule="evenodd" clip-rule="evenodd" d="M254.727 0.000732422H344.343C351.304 0.000732422 357.012 5.69662 357.012 12.6698V101.342C357.012 108.303 351.316 114.011 344.343 114.011H301.56C271.113 97.7514 250.389 65.6703 250.389 28.7333C250.389 18.7339 251.908 9.07964 254.727 0.0122393V0.000732422Z" fill="#FFCC00"/>
<path fill-rule="evenodd" clip-rule="evenodd" d="M0 68.432V47.3515C5.08603 48.1685 8.97534 52.5756 8.97534 57.8918C8.97534 63.2079 5.08603 67.6151 0 68.432Z" fill="#FFCC00"/>
<path fill-rule="evenodd" clip-rule="evenodd" d="M93.9648 21.6222C101.928 29.9186 109.58 23.2216 113.653 28.5033C115.586 30.4479 116.208 33.1405 114.896 36.9033L113.089 35.1197C113.906 32.6573 114.102 30.4479 113.262 28.6759C111.248 27.7438 107.313 28.2847 104.827 28.0545C101.272 27.7323 98.0843 26.6277 93.9648 21.6222ZM190.853 93.1603C194.788 93.9658 198.585 98.7296 197.653 103.436L195.777 102.596C196.077 98.8447 194.535 95.4156 190.853 93.1603C188.735 92.7921 187.021 93.0337 185.72 93.6321C187.101 97.6019 186.606 101.192 183.983 100.064L181.854 99.397C180.588 97.9931 180.554 96.2441 181.451 94.8403C182.05 93.9082 183.223 93.0797 184.673 92.631L183.695 92.9186C182.303 90.0534 179.783 87.8671 176.296 86.2562C179.863 87.2573 182.706 89.3515 185.053 92.5274H185.042C186.791 92.0671 188.896 92.1362 190.841 93.1718L190.853 93.1603ZM185.709 93.6321C185.145 93.8852 184.662 94.2074 184.259 94.5756L185.709 93.6321ZM184.248 94.5756C182.66 96.014 182.326 98.0967 183.35 99.4545C184.443 99.3395 184.558 97.3718 184.248 94.5756ZM183.35 99.4545C183.523 99.6731 183.73 99.8803 183.971 100.053L183.35 99.4545ZM207.618 32.8529C196.79 36.7422 199.793 46.4655 193.315 48.0189C190.749 48.9855 188.045 48.4562 185.134 45.729L187.493 44.8085C189.403 46.5575 191.347 47.6392 193.303 47.5932C194.972 46.1318 196.088 42.323 197.308 40.1482C199.057 37.0414 201.358 34.5674 207.618 32.8529ZM119.314 64.1975C121.754 62.8627 124.124 62.2989 126.552 63.1849C128.716 62.0918 131.109 64.186 129.268 66.7175L125.597 71.746C125.056 72.494 123.376 74.2315 124.067 75.0025C124.746 75.7619 125.931 75.3247 126.69 74.9334C129.256 73.6101 131.42 71.4929 133.307 68.8003L134.561 65.9005C135.827 63.8293 138.082 64.6693 137.622 66.9822L132.455 82.9192C145.861 79.3175 164.065 80.4107 169.047 85.6808C172.465 88.4885 169.899 91.4573 166.516 89.0063C157.391 82.2403 145.021 82.0907 131.569 85.3471C127.496 93.7701 123.227 99.1208 118.44 100.835C112.215 103.068 106.45 99.2474 109.764 92.4929C110.443 91.1236 112.571 88.2238 114.205 87.0041C115.529 86.0145 116.979 86.4863 117.347 88.1433L117.738 89.9038C117.888 90.3641 118.175 90.4562 118.566 90.2375L128.589 84.4726C130.292 80.0885 131.362 75.2556 132.754 70.6414C130.81 73.0808 124.976 79.4441 121.938 75.9115C121.017 74.8414 120.649 73.0923 121.225 71.1707C121.996 68.5932 123.526 66.1537 125.724 63.8408C123.929 63.0468 121.938 63.6912 119.97 64.8649C120.879 66.0271 120.833 67.6496 120.431 68.6967C119.326 71.5964 115.402 71.0326 116.173 67.9142C116.449 66.8211 117.255 65.6244 118.325 64.8534C114.125 61.7926 107.301 68.6507 111.122 76.6249C111.271 76.9011 110.949 77.1543 110.765 76.9011C109.591 74.8989 108.774 70.814 110.316 67.3964C111.731 64.2551 115.885 61.4589 119.337 64.1745L119.314 64.1975ZM144.825 66.9362L144.676 67.2238C146.286 68.6162 148.634 68.0293 149.739 66.5104C151.361 64.3011 149.462 61.5625 146.954 61.8271C142.512 62.2989 139.866 66.2803 139.221 69.4101C138.347 73.6677 142.063 76.6595 145.055 75.014C146.379 74.289 147.633 73.1499 148.806 71.5849C149.002 74.3005 150.153 76.4408 153.237 75.6929C154.652 75.3477 156.217 74.3236 157.92 72.609C157.908 74.3581 158.806 75.969 160.095 76.6479C162.223 77.7756 163.95 76.0956 165.146 74.4962L170.083 67.8682C170.946 68.5586 171.912 69.0534 173.04 69.18C171.751 70.7564 170.785 72.3559 170.186 73.8058C168.483 78.0173 170.278 81.2967 175.088 79.1679C180.232 76.9011 189.334 66.9362 188.689 60.6304C188.056 54.3937 180.554 50.8266 175.031 50.3433C173.822 48.8244 172.522 47.7542 170.773 47.3515C170.554 47.2825 170.405 47.6507 170.658 47.7427C172.142 48.3411 173.213 49.2962 174.179 50.4353C173.005 50.654 172.039 50.9416 171.325 51.4479C168.034 53.7608 171.44 59.3877 174.754 56.2003C175.802 55.1877 176.4 53.3696 175.537 51.2638C178.529 51.0337 183.73 52.8863 186.319 56.4995C188.16 59.0655 188.689 62.5866 186.86 66.3378C184.915 69.9625 181.866 73.3225 178.218 76.5214C176.032 78.3164 173.88 79.5016 172.223 78.9263C170.98 78.2129 172.361 75.877 173.926 73.8518C174.444 73.1729 174.95 72.4019 175.652 71.9762C178.091 70.4918 179.61 68.6162 178.667 67.5C177.792 66.4644 175.065 66.706 173.627 68.5816C172.442 68.2249 171.774 67.8567 171.567 67.431C171.072 66.4184 173.684 64.8534 174.985 64.1285C177.47 62.7592 175.479 61.7926 173.914 61.8386C171.21 61.9192 168.713 64.7268 169.519 67.1548L164.479 73.8748C163.938 74.5882 162.546 76.1531 161.579 75.5663C160.716 75.0485 161.924 73.1269 162.316 72.471L165.48 67.2929C168.23 64.1285 165.123 62.9203 162.615 64.4967C159.83 67.1318 158.61 69.2721 157.931 71.677C156.194 73.426 154.64 74.3236 153.513 74.4501C151.603 74.6573 151.994 73.449 152.305 72.3214C153.421 69.9279 154.744 67.7186 156.401 65.8085C157.322 64.7729 159.634 63.2655 159.45 66.3608C159.45 66.9477 159.842 67.0282 160.06 66.8556C162.039 63.7258 158.231 62.0342 155.078 63.0699C152.074 64.0595 149.658 66.9016 148.945 70.3767C147.173 72.7816 145.573 74.1395 144.192 74.1395C140.153 72.471 144.089 66.0847 146.39 64.117C146.919 63.6682 147.69 62.9203 148.415 63.3921C149.232 63.9099 148.668 65.0145 148.289 65.6474C147.414 67.1088 146.171 67.3504 144.791 66.9477L144.825 66.9362ZM174.662 51.2293C173.65 51.3329 172.764 51.6551 172.05 52.2879C170.831 53.3696 170.347 55.3718 172.062 56.1312C174.294 57.1093 176.952 53.6803 174.651 51.2293H174.662ZM141.085 51.2178L141.154 50.6655C142.017 51.0107 142.903 50.9877 143.847 50.4353C144.768 49.8945 146.263 48.226 145.021 47.271C143.456 46.0858 141.603 48.7208 140.878 49.883C139.82 51.563 139.106 53.5422 139.198 55.7975C139.877 59.3071 142.351 57.3625 145.423 53.6227C145.987 49.1696 150.187 45.4414 153.766 45.2227C155.342 45.1307 156.32 46.0167 154.974 47.3055C152.569 49.6184 150.417 52.0923 148.783 54.9C148.404 55.5559 148.415 56.1197 148.645 56.4534C149.474 57.6732 152.822 55.4408 154.721 52.6562L158.081 48.0995C159.393 46.5921 161.176 46.4079 162.131 47.1099C163.225 47.9153 163.075 49.6299 162.131 50.5274L157.471 54.9575C155.089 57.2244 158.104 58.0989 160.164 56.7871C164.088 54.2901 167.344 48.226 166.044 42.6912C159.98 43.934 154.376 43.117 151.465 40.8732C146.425 36.9953 150.82 31.334 156.746 31.7022C160.67 31.9438 163.996 35.1427 166.803 40.7351C170.716 39.6534 174.973 37.9389 178.356 36.0288C181.774 34.0956 182.05 37.7433 179.645 38.6868C175.721 40.2288 171.625 41.6096 167.286 42.5301C168.103 47.0063 166.216 52.4721 162.12 56.0737C158.829 58.9619 153.122 59.9515 154.088 54.2211C152.443 55.6479 149.785 58.8584 147.311 58.0299C146.31 57.6962 145.47 56.5225 145.366 54.4858C139.682 62.3219 134.653 59.3301 135.988 52.1153C136.621 48.6748 139.797 45.6715 142.834 45.4299C145.608 45.2112 147.828 47.7197 146.275 50.0556C145.205 51.6551 142.581 52.334 141.062 51.2063L141.085 51.2178ZM150.394 36.0288C149.923 37.5592 150.763 39.1816 152.868 40.3669C156.159 42.2195 161.153 42.2079 165.25 41.2184C165.687 41.1148 165.583 40.8962 165.445 40.597C162.592 34.6134 159.071 31.7942 154.721 32.7723C152.983 33.1636 150.958 34.2222 150.394 36.0288ZM108.786 53.9219L109.119 53.7723C109.062 52.0003 108.924 43.0249 111.421 42.9214C114.274 42.8063 118.129 53.6918 119.245 56.2693C119.706 57.3395 120.96 61.1827 122.456 60.6649C123.894 60.1586 122.732 54.6353 122.548 53.0244C123.802 44.889 125.804 37.9504 129.141 33.129C129.866 32.0819 132.547 30.0682 134.055 30.7816C135.366 31.403 134.596 33.5893 134.262 34.6019C132.893 38.894 130.844 41.7937 129.912 44.6704C128.382 49.4227 128.071 52.8748 128.485 55.3373C129.118 59.1345 131.408 61.643 134.147 62.506C137.023 63.4151 140.027 62.391 142.8 60.6995C143.283 60.4003 142.903 60.0666 142.501 59.94C137.058 61.7581 132.904 60.5729 133.997 54.3362C134.987 48.6518 140.084 39.4808 139.497 33.2211C137.783 25.4195 132.248 27.0419 129.199 30.2178C125.965 34.4523 123.56 42.3921 121.938 51.7126C120.569 47.317 118.693 44.3827 116.403 42.7258C112.71 40.0562 109.465 40.8386 108.417 45.5795C107.98 47.5471 107.693 50.9071 108.797 53.9219H108.786ZM118.889 65.3827C119.763 66.5795 119.74 68.3285 119.119 69.226C118.359 70.3307 116.633 69.7323 116.806 68.3975C116.956 67.2353 118.279 65.7625 118.889 65.3712V65.3827ZM115.471 88.0512C115.655 87.8901 115.77 87.9477 115.805 88.1663L116.288 90.3066C116.461 91.0775 116.944 91.6299 117.761 91.7795C118.624 91.9406 119.406 91.5838 120.12 91.1466L127.737 86.4978C124.159 94.9553 119.798 99.7767 114.447 100.145C110.868 100.064 109.223 98.3959 110.5 95.0014C111.605 92.0556 113.342 89.8808 115.471 88.0512Z" fill="#FFCC00"/>
<path d="M117.672 20.6704C117.131 20.5208 116.648 20.4057 116.222 20.3252C115.796 20.2446 115.416 20.2101 115.083 20.2101C114.887 20.2101 114.726 20.2331 114.611 20.2907C114.484 20.3367 114.427 20.4057 114.427 20.4748C114.427 20.6244 114.565 20.7279 114.841 20.8085C115.117 20.889 115.509 20.9235 116.026 20.9235C116.279 20.9235 116.556 20.9005 116.82 20.8545C117.096 20.8085 117.384 20.7394 117.683 20.6589L117.672 20.6704ZM123.057 16.4129C124.024 16.0562 124.864 15.6534 125.554 15.2046C126.244 14.7559 126.82 14.2266 127.292 13.6397C127.453 13.4441 127.568 13.26 127.66 13.0759C127.74 12.8918 127.786 12.7422 127.786 12.6271C127.786 12.5005 127.752 12.42 127.694 12.3625C127.625 12.3049 127.533 12.2819 127.384 12.2819C126.854 12.2819 126.21 12.6386 125.462 13.352C124.714 14.0655 123.92 15.0896 123.057 16.4244V16.4129ZM122.712 16.8962C121.998 18.0008 121.308 18.8408 120.652 19.4277C119.996 20.0145 119.283 20.4172 118.535 20.6474C118.845 20.7394 119.133 20.8085 119.386 20.8545C119.651 20.9005 119.881 20.9235 120.077 20.9235C120.583 20.9235 121.066 20.8315 121.527 20.6474C121.987 20.4633 122.493 20.1641 123.057 19.7268C123.149 19.6578 123.253 19.5657 123.391 19.4507C123.586 19.2896 123.713 19.209 123.759 19.209C123.782 19.209 123.805 19.2205 123.816 19.232C123.828 19.2551 123.839 19.2781 123.839 19.3011C123.839 19.3471 123.793 19.4277 123.69 19.5197C123.586 19.6233 123.391 19.7844 123.103 20.0145C122.551 20.4518 122.044 20.7509 121.607 20.9235C121.158 21.0962 120.687 21.1767 120.157 21.1767C119.835 21.1767 119.513 21.1422 119.179 21.0846C118.845 21.0156 118.5 20.9235 118.144 20.7855C117.81 20.9235 117.453 21.0156 117.096 21.0846C116.74 21.1537 116.36 21.1767 115.969 21.1767C115.37 21.1767 114.91 21.1192 114.599 21.0041C114.277 20.889 114.128 20.7164 114.128 20.4863C114.128 20.2907 114.22 20.1526 114.404 20.0605C114.588 19.9685 114.876 19.9225 115.255 19.9225C115.635 19.9225 116.049 19.9685 116.521 20.0605C116.993 20.1526 117.488 20.3022 118.029 20.4863C118.604 20.2101 119.168 19.8074 119.732 19.2781C120.295 18.7488 120.882 18.0698 121.481 17.2298L119.858 17.5635L119.732 17.5866C119.409 17.6556 119.214 17.6786 119.156 17.6786C119.087 17.6786 119.03 17.6671 118.995 17.6556C118.961 17.6326 118.938 17.6096 118.938 17.5751C118.938 17.483 119.271 17.3794 119.939 17.2644C120.606 17.1493 121.227 17.0112 121.803 16.8501C123.011 15.2277 124.07 14.0079 125.002 13.2025C125.934 12.3855 126.716 11.9827 127.361 11.9827C127.602 11.9827 127.775 12.0403 127.901 12.1553C128.028 12.2704 128.085 12.443 128.085 12.6616C128.085 13.2945 127.602 13.9849 126.647 14.7329C125.681 15.4923 124.369 16.2057 122.7 16.8731L122.712 16.8962ZM124.035 20.0145C124.001 20.0951 123.966 20.1641 123.955 20.2446C123.932 20.3137 123.932 20.3827 123.932 20.4403C123.932 20.5668 123.978 20.6704 124.058 20.7394C124.139 20.8085 124.254 20.843 124.403 20.843C124.656 20.843 124.967 20.7509 125.335 20.5668C125.704 20.3827 126.095 20.1181 126.521 19.7729C126.624 19.6808 126.762 19.5657 126.912 19.4162C127.073 19.2666 127.165 19.1975 127.199 19.1975C127.234 19.1975 127.257 19.209 127.269 19.2205C127.28 19.2435 127.292 19.2666 127.303 19.3011C127.303 19.3471 127.245 19.4277 127.142 19.5312C127.038 19.6463 126.843 19.8074 126.578 20.0375C126.175 20.3827 125.773 20.6474 125.37 20.843C124.967 21.0386 124.61 21.1307 124.311 21.1307C124.024 21.1307 123.793 21.0386 123.621 20.866C123.448 20.6934 123.356 20.4518 123.356 20.1411C123.356 19.8649 123.448 19.5888 123.621 19.3241C123.793 19.0479 124.047 18.7948 124.38 18.5416C124.668 18.3345 124.944 18.1734 125.197 18.0698C125.45 17.9663 125.681 17.9088 125.899 17.9088C126.095 17.9088 126.233 17.9433 126.313 18.0008C126.394 18.0698 126.44 18.1734 126.44 18.323C126.44 18.6337 126.21 18.9559 125.75 19.2896C125.289 19.6233 124.725 19.8649 124.058 19.9915L124.035 20.0145ZM124.208 19.6578C124.749 19.5427 125.209 19.3586 125.577 19.117C125.945 18.8638 126.129 18.6337 126.129 18.4151C126.129 18.3345 126.118 18.2885 126.083 18.254C126.06 18.2194 126.003 18.2079 125.934 18.2079C125.727 18.2079 125.485 18.3345 125.186 18.5762C124.887 18.8293 124.553 19.186 124.185 19.6693L124.208 19.6578ZM128.27 18.6107C128.016 18.7948 127.752 19.0134 127.453 19.2666C127.165 19.5082 126.992 19.6348 126.946 19.6348C126.923 19.6348 126.912 19.6233 126.889 19.6118C126.877 19.5888 126.866 19.5657 126.866 19.5312C126.866 19.4392 127.361 19.0134 128.339 18.2655L128.81 17.8972L129.34 17.3104H128.281L128.477 17.1033H129.558L130.686 15.6994C130.732 15.6419 130.778 15.6074 130.824 15.5844C130.87 15.5614 130.939 15.5499 131.008 15.5499C131.146 15.5499 131.25 15.5729 131.33 15.6074C131.411 15.6419 131.457 15.6879 131.457 15.7455C131.457 15.78 131.457 15.803 131.445 15.826C131.434 15.849 131.422 15.872 131.399 15.9066L130.364 17.1148H131.595L131.399 17.3219H130.214L128.799 18.9444C128.465 19.3241 128.224 19.6463 128.062 19.9109C127.901 20.1756 127.821 20.3942 127.821 20.5668C127.821 20.6589 127.832 20.7279 127.878 20.774C127.913 20.82 127.97 20.843 128.039 20.843C128.235 20.843 128.511 20.7625 128.845 20.5899C129.179 20.4172 129.547 20.1756 129.961 19.8649C130.111 19.7499 130.272 19.6233 130.444 19.4622C130.617 19.3011 130.721 19.232 130.767 19.232C130.801 19.232 130.824 19.2435 130.836 19.2666C130.859 19.2896 130.859 19.3126 130.859 19.3471C130.859 19.3931 130.813 19.4622 130.732 19.5542C130.652 19.6348 130.444 19.8189 130.111 20.072C129.662 20.4288 129.248 20.7049 128.856 20.9005C128.465 21.0962 128.143 21.1882 127.867 21.1882C127.683 21.1882 127.533 21.1422 127.43 21.0386C127.326 20.9351 127.269 20.797 127.269 20.6244C127.269 20.3597 127.349 20.072 127.499 19.7499C127.66 19.4392 127.913 19.0709 128.258 18.6452L128.27 18.6107ZM135.784 14.6638H135.749C135.645 14.6638 135.565 14.6293 135.507 14.5718C135.45 14.5142 135.427 14.4337 135.427 14.3301C135.427 14.1575 135.484 14.0079 135.599 13.8698C135.715 13.7318 135.853 13.6627 136.002 13.6627C136.129 13.6627 136.232 13.7088 136.313 13.7893C136.393 13.8699 136.428 13.9734 136.428 14.1C136.428 14.2496 136.393 14.3877 136.313 14.5257C136.232 14.6638 136.117 14.8019 135.956 14.9285C135.795 15.0551 135.622 15.1586 135.45 15.2507C135.266 15.3427 135.139 15.3772 135.047 15.3772C135.001 15.3772 134.967 15.3657 134.932 15.3542C134.898 15.3427 134.886 15.3197 134.886 15.2967C134.886 15.2392 134.99 15.1471 135.22 15.032C135.438 14.917 135.622 14.7904 135.784 14.6523V14.6638ZM133.977 20.6819C134 20.7625 134.058 20.82 134.138 20.866C134.219 20.9005 134.334 20.9235 134.483 20.9235C134.886 20.9235 135.197 20.7049 135.415 20.2792C135.634 19.8534 135.761 19.209 135.807 18.346C135.427 18.5646 135.07 18.8063 134.736 19.0825C134.403 19.3586 134.219 19.5082 134.184 19.5082C134.161 19.5082 134.127 19.4967 134.115 19.4852C134.092 19.4737 134.092 19.4507 134.092 19.4277C134.092 19.3471 134.253 19.1745 134.587 18.9099C134.921 18.6452 135.346 18.3575 135.876 18.0238C135.899 17.7937 135.968 17.5981 136.071 17.46C136.175 17.3219 136.301 17.2414 136.428 17.2414C136.497 17.2414 136.543 17.2644 136.578 17.3104C136.612 17.3564 136.635 17.414 136.635 17.483C136.635 17.5981 136.589 17.7131 136.509 17.8282C136.416 17.9433 136.301 18.0468 136.14 18.1159C136.221 18.2425 136.29 18.392 136.324 18.5531C136.37 18.7142 136.382 18.8983 136.382 19.1055C136.382 19.4392 136.324 19.7268 136.221 19.98C136.117 20.2331 135.956 20.4288 135.761 20.5899C136.278 20.3827 136.75 20.1066 137.199 19.7383C137.636 19.3816 137.866 19.1975 137.866 19.1975C137.889 19.1975 137.912 19.209 137.935 19.2205C137.958 19.2435 137.958 19.2666 137.958 19.3011C137.958 19.3586 137.866 19.4737 137.694 19.6348C137.521 19.7959 137.291 19.98 137.015 20.1641C136.566 20.4748 136.129 20.7164 135.692 20.889C135.254 21.0616 134.863 21.1422 134.518 21.1422C134.265 21.1422 134.046 21.0846 133.885 20.9696C133.724 20.8545 133.643 20.7049 133.643 20.5208C133.643 20.3712 133.689 20.2446 133.781 20.1526C133.873 20.0605 133.989 20.0145 134.127 20.0145C134.23 20.0145 134.311 20.049 134.368 20.1066C134.426 20.1641 134.46 20.2446 134.46 20.3367C134.46 20.4403 134.426 20.5323 134.345 20.5899C134.276 20.6474 134.173 20.6819 134.058 20.6819C134.023 20.6819 134 20.6819 133.989 20.6819C133.977 20.6819 133.954 20.6819 133.954 20.6819H133.977ZM142.25 16.3899C143.125 16.1597 143.919 15.8605 144.644 15.5038C145.369 15.1356 146.002 14.7214 146.542 14.2381C146.934 13.8929 147.233 13.5707 147.463 13.2715C147.682 12.9723 147.797 12.7422 147.797 12.5811C147.797 12.5005 147.774 12.4315 147.716 12.397C147.659 12.3625 147.578 12.3394 147.452 12.3394C146.876 12.3394 146.105 12.7077 145.127 13.4556C144.161 14.2035 143.194 15.1816 142.25 16.4014V16.3899ZM140.939 16.689C141.502 15.9526 142.112 15.2737 142.768 14.6753C143.424 14.0655 144.126 13.5246 144.885 13.0414C145.403 12.7192 145.887 12.466 146.335 12.2819C146.796 12.0978 147.164 12.0172 147.463 12.0172C147.705 12.0172 147.877 12.0748 147.992 12.1668C148.107 12.2704 148.165 12.42 148.165 12.6271C148.165 13.3175 147.578 14.0655 146.416 14.8594C145.254 15.6534 143.746 16.3093 141.882 16.8156C141.353 17.506 140.962 18.0929 140.697 18.5877C140.432 19.0825 140.306 19.4967 140.306 19.8304C140.306 20.1641 140.409 20.4172 140.628 20.6014C140.847 20.7855 141.146 20.8775 141.514 20.8775C141.802 20.8775 142.124 20.7855 142.469 20.6014C142.814 20.4172 143.205 20.1296 143.643 19.7383C143.976 19.4392 144.218 19.186 144.379 18.9674C144.54 18.7603 144.621 18.5877 144.621 18.4496C144.621 18.323 144.586 18.2309 144.529 18.1734C144.46 18.1159 144.368 18.0929 144.23 18.0929C143.999 18.0929 143.723 18.1734 143.39 18.346C143.056 18.5186 142.734 18.7488 142.423 19.0364C142.216 19.2205 142.009 19.4392 141.813 19.7038C141.618 19.9685 141.491 20.0951 141.433 20.0951C141.41 20.0951 141.387 20.0835 141.364 20.0605C141.341 20.0375 141.341 20.0145 141.33 19.98C141.33 19.9109 141.387 19.8074 141.491 19.6463C141.595 19.4852 141.733 19.3241 141.894 19.163C142.319 18.7142 142.734 18.3805 143.136 18.1504C143.551 17.9203 143.93 17.8052 144.287 17.8052C144.529 17.8052 144.713 17.8742 144.851 18.0123C144.978 18.1504 145.047 18.346 145.047 18.5992C145.047 18.8983 144.932 19.2205 144.701 19.5542C144.471 19.8994 144.161 20.1986 143.769 20.4748C143.436 20.7049 143.079 20.889 142.711 21.0041C142.342 21.1307 141.986 21.1882 141.618 21.1882C141.054 21.1882 140.628 21.0386 140.317 20.7394C140.007 20.4403 139.857 20.026 139.857 19.4737C139.857 19.117 139.926 18.7372 140.053 18.3345C140.179 17.9318 140.375 17.5175 140.616 17.1033C140.087 17.2183 139.627 17.2989 139.247 17.3679C138.867 17.4255 138.603 17.46 138.442 17.46C138.373 17.46 138.315 17.4485 138.269 17.4255C138.223 17.4025 138.2 17.3679 138.2 17.3334C138.2 17.2414 138.522 17.1378 139.167 17.0227C139.811 16.9192 140.398 16.7926 140.939 16.6545V16.689ZM146.934 20.0145C146.899 20.0951 146.865 20.1641 146.853 20.2446C146.83 20.3137 146.83 20.3827 146.83 20.4403C146.83 20.5668 146.876 20.6704 146.957 20.7394C147.037 20.8085 147.152 20.843 147.302 20.843C147.555 20.843 147.866 20.7509 148.234 20.5668C148.602 20.3827 148.993 20.1181 149.419 19.7729C149.523 19.6808 149.661 19.5657 149.81 19.4162C149.972 19.2666 150.064 19.1975 150.098 19.1975C150.133 19.1975 150.156 19.209 150.167 19.2205C150.179 19.2435 150.19 19.2666 150.202 19.3011C150.202 19.3471 150.144 19.4277 150.041 19.5312C149.937 19.6463 149.741 19.8074 149.477 20.0375C149.074 20.3827 148.671 20.6474 148.269 20.843C147.866 21.0386 147.509 21.1307 147.21 21.1307C146.922 21.1307 146.692 21.0386 146.519 20.866C146.347 20.6934 146.255 20.4518 146.255 20.1411C146.255 19.8649 146.347 19.5888 146.519 19.3241C146.692 19.0479 146.945 18.7948 147.279 18.5416C147.567 18.3345 147.843 18.1734 148.096 18.0698C148.349 17.9663 148.579 17.9088 148.798 17.9088C148.993 17.9088 149.132 17.9433 149.212 18.0008C149.293 18.0698 149.339 18.1734 149.339 18.323C149.339 18.6337 149.109 18.9559 148.648 19.2896C148.188 19.6233 147.624 19.8649 146.957 19.9915L146.934 20.0145ZM147.106 19.6578C147.647 19.5427 148.107 19.3586 148.476 19.117C148.844 18.8638 149.028 18.6337 149.028 18.4151C149.028 18.3345 149.016 18.2885 148.982 18.254C148.959 18.2194 148.901 18.2079 148.832 18.2079C148.625 18.2079 148.384 18.3345 148.084 18.5762C147.785 18.8293 147.452 19.186 147.083 19.6693L147.106 19.6578ZM151.157 18.5992C150.892 18.7948 150.616 19.0134 150.328 19.2551C150.041 19.4967 149.879 19.6233 149.833 19.6233C149.81 19.6233 149.787 19.6118 149.776 19.6003C149.764 19.5772 149.753 19.5542 149.753 19.5197C149.753 19.4507 149.902 19.3011 150.202 19.0479C150.501 18.7948 151.007 18.4035 151.698 17.8972L155.322 13.8238C155.38 13.7663 155.426 13.7203 155.46 13.7088C155.506 13.6857 155.552 13.6742 155.61 13.6742C155.725 13.6742 155.817 13.6857 155.898 13.7203C155.967 13.7548 156.013 13.7893 156.013 13.8353C156.013 13.8698 156.001 13.8929 155.99 13.9274C155.978 13.9504 155.944 13.9849 155.898 14.0425L151.698 18.9444C151.398 19.3011 151.168 19.6233 151.007 19.8994C150.846 20.1756 150.765 20.4057 150.765 20.5668C150.765 20.6704 150.789 20.7394 150.823 20.7855C150.858 20.8315 150.915 20.8545 150.996 20.8545C151.18 20.8545 151.41 20.797 151.663 20.6704C151.928 20.5553 152.238 20.3597 152.607 20.0951C152.848 19.9225 153.09 19.7383 153.332 19.5312C153.573 19.3241 153.711 19.2205 153.746 19.2205C153.78 19.2205 153.803 19.232 153.815 19.2435C153.826 19.2666 153.838 19.2896 153.849 19.3241C153.849 19.3931 153.619 19.6233 153.17 19.98L153.136 20.003C152.687 20.3597 152.261 20.6474 151.859 20.843C151.456 21.0501 151.122 21.1537 150.869 21.1537C150.685 21.1537 150.535 21.1077 150.432 21.0041C150.328 20.9005 150.271 20.7625 150.271 20.5899C150.271 20.3597 150.34 20.0835 150.478 19.7614C150.616 19.4392 150.835 19.0594 151.134 18.6222L151.157 18.5992ZM154.068 20.0145C154.033 20.0951 153.999 20.1641 153.987 20.2446C153.964 20.3137 153.964 20.3827 153.964 20.4403C153.964 20.5668 154.01 20.6704 154.091 20.7394C154.172 20.8085 154.287 20.843 154.436 20.843C154.689 20.843 155 20.7509 155.368 20.5668C155.736 20.3827 156.128 20.1181 156.553 19.7729C156.657 19.6808 156.795 19.5657 156.945 19.4162C157.106 19.2666 157.198 19.1975 157.232 19.1975C157.267 19.1975 157.29 19.209 157.301 19.2205C157.313 19.2435 157.324 19.2666 157.336 19.3011C157.336 19.3471 157.278 19.4277 157.175 19.5312C157.071 19.6463 156.876 19.8074 156.611 20.0375C156.208 20.3827 155.805 20.6474 155.403 20.843C155 21.0386 154.643 21.1307 154.344 21.1307C154.056 21.1307 153.826 21.0386 153.654 20.866C153.481 20.6934 153.389 20.4518 153.389 20.1411C153.389 19.8649 153.481 19.5888 153.654 19.3241C153.826 19.0479 154.079 18.7948 154.413 18.5416C154.701 18.3345 154.977 18.1734 155.23 18.0698C155.483 17.9663 155.713 17.9088 155.932 17.9088C156.128 17.9088 156.266 17.9433 156.346 18.0008C156.427 18.0698 156.473 18.1734 156.473 18.323C156.473 18.6337 156.243 18.9559 155.782 19.2896C155.322 19.6233 154.758 19.8649 154.091 19.9915L154.068 20.0145ZM154.241 19.6578C154.781 19.5427 155.242 19.3586 155.61 19.117C155.978 18.8638 156.162 18.6337 156.162 18.4151C156.162 18.3345 156.151 18.2885 156.116 18.254C156.093 18.2194 156.036 18.2079 155.967 18.2079C155.759 18.2079 155.518 18.3345 155.219 18.5762C154.919 18.8293 154.586 19.186 154.218 19.6693L154.241 19.6578ZM160.328 19.3931C160.615 19.0709 160.822 18.8178 160.949 18.6452C161.076 18.4726 161.133 18.3345 161.133 18.254C161.133 18.2425 161.122 18.2194 161.11 18.2079C161.087 18.1964 161.064 18.1849 161.041 18.1849C160.869 18.1849 160.696 18.2885 160.523 18.4841C160.351 18.6797 160.259 18.8868 160.259 19.094C160.259 19.1285 160.27 19.163 160.282 19.2205C160.293 19.2781 160.316 19.3241 160.339 19.3816L160.328 19.3931ZM158.291 18.5877C158.026 18.7833 157.75 19.0019 157.462 19.2435C157.175 19.4967 157.002 19.6118 156.968 19.6118C156.945 19.6118 156.922 19.6003 156.91 19.5888C156.899 19.5657 156.887 19.5427 156.887 19.5082C156.887 19.4392 157.037 19.2896 157.347 19.0364C157.647 18.7833 158.153 18.392 158.843 17.8857L162.318 13.8123C162.376 13.7548 162.422 13.7088 162.456 13.6972C162.502 13.6742 162.56 13.6627 162.629 13.6627C162.756 13.6627 162.859 13.6742 162.951 13.7088C163.032 13.7433 163.078 13.7778 163.078 13.8238C163.078 13.8698 163.043 13.9274 162.986 13.9964C162.974 14.0079 162.963 14.0194 162.963 14.0309L159.119 18.5071C158.613 19.094 158.268 19.5427 158.084 19.8304C157.9 20.1181 157.819 20.3597 157.819 20.5553C157.819 20.6129 157.842 20.6589 157.9 20.7049C157.957 20.7509 158.015 20.774 158.095 20.774C158.302 20.774 158.59 20.6704 158.935 20.4748C159.292 20.2792 159.683 19.9915 160.121 19.6233C160.063 19.5197 160.017 19.4392 159.994 19.3471C159.959 19.2666 159.948 19.1745 159.948 19.1055C159.948 18.8178 160.063 18.5531 160.282 18.3115C160.512 18.0699 160.753 17.9433 161.041 17.9433C161.156 17.9433 161.248 17.9778 161.306 18.0353C161.375 18.0929 161.409 18.1734 161.409 18.277C161.409 18.4035 161.352 18.5762 161.225 18.7718C161.099 18.9674 160.88 19.2435 160.558 19.6003C160.615 19.6463 160.684 19.6808 160.753 19.6923C160.822 19.7153 160.892 19.7268 160.972 19.7268C161.271 19.7268 161.547 19.6463 161.801 19.4737C162.054 19.3011 162.18 19.2205 162.192 19.2205C162.226 19.2205 162.249 19.232 162.261 19.2435C162.272 19.2551 162.284 19.2781 162.295 19.3126C162.295 19.4162 162.146 19.5657 161.858 19.7383C161.57 19.9109 161.271 20.003 160.949 20.003C160.834 20.003 160.73 19.9915 160.627 19.9685C160.523 19.9455 160.42 19.8994 160.328 19.8534C159.81 20.2907 159.35 20.6129 158.947 20.843C158.533 21.0616 158.176 21.1767 157.877 21.1767C157.704 21.1767 157.555 21.1307 157.451 21.0271C157.336 20.9235 157.29 20.7855 157.29 20.6129C157.29 20.3367 157.37 20.0375 157.532 19.7268C157.693 19.4046 157.957 19.0479 158.302 18.6452L158.291 18.5877ZM165.264 18.1619C165.276 18.1504 165.287 18.1389 165.322 18.1274C165.356 18.1159 165.391 18.1159 165.414 18.1044C165.529 18.1044 165.621 18.1159 165.701 18.1389C165.782 18.1619 165.828 18.1964 165.828 18.2194C165.828 18.2309 165.793 18.2885 165.713 18.3575C165.644 18.4381 165.575 18.5071 165.529 18.5762C165.379 18.7718 165.264 18.9559 165.184 19.14C165.103 19.3241 165.069 19.4852 165.069 19.6233C165.069 19.7268 165.092 19.8189 165.149 19.8764C165.207 19.9455 165.276 19.9685 165.368 19.9685C165.471 19.9685 165.575 19.934 165.69 19.8764C165.805 19.8189 165.955 19.7153 166.116 19.5657C166.185 19.5082 166.277 19.4277 166.392 19.3241C166.518 19.209 166.599 19.14 166.633 19.14C166.668 19.14 166.691 19.1515 166.702 19.1745C166.714 19.186 166.725 19.2205 166.737 19.2551C166.737 19.2896 166.714 19.3356 166.668 19.3931C166.622 19.4507 166.53 19.5312 166.38 19.6578C166.093 19.8994 165.862 20.0605 165.69 20.1411C165.517 20.2216 165.356 20.2677 165.207 20.2677C164.999 20.2677 164.838 20.1986 164.723 20.072C164.608 19.9455 164.551 19.7729 164.551 19.5427C164.551 19.4622 164.562 19.3701 164.585 19.2666C164.608 19.163 164.643 19.0479 164.677 18.9329C164.309 19.2666 163.964 19.6118 163.642 19.9685C163.319 20.3252 163.02 20.6934 162.744 21.0616C162.641 21.0731 162.537 21.0846 162.456 21.0962C162.364 21.1077 162.284 21.1077 162.215 21.1077C162.134 21.1077 162.077 21.0962 162.031 21.0846C161.985 21.0731 161.962 21.0501 161.962 21.0271C161.962 20.9696 162.077 20.82 162.307 20.5668C162.445 20.4057 162.56 20.2792 162.652 20.1871C163.101 19.6578 163.412 19.2781 163.561 19.0479C163.722 18.8063 163.791 18.6337 163.791 18.5186C163.791 18.4841 163.791 18.4611 163.78 18.4381C163.768 18.4266 163.757 18.4151 163.734 18.4151C163.63 18.4151 163.492 18.4611 163.319 18.5531C163.158 18.6452 162.94 18.7948 162.664 19.0019C162.583 19.0709 162.479 19.1515 162.364 19.2666C162.215 19.4046 162.123 19.4622 162.077 19.4622C162.042 19.4622 162.019 19.4507 161.996 19.4277C161.973 19.4046 161.962 19.3816 161.962 19.3471C161.962 19.3126 162.008 19.2435 162.088 19.1515C162.169 19.0709 162.318 18.9329 162.537 18.7488C162.848 18.4841 163.147 18.277 163.435 18.1159C163.722 17.9548 163.941 17.8742 164.079 17.8742C164.194 17.8742 164.286 17.9088 164.344 17.9778C164.413 18.0468 164.436 18.1504 164.436 18.2655C164.436 18.3575 164.424 18.4611 164.39 18.5762C164.355 18.6912 164.309 18.8178 164.24 18.9674L165.218 18.1159L165.264 18.1619ZM167.761 20.1871L169.153 18.7027C169.211 18.6452 169.245 18.5877 169.28 18.5301C169.315 18.4726 169.326 18.4266 169.326 18.369C169.326 18.3345 169.315 18.3 169.28 18.277C169.257 18.254 169.211 18.2425 169.165 18.2425C169.027 18.2425 168.843 18.3 168.624 18.4151C168.405 18.5301 168.175 18.6912 167.934 18.8868C167.554 19.209 167.232 19.5427 166.979 19.8879C166.725 20.2331 166.599 20.4863 166.599 20.6474C166.599 20.7049 166.61 20.7509 166.656 20.7855C166.691 20.82 166.737 20.843 166.783 20.843C166.898 20.843 167.036 20.7855 167.209 20.6704C167.381 20.5553 167.565 20.3942 167.75 20.1986L167.761 20.1871ZM167.807 20.4403C167.565 20.6819 167.347 20.8545 167.14 20.9696C166.933 21.0846 166.749 21.1537 166.587 21.1537C166.415 21.1537 166.288 21.0962 166.196 20.9696C166.104 20.843 166.058 20.6704 166.058 20.4403C166.058 20.1641 166.127 19.9109 166.254 19.6693C166.38 19.4277 166.587 19.186 166.852 18.9444C167.197 18.6337 167.577 18.392 167.968 18.2079C168.371 18.0238 168.716 17.9318 169.027 17.9318C169.199 17.9318 169.326 17.9663 169.407 18.0238C169.487 18.0929 169.533 18.1964 169.545 18.346C169.602 18.277 169.671 18.2194 169.74 18.1504C169.809 18.0929 169.901 18.0238 169.993 17.9778C170.028 17.9778 170.074 17.9778 170.132 17.9663C170.189 17.9663 170.235 17.9548 170.258 17.9548C170.396 17.9548 170.5 17.9663 170.557 17.9893C170.615 18.0123 170.649 18.0468 170.649 18.1044C170.649 18.1504 170.557 18.254 170.373 18.4266C170.27 18.5186 170.189 18.5877 170.132 18.6337C169.591 19.14 169.165 19.5888 168.866 19.9455C168.555 20.3022 168.405 20.5553 168.405 20.6819C168.405 20.7394 168.417 20.774 168.44 20.7855C168.463 20.8085 168.509 20.82 168.567 20.82C168.739 20.82 169.004 20.7394 169.349 20.5668C169.694 20.3942 170.062 20.1641 170.454 19.8649C170.615 19.7499 170.787 19.6003 170.972 19.4392C171.156 19.2781 171.271 19.1975 171.305 19.1975C171.34 19.1975 171.363 19.209 171.374 19.232C171.397 19.2551 171.397 19.2781 171.397 19.3126C171.397 19.3816 171.167 19.6003 170.718 19.9685L170.684 19.9915C170.235 20.3482 169.809 20.6359 169.395 20.8315C168.981 21.0386 168.647 21.1422 168.394 21.1422C168.21 21.1422 168.06 21.0846 167.945 20.9926C167.83 20.889 167.784 20.7509 167.784 20.5783C167.784 20.5438 167.784 20.5093 167.784 20.4978C167.784 20.4748 167.796 20.4633 167.796 20.4403H167.807ZM172.398 18.5992C172.145 18.7833 171.881 19.0019 171.581 19.2551C171.294 19.4967 171.121 19.6233 171.075 19.6233C171.052 19.6233 171.041 19.6118 171.018 19.6003C171.006 19.5772 170.995 19.5542 170.995 19.5197C170.995 19.4277 171.489 19.0019 172.467 18.254L172.939 17.8857L173.469 17.2989H172.41L172.605 17.0918H173.687L174.815 15.6879C174.861 15.6304 174.907 15.5959 174.953 15.5729C174.999 15.5498 175.068 15.5383 175.137 15.5383C175.275 15.5383 175.379 15.5614 175.459 15.5959C175.54 15.6304 175.586 15.6764 175.586 15.734C175.586 15.7685 175.586 15.7915 175.574 15.8145C175.563 15.8375 175.551 15.8605 175.528 15.8951L174.493 17.1033H175.724L175.528 17.3104H174.343L172.928 18.9329C172.594 19.3126 172.352 19.6348 172.191 19.8994C172.03 20.1641 171.95 20.3827 171.95 20.5553C171.95 20.6474 171.961 20.7164 172.007 20.7625C172.042 20.8085 172.099 20.8315 172.168 20.8315C172.364 20.8315 172.64 20.7509 172.974 20.5783C173.307 20.4057 173.676 20.1641 174.09 19.8534C174.239 19.7383 174.401 19.6118 174.573 19.4507C174.746 19.2896 174.849 19.2205 174.895 19.2205C174.93 19.2205 174.953 19.232 174.964 19.2551C174.987 19.2781 174.987 19.3011 174.987 19.3356C174.987 19.3816 174.941 19.4507 174.861 19.5427C174.78 19.6233 174.573 19.8074 174.239 20.0605C173.791 20.4172 173.376 20.6934 172.985 20.889C172.594 21.0846 172.272 21.1767 171.996 21.1767C171.812 21.1767 171.662 21.1307 171.558 21.0271C171.455 20.9235 171.397 20.7855 171.397 20.6129C171.397 20.3482 171.478 20.0605 171.627 19.7383C171.789 19.4277 172.042 19.0594 172.387 18.6337L172.398 18.5992Z" fill="#FFCC00"/>
<path d="M175.195 20.0145C175.16 20.0951 175.125 20.1641 175.114 20.2446C175.091 20.3137 175.091 20.3827 175.091 20.4403C175.091 20.5668 175.137 20.6704 175.218 20.7394C175.298 20.8085 175.413 20.843 175.563 20.843C175.816 20.843 176.127 20.7509 176.495 20.5668C176.863 20.3827 177.254 20.1181 177.68 19.7729C177.784 19.6808 177.922 19.5657 178.071 19.4162C178.232 19.2666 178.324 19.1975 178.359 19.1975C178.393 19.1975 178.416 19.209 178.428 19.2205C178.439 19.2435 178.451 19.2666 178.462 19.3011C178.462 19.3471 178.405 19.4277 178.301 19.5312C178.198 19.6463 178.002 19.8074 177.738 20.0375C177.335 20.3827 176.932 20.6474 176.529 20.843C176.127 21.0386 175.77 21.1307 175.471 21.1307C175.183 21.1307 174.953 21.0386 174.78 20.866C174.608 20.6934 174.516 20.4518 174.516 20.1411C174.516 19.8649 174.608 19.5888 174.78 19.3241C174.953 19.0479 175.206 18.7948 175.54 18.5416C175.827 18.3345 176.104 18.1734 176.357 18.0698C176.61 17.9663 176.84 17.9088 177.059 17.9088C177.254 17.9088 177.392 17.9433 177.473 18.0008C177.553 18.0698 177.599 18.1734 177.599 18.323C177.599 18.6337 177.369 18.9559 176.909 19.2896C176.449 19.6233 175.885 19.8649 175.218 19.9915L175.195 20.0145ZM175.367 19.6578C175.908 19.5427 176.368 19.3586 176.736 19.117C177.105 18.8638 177.289 18.6337 177.289 18.4151C177.289 18.3345 177.277 18.2885 177.243 18.254C177.22 18.2194 177.162 18.2079 177.093 18.2079C176.886 18.2079 176.644 18.3345 176.345 18.5762C176.046 18.8293 175.712 19.186 175.344 19.6693L175.367 19.6578ZM183.353 20.889C184.066 20.889 184.837 20.5208 185.677 19.7844C186.506 19.0479 187.541 17.8282 188.75 16.1022C189.452 15.1011 190.027 14.3416 190.487 13.8123C190.947 13.283 191.258 13.0299 191.419 13.0299C191.454 13.0299 191.477 13.0414 191.488 13.0529C191.5 13.0644 191.511 13.0874 191.511 13.1219C191.511 13.1334 191.362 13.3405 191.062 13.7548C190.763 14.1575 190.464 14.5948 190.176 15.0781C190.096 15.2162 189.969 15.4233 189.808 15.6879C188.588 17.7246 187.564 19.1055 186.713 19.8419C186.195 20.2907 185.666 20.6359 185.113 20.866C184.573 21.0962 184.032 21.2112 183.491 21.2112C182.904 21.2112 182.444 21.0846 182.099 20.82C181.753 20.5553 181.581 20.2101 181.581 19.7844C181.581 19.5427 181.65 19.3356 181.788 19.1745C181.926 19.0134 182.11 18.9444 182.329 18.9444C182.49 18.9444 182.616 18.9904 182.72 19.094C182.824 19.186 182.87 19.3241 182.87 19.4737C182.87 19.6233 182.824 19.7383 182.72 19.8304C182.616 19.9109 182.49 19.957 182.329 19.957C182.306 19.957 182.248 19.9455 182.191 19.934C182.122 19.9225 182.076 19.9109 182.041 19.9109C182.007 19.9109 181.995 19.9225 181.984 19.9455C181.972 19.957 181.972 19.9915 181.961 20.026C181.961 20.2562 182.099 20.4518 182.363 20.6244C182.639 20.797 182.962 20.889 183.353 20.889ZM188.784 13.6742C188.784 13.7893 188.727 13.9619 188.612 14.2035C188.496 14.4452 188.358 14.6983 188.186 14.9285C187.806 15.4463 187.392 15.8375 186.92 16.1137C186.46 16.3899 185.976 16.5164 185.47 16.5164C184.998 16.5164 184.619 16.3783 184.331 16.0907C184.043 15.8145 183.905 15.4348 183.905 14.963C183.905 14.1 184.319 13.3981 185.148 12.8572C185.976 12.3164 187.07 12.0403 188.416 12.0403C189.037 12.0403 189.969 12.1323 191.224 12.3279L191.304 12.3394C191.454 12.3625 191.649 12.397 191.914 12.4315C192.95 12.5926 193.605 12.6731 193.87 12.6731C194.169 12.6731 194.48 12.6271 194.802 12.5351C194.871 12.5235 194.906 12.512 194.929 12.512C194.963 12.512 194.998 12.5235 195.021 12.5466C195.044 12.5696 195.055 12.5926 195.055 12.6156C195.055 12.7307 194.906 12.8457 194.618 12.9608C194.33 13.0759 193.985 13.1334 193.605 13.1334C193.433 13.1334 193.26 13.1219 193.088 13.0989C192.904 13.0759 192.731 13.0529 192.558 13.0068C192.466 12.9838 192.328 12.9493 192.144 12.9033C190.556 12.512 189.382 12.3164 188.612 12.3164C188.013 12.3164 187.472 12.3855 186.989 12.5351C186.506 12.6731 186.08 12.8918 185.7 13.1794C185.228 13.5477 184.872 13.8814 184.642 14.2035C184.412 14.5257 184.285 14.8364 184.285 15.1241C184.285 15.4348 184.4 15.6879 184.63 15.8835C184.86 16.0792 185.159 16.1827 185.516 16.1827C185.988 16.1827 186.437 16.0331 186.885 15.734C187.323 15.4348 187.737 14.9975 188.117 14.4222C188.22 14.2726 188.312 14.077 188.416 13.8583C188.519 13.6282 188.589 13.5246 188.646 13.5246C188.681 13.5246 188.715 13.5362 188.727 13.5592C188.75 13.5822 188.761 13.6167 188.761 13.6512L188.784 13.6742ZM189.843 21.1077C189.808 21.1192 189.751 21.1307 189.705 21.1307C189.647 21.1422 189.555 21.1422 189.417 21.1422C189.279 21.1422 189.175 21.1307 189.129 21.1192C189.083 21.1077 189.06 21.0846 189.06 21.0501C189.06 21.0041 189.313 20.7279 189.808 20.1871C190.303 19.6578 190.775 19.117 191.224 18.5762C190.959 18.7718 190.683 18.9904 190.395 19.2435C190.096 19.4967 189.923 19.6233 189.877 19.6233C189.854 19.6233 189.831 19.6118 189.82 19.6003C189.808 19.5772 189.797 19.5542 189.797 19.5197C189.797 19.4392 189.981 19.2551 190.349 18.9559C190.717 18.6567 191.212 18.2885 191.833 17.8512L195.251 13.8238C195.308 13.7663 195.355 13.7203 195.389 13.7088C195.424 13.6857 195.481 13.6742 195.55 13.6742C195.665 13.6742 195.769 13.6857 195.838 13.7203C195.918 13.7548 195.953 13.7893 195.953 13.8353C195.953 13.8814 195.93 13.9389 195.872 13.9964C195.861 14.0079 195.849 14.0194 195.838 14.0309L191.764 18.8293C192.179 18.5186 192.524 18.3 192.8 18.1504C193.088 18.0123 193.318 17.9318 193.502 17.9318C193.64 17.9318 193.744 17.9663 193.813 18.0468C193.882 18.1274 193.928 18.2309 193.928 18.3575C193.928 18.5071 193.882 18.6567 193.778 18.8063C193.675 18.9559 193.467 19.186 193.157 19.4967C193.065 19.5772 192.95 19.6923 192.788 19.8304C192.294 20.2907 192.052 20.5668 192.052 20.6589C192.052 20.7049 192.075 20.7394 192.11 20.7625C192.144 20.7855 192.19 20.8085 192.259 20.8085C192.432 20.8085 192.696 20.7279 193.03 20.5553C193.375 20.3827 193.732 20.1526 194.123 19.8534C194.284 19.7383 194.469 19.5888 194.653 19.4277C194.837 19.2666 194.952 19.186 194.986 19.186C195.009 19.186 195.044 19.1975 195.055 19.2205C195.078 19.2435 195.078 19.2666 195.078 19.3011C195.078 19.3701 194.848 19.6003 194.399 19.957L194.376 19.98C193.939 20.3252 193.513 20.6014 193.099 20.82C192.685 21.0271 192.374 21.1307 192.156 21.1307C191.972 21.1307 191.822 21.0846 191.718 20.9811C191.603 20.8775 191.546 20.7509 191.546 20.5898C191.546 20.3942 191.615 20.1871 191.764 19.957C191.914 19.7268 192.121 19.4967 192.397 19.2551C192.489 19.1745 192.604 19.0709 192.765 18.9444C193.134 18.6337 193.329 18.4496 193.329 18.392C193.329 18.369 193.318 18.3345 193.283 18.323C193.26 18.3 193.226 18.2885 193.18 18.2885C192.927 18.2885 192.466 18.5531 191.799 19.0825C191.132 19.6118 190.476 20.2792 189.831 21.0846L189.843 21.1077ZM195.285 20.026C195.251 20.1066 195.216 20.1756 195.205 20.2562C195.182 20.3252 195.182 20.3942 195.182 20.4518C195.182 20.5783 195.228 20.6819 195.308 20.7509C195.389 20.82 195.504 20.8545 195.654 20.8545C195.907 20.8545 196.218 20.7625 196.586 20.5783C196.954 20.3942 197.345 20.1296 197.771 19.7844C197.875 19.6923 198.013 19.5772 198.162 19.4277C198.323 19.2781 198.415 19.209 198.45 19.209C198.484 19.209 198.507 19.2205 198.519 19.232C198.53 19.2551 198.542 19.2781 198.553 19.3126C198.553 19.3586 198.496 19.4392 198.392 19.5427C198.289 19.6578 198.093 19.8189 197.828 20.049C197.426 20.3942 197.023 20.6589 196.62 20.8545C196.218 21.0501 195.861 21.1422 195.562 21.1422C195.274 21.1422 195.044 21.0501 194.871 20.8775C194.699 20.7049 194.607 20.4633 194.607 20.1526C194.607 19.8764 194.699 19.6003 194.871 19.3356C195.044 19.0594 195.297 18.8063 195.631 18.5531C195.918 18.346 196.195 18.1849 196.448 18.0814C196.701 17.9778 196.931 17.9203 197.15 17.9203C197.345 17.9203 197.483 17.9548 197.564 18.0123C197.644 18.0814 197.69 18.1849 197.69 18.3345C197.69 18.6452 197.46 18.9674 197 19.3011C196.54 19.6348 195.976 19.8764 195.308 20.003L195.285 20.026ZM195.458 19.6693C195.999 19.5542 196.459 19.3701 196.827 19.1285C197.196 18.8753 197.38 18.6452 197.38 18.4266C197.38 18.346 197.368 18.3 197.334 18.2655C197.311 18.2309 197.253 18.2194 197.184 18.2194C196.977 18.2194 196.735 18.346 196.436 18.5877C196.137 18.8408 195.803 19.1975 195.435 19.6808L195.458 19.6693Z" fill="#FFCC00"/>
<path d="M66.8087 40.4589C68.7025 40.4589 70.2377 38.9237 70.2377 37.0299C70.2377 35.1361 68.7025 33.6008 66.8087 33.6008C64.9149 33.6008 63.3796 35.1361 63.3796 37.0299C63.3796 38.9237 64.9149 40.4589 66.8087 40.4589Z" fill="#FF6600"/>
<path fill-rule="evenodd" clip-rule="evenodd" d="M68.4198 61.0101C49.2379 67.9027 54.5425 85.1285 43.0587 87.8901C38.5135 89.6046 33.7151 88.6726 28.5601 83.8282L32.7486 82.1942C36.1431 85.3011 39.5721 87.2227 43.0587 87.1307C46.0159 84.5416 47.9951 77.7986 50.1584 73.9323C53.2538 68.4205 57.3387 64.0479 68.4313 61.0101H68.4198Z" fill="#FF6600"/>
<path fill-rule="evenodd" clip-rule="evenodd" d="M206.115 74.6048C218.097 81.5254 224.7 71.2235 231.167 75.9651C234.048 77.5693 235.669 80.465 235.418 85.261L232.734 83.8063C232.857 80.6847 232.349 78.0649 230.773 76.298C228.134 75.9003 223.772 77.8308 220.819 78.4047C216.605 79.2168 212.548 79.0166 206.11 74.5989L206.115 74.6048Z" fill="#0EC016"/>
<path fill-rule="evenodd" clip-rule="evenodd" d="M83.5628 60.3657C88.0275 59.4452 92.331 54.0485 91.2724 48.7093L89.1436 49.6644C89.4773 53.9219 87.7283 57.8112 83.5628 60.3772C81.1579 60.7915 79.2132 60.5153 77.7403 59.8479C79.3053 55.3487 78.7414 51.2753 75.7727 52.5526L75.0707 53.243C75.2664 52.9898 75.4965 52.7597 75.7727 52.5526L73.3677 53.312C71.9409 54.9 71.8949 56.8907 72.919 58.4786C73.5979 59.5372 74.9212 60.4693 76.5666 60.9871L75.462 60.6649C73.8855 63.9098 71.0203 66.3953 67.0735 68.2249C71.1239 67.0857 74.3343 64.7153 77.0039 61.1137H76.9924C78.9831 61.6315 81.365 61.5509 83.5743 60.3887L83.5628 60.3657ZM77.7403 59.8364C77.0959 59.5487 76.5436 59.1805 76.0949 58.7663L77.7403 59.8364ZM76.0834 58.7663C74.2768 57.1323 73.897 54.7734 75.0707 53.2315C76.3135 53.3581 76.4401 55.5904 76.0834 58.7663Z" fill="#CC9933"/>
</svg>
