<svg width="27" height="26" viewBox="0 0 27 26" fill="none" xmlns="http://www.w3.org/2000/svg">
<path fill-rule="evenodd" clip-rule="evenodd" d="M12.3171 12.1369H13.8411V18.4997H14.9069V12.1369H15.212C16.8795 12.1369 17.2025 10.3653 16.4453 9.58296C15.4991 8.60564 13.8411 9.07934 13.8411 10.8163V11.0699H12.3171C12.3171 10.4825 12.3039 10.0567 11.9702 9.63918C11.1209 8.57454 9.21887 9.09848 9.21887 10.6129C9.21887 11.5149 9.91747 12.1369 10.8434 12.1369H11.2501V18.4997H12.3159V12.1369H12.3171ZM10.2859 10.6643V10.5627C10.2859 9.97173 11.2513 9.97173 11.2513 10.5627V11.0699H10.6926C10.4474 11.0699 10.2859 10.9096 10.2859 10.6632V10.6643ZM15.3639 11.0711H14.9069V10.5639C14.9069 9.99087 15.7706 9.99087 15.7706 10.5639V10.6655C15.7706 10.9108 15.6103 11.0723 15.3639 11.0723V11.0711Z" fill="#FFCC00"/>
<path fill-rule="evenodd" clip-rule="evenodd" d="M17.1868 19.605C17.1653 20.5356 17.2024 21.5034 17.194 22.4987C17.188 23.2714 16.5457 23.8743 16.0241 23.9186C16.0241 24.6483 16.0325 24.9318 15.6999 25.3708C15.4894 25.6495 15.0073 26 14.5515 26H11.6064C11.1507 26 10.6686 25.6495 10.458 25.3708C10.1255 24.9306 10.1339 24.6483 10.1339 23.9186C9.58838 23.8731 8.96993 23.2212 8.96395 22.4484C8.95557 21.4101 8.99505 20.4782 8.98189 19.605H9.98194V22.2941C9.98194 22.7271 10.2092 22.9544 10.6423 22.9544H15.4667C15.92 22.9544 16.1772 22.7989 16.1772 22.3455V19.6062H17.188L17.1868 19.605ZM11.1495 24.1722V23.9688H15.0085C15.0085 24.561 14.9762 24.9844 14.1963 24.9844H11.9617C11.3851 24.9844 11.1495 24.7488 11.1495 24.1722Z" fill="#9B9898"/>
<path fill-rule="evenodd" clip-rule="evenodd" d="M12.713 0H13.5049C14.3889 0.0406718 15.2658 0.220106 16.0912 0.543088C16.7515 0.801474 16.9166 0.934255 17.4477 1.21896C18.3795 1.71779 19.4334 2.81951 20.0447 3.69994C20.3138 4.08752 20.5471 4.56003 20.766 5.00981C20.8689 5.22154 20.9718 5.53974 21.0459 5.74549C21.8378 7.93699 21.4216 10.6991 20.3198 12.5736C19.7145 13.6047 19.2719 13.9229 18.5997 14.8141C18.3975 15.0821 18.2707 15.2998 18.1044 15.5881C17.5817 16.4924 17.3484 17.4685 17.2503 18.4997H16.1785C16.2108 17.4925 16.6809 15.9123 17.1714 15.1108C17.2922 14.9134 17.3819 14.7495 17.4979 14.5737C18.169 13.5629 19.2372 12.6322 19.6894 11.5352C20.3557 9.92033 20.3928 9.62606 20.3928 7.87119C20.3928 6.12111 19.3006 4.16647 18.0709 2.9822L17.0398 2.18551L15.8734 1.57424C14.6294 1.0156 12.6281 0.866071 11.2967 1.26322C10.7703 1.41992 10.4653 1.52041 9.99996 1.7441L9.39466 2.05393C8.8133 2.40442 8.38744 2.73697 7.91254 3.21307C7.58716 3.53845 7.33715 3.81597 7.07637 4.20594C6.16006 5.57563 5.7665 6.7276 5.7665 8.58415C5.7665 9.58061 6.10264 10.784 6.44357 11.4623C7.2582 13.0903 7.46873 12.9049 8.32045 14.0533C9.2571 15.3153 9.97125 16.886 9.98082 18.5009H8.92694C8.83363 17.4793 8.59678 16.5116 8.03575 15.5055C7.52974 14.5976 6.9723 14.1538 6.31078 13.2698C5.37055 12.0137 4.69946 10.2086 4.69946 8.32935C4.69946 7.16661 5.04637 5.74549 5.44352 4.96077C5.50811 4.83277 5.56194 4.73707 5.61219 4.62223C6.13613 3.43198 7.14695 2.36973 8.17331 1.59816C9.47601 0.619647 11.0825 0.0777549 12.7106 0.00239246L12.713 0Z" fill="#9B9898"/>
<path fill-rule="evenodd" clip-rule="evenodd" d="M12.5204 2.94513C12.5204 3.1138 12.518 3.28367 12.7525 3.42362C12.902 3.51215 13.0132 3.50258 13.2309 3.50377C14.097 3.50975 15.1987 3.9081 15.8579 4.38061C16.0672 4.53014 16.2909 4.70837 16.4679 4.88661C16.8113 5.23232 17.2371 5.79455 17.4453 6.24553C17.6283 6.64148 17.6103 6.85441 18.1056 6.85441C18.431 6.85441 18.5625 6.60679 18.5625 6.29577C18.5625 5.82924 17.5302 4.37941 17.0182 3.98107C16.1844 3.33391 15.7024 2.9224 14.4607 2.62813C13.9319 2.50253 12.5204 2.17596 12.5204 2.94394V2.94513Z" fill="#00DE00"/>
<path fill-rule="evenodd" clip-rule="evenodd" d="M0.0783691 8.32824C0.0783691 9.06751 0.962383 8.88688 1.90621 8.88688C2.55456 8.88688 2.75434 7.82103 1.70285 7.82103C1.1155 7.82103 0.0783691 7.67749 0.0783691 8.32943V8.32824Z" fill="#00DE00"/>
<path fill-rule="evenodd" clip-rule="evenodd" d="M24.2506 8.88686C25.1956 8.88686 26.0784 9.06749 26.0784 8.32822C26.0784 7.67747 25.0401 7.81983 24.4539 7.81983C23.3893 7.81983 23.6201 8.88567 24.2506 8.88567V8.88686Z" fill="#FF9900"/>
<path fill-rule="evenodd" clip-rule="evenodd" d="M3.8357 12.3906C3.38472 12.3906 3.11079 12.844 2.65502 13.2914C1.9337 14.0008 2.63349 14.3668 2.86436 14.356C3.20529 14.3405 3.71369 13.7041 3.95054 13.4696C4.11323 13.3081 4.30462 13.1909 4.31539 12.8906C4.32496 12.649 4.13237 12.3906 3.8357 12.3906Z" fill="#00DE00"/>
<path fill-rule="evenodd" clip-rule="evenodd" d="M23.3367 2.38647C22.8905 2.38647 22.6082 2.83985 22.1548 3.28724C21.9969 3.44275 21.8139 3.63653 21.8438 3.88894C21.8749 4.15091 22.1154 4.36384 22.3654 4.35188C22.6477 4.33872 23.8152 3.25972 23.8236 2.89368C23.8296 2.64127 23.6286 2.38647 23.3367 2.38647Z" fill="#9B9898"/>
<path fill-rule="evenodd" clip-rule="evenodd" d="M2.97313 2.38647C2.39655 2.38647 2.02572 2.792 2.68125 3.44035C2.91212 3.66883 3.41573 4.30164 3.75307 4.34829C4.0605 4.39136 4.67776 3.96191 4.0282 3.31236C3.85714 3.1413 3.18367 2.38647 2.97313 2.38647Z" fill="#00DE00"/>
<path fill-rule="evenodd" clip-rule="evenodd" d="M22.4741 12.3906C21.8784 12.3906 21.5458 12.8153 22.1822 13.4445C22.4131 13.673 22.9167 14.3058 23.2541 14.3524C23.5471 14.3931 24.1967 13.9708 23.528 13.3165C23.3522 13.1442 22.6882 12.3906 22.4741 12.3906Z" fill="#FF9900"/>
<path fill-rule="evenodd" clip-rule="evenodd" d="M18.4106 8.88665C19.0303 8.88665 19.1595 8.0804 18.6427 7.8878C18.2145 7.7287 17.8281 8.09116 17.9585 8.5218C18.0111 8.69526 18.2061 8.88665 18.4106 8.88665Z" fill="#9B9898"/>
</svg>
