<svg width="21" height="28" viewBox="0 0 21 28" fill="none" xmlns="http://www.w3.org/2000/svg">
<path fill-rule="evenodd" clip-rule="evenodd" d="M12.5717 11.9749C12.5717 12.9853 13.1429 13.5851 13.1429 13.9882C13.1429 14.3815 12.4539 14.7789 12.1473 14.1026C11.4454 12.5533 11.3155 11.4228 12.1554 9.80272H13.2979C13.2511 10.0068 13.1696 10.0652 13.0719 10.261C12.7831 10.8419 12.5701 11.2673 12.5701 11.9749H12.5717ZM13.0276 0.00246837H13.5762C14.2539 0.0419623 14.9276 0.224622 15.4988 0.514244C15.8103 0.672219 15.9692 0.780005 16.225 0.992284C16.5566 1.2671 16.78 1.40368 16.78 1.80356C16.78 2.09153 14.7316 6.05573 14.6501 6.41282C15.0164 6.59219 15.2519 6.63168 15.519 6.95669C16.183 7.76384 16.083 9.01119 14.9099 9.64392C15.0551 9.86443 15.1922 10.0306 15.3463 10.2585L16.6243 12.081C16.9237 12.485 17.1867 12.8972 17.4925 13.3144L19.2069 15.7515C19.3651 15.9671 19.4917 16.1522 19.645 16.3645C21.0803 18.3474 21.4644 21.0889 20.3647 23.3129C19.62 24.8178 18.7237 25.7319 17.248 26.4914C16.3419 26.9579 15.523 27.0928 14.6485 27.1274H12.8122H12.7807C12.4483 27.1274 12.3135 26.8682 12.3135 26.5448C12.3135 25.374 15.0462 26.9464 17.6199 25.0169C18.2686 24.5307 18.8721 23.9168 19.24 23.173C20.1719 21.2905 20.2316 19.2014 19.0456 17.4012L16.6163 13.9455C15.916 12.9729 15.0938 11.7157 14.4048 10.7975C14.3217 10.6864 14.2725 10.6362 14.2346 10.4939H14.1305C13.9974 11.0764 13.6625 10.9818 13.6625 12.0835C13.6625 12.8668 14.7098 13.7727 13.8642 14.9377C13.3487 15.6486 12.278 15.7638 11.6237 15.169C11.2461 14.8258 11.0299 14.2951 10.8274 13.7562C10.3853 12.578 10.3812 10.9234 10.9613 9.80518H7.2734C6.99182 10.2339 6.68281 10.6535 6.38994 11.0764L2.04769 17.2424C0.564768 19.5166 0.758402 22.2375 2.48175 24.227C2.73993 24.5249 3.05458 24.7808 3.36924 25.0169C5.94297 26.9464 8.67563 25.3724 8.67563 26.5448C8.67563 26.869 8.5409 27.1274 8.20768 27.1274H8.17622H6.33992C5.46533 27.0936 4.64562 26.9579 3.74037 26.4914C3.02231 26.1219 2.45755 25.7393 1.90891 25.1798C1.36109 24.6212 0.985116 24.0444 0.622858 23.3121C0.325145 22.7106 0 21.6698 0 20.7689C0 17.6307 1.07225 16.8474 2.66974 14.486L3.53948 13.2543C3.83477 12.847 4.08004 12.462 4.38502 12.0506L6.0769 9.64392C5.42661 9.29259 4.98125 8.71499 5.07161 7.93334C5.18376 6.95751 5.66704 6.74523 6.28505 6.412C6.21163 6.09193 5.27089 4.23819 5.10792 3.90414L4.51975 2.64938C4.2761 2.14584 3.94772 1.68919 3.94772 1.21937C3.94772 0.845828 4.9756 0.392471 5.37255 0.287976C6.04866 0.110254 6.76107 0.158798 7.35489 0.393293C8.00921 0.651649 8.29079 0.910828 8.74018 1.36419C9.4655 2.09565 9.40096 2.4371 10.2852 2.4371C10.6644 2.4371 11.0122 1.9928 11.0122 1.58963C11.0122 0.984057 10.6217 0.854056 11.5826 0.370255C12.0223 0.148925 12.5177 0.031266 13.026 0L13.0276 0.00246837ZM6.13015 8.05511C6.13015 7.74574 6.39801 7.47258 6.70137 7.47258H14.2854C15.0519 7.47258 15.0244 8.69113 14.2854 8.69113H6.70137C6.36654 8.69113 6.13015 8.39904 6.13015 8.05511ZM5.19505 1.48596C5.50325 1.41273 5.74288 1.27368 6.13015 1.27368C8.34646 1.27368 8.198 3.55198 10.1303 3.55198C10.8032 3.55198 11.2389 3.26977 11.5729 2.90445C11.9093 2.53584 12.1046 2.02653 12.1046 1.32716C12.8081 0.982411 13.907 1.0038 14.6291 1.29507C14.8122 1.36912 14.9752 1.44976 15.1212 1.53533C15.3141 1.64805 15.419 1.74349 15.5852 1.85704C15.5085 2.19273 15.2382 2.67078 15.0833 2.98755L14.0272 5.19509C13.9054 5.44358 13.5617 6.12485 13.5076 6.36099H7.48155C7.27501 5.96358 7.10961 5.54478 6.91033 5.14244L5.44839 2.1302C5.36287 1.91545 5.23055 1.76077 5.19586 1.48678L5.19505 1.48596Z" fill="#07C207"/>
</svg>
