<svg width="22" height="23" viewBox="0 0 22 23" fill="none" xmlns="http://www.w3.org/2000/svg">
<g clip-path="url(#clip0_8_229)">
<path fill-rule="evenodd" clip-rule="evenodd" d="M13.0918 4.04073H6.76067C6.53796 4.04073 6.23572 3.91212 6.23572 3.70313V1.82224C6.23572 1.59717 6.37889 1.43641 6.6175 1.43641H13.235C13.4577 1.43641 13.6168 1.5811 13.6168 1.82224V3.60667C13.6168 3.89604 13.3941 4.04073 13.0918 4.04073ZM4.80405 2.01515C3.26103 2.01515 2.16341 1.87046 1.03398 3.01186C0.699928 3.34946 0.556761 3.52629 0.334056 3.9925C0.174982 4.33009 0 4.87668 0 5.39111V19.6345C0 21.5797 1.67028 22.9943 3.61099 22.9943H8.55821C8.78091 22.9943 8.95589 22.914 9.08315 22.8014C9.54447 22.3835 9.33767 21.66 8.65365 21.5636L4.61316 21.5475C3.61099 21.5475 2.87925 21.644 2.27477 21.2099C1.76573 20.8241 1.36804 20.2775 1.36804 19.3772V5.61617C1.36804 5.23035 1.44758 4.92491 1.55893 4.65161C1.67028 4.41047 1.82936 4.13718 2.02025 3.96035C2.7679 3.28515 3.77007 3.39768 4.78814 3.39768C4.78814 4.57123 5.53579 5.42326 6.60159 5.42326H13.2668C13.6168 5.42326 14.0463 5.24643 14.2849 5.05351C14.5712 4.82845 14.7621 4.61946 14.9053 4.23364C14.9689 4.0568 15.0484 3.6549 15.0484 3.41376C16.2256 3.41376 17.8004 3.253 18.3095 4.74807C18.4526 5.16605 18.4367 5.34288 18.4367 5.87339C18.4367 6.32352 18.389 9.29758 18.4685 9.60303C18.6753 10.3747 19.8684 10.3908 19.8684 9.29758V5.69655C19.8684 5.14997 19.773 4.61946 19.6139 4.21756C19.4707 3.84781 19.1844 3.38161 18.9299 3.12439C17.7527 1.88654 16.6074 2.03122 15.0644 2.03122C15.0325 0.857674 14.3008 0.00564575 13.06 0.00564575H6.8243C5.61533 0.00564575 4.81996 0.809446 4.81996 2.03122L4.80405 2.01515Z" fill="#FF9900"/>
<path fill-rule="evenodd" clip-rule="evenodd" d="M12.3283 21.5957L12.6147 19.8595C12.6624 19.5862 12.726 19.5862 12.8851 19.4255C13.2828 19.0396 16.7665 15.4547 16.9892 15.2939L18.5163 16.8212C18.4368 17.0623 16.0029 19.4415 15.828 19.6184C15.3666 20.0846 14.9371 20.5186 14.4758 20.9848C14.1418 21.3385 14.1418 21.2421 13.4896 21.3707L12.3283 21.5957ZM17.9914 14.2811C18.1504 14.04 18.8822 13.2201 19.3753 13.2201H19.6139C20.2343 13.2201 21.1729 14.1686 20.1548 15.1975C20.0434 15.31 19.9639 15.3743 19.8685 15.4868L19.5662 15.8084C19.3594 15.7601 18.0868 14.3937 17.9914 14.2651V14.2811ZM10.9444 21.5475V21.7886C10.9444 22.4156 11.6602 23.0265 12.3124 22.9783C12.4397 22.9783 12.6942 22.914 12.8374 22.8818C14.9212 22.5281 14.6031 22.8014 15.9711 21.4189L21.157 16.1781C22.9386 14.3937 21.5546 11.8054 19.6457 11.8054C18.1027 11.8054 17.8641 12.3842 16.6392 13.622L12.1374 18.1715C11.183 19.1361 11.3421 18.9432 11.0716 20.5186C11.0239 20.8562 10.9285 21.1456 10.9285 21.5314L10.9444 21.5475Z" fill="#FF9900"/>
<path fill-rule="evenodd" clip-rule="evenodd" d="M5.56754 10.2461H12.6145C13.7917 10.2461 13.6962 8.79922 12.71 8.79922H5.56754C4.69263 8.79922 4.50174 9.6191 4.96306 10.0371C5.12213 10.1818 5.29712 10.2461 5.56754 10.2461Z" fill="#FF9900"/>
<path fill-rule="evenodd" clip-rule="evenodd" d="M5.32896 14.1525H8.79679C9.57625 14.1525 9.70351 12.7539 8.70134 12.7539H5.37669C4.5495 12.7539 4.51768 14.1525 5.32896 14.1525Z" fill="#FF9900"/>
</g>
<defs>
<clipPath id="clip0_8_229">
<rect width="22" height="23" fill="white"/>
</clipPath>
</defs>
</svg>
