<svg width="13" height="12" viewBox="0 0 13 12" fill="none" xmlns="http://www.w3.org/2000/svg">
<g clip-path="url(#clip0_8_169)">
<path d="M7.55929 8.46205C7.13003 8.85188 6.56721 9.08876 5.95604 9.08876C5.28927 9.08876 4.68346 8.80859 4.24524 8.35882C3.80521 7.90538 3.53278 7.28052 3.53278 6.59669C3.53278 5.93498 3.7864 5.33225 4.19684 4.88525L3.4324 4.07236C2.63478 4.59861 1.97791 5.34605 1.59344 6.31278C2.56847 8.92924 5.58682 9.77162 8.09074 9.02696L7.55929 8.46201V8.46205ZM5.07599 5.82069C4.90304 6.02896 4.79816 6.30084 4.79816 6.59669C4.79816 6.92569 4.92722 7.22613 5.13604 7.43996C5.34396 7.65471 5.63611 7.78743 5.95604 7.78743C6.22937 7.78743 6.48298 7.69067 6.68105 7.52754L5.07599 5.82069ZM1.86317 0.0689263L11.5401 10.3633C12.663 11.5624 11.524 12.684 10.4056 11.4905L9.29967 10.3136C5.83144 11.7623 1.2403 10.5772 0 6.5497L0.00985828 6.03914C0.469598 4.68068 1.29409 3.63003 2.31661 2.88444L0.726772 1.19328C0.438223 0.443992 1.19011 -0.219524 1.86313 0.0689263H1.86317ZM12.9776 6.56905C12.6487 7.45287 12.154 8.20401 11.5428 8.82054L10.4441 7.64827C10.8384 7.24923 11.1664 6.77825 11.4021 6.2382C10.6547 4.01801 8.41782 2.99781 6.23023 3.14896L4.88954 1.71676C8.19198 0.944458 12.0034 2.39597 13 6.064L12.9775 6.56905H12.9776Z" fill="#686868"/>
</g>
<defs>
<clipPath id="clip0_8_169">
<rect width="13" height="12" fill="white"/>
</clipPath>
</defs>
</svg>
