<svg width="28" height="27" viewBox="0 0 28 27" fill="none" xmlns="http://www.w3.org/2000/svg">
<g clip-path="url(#clip0_8_672)">
<path fill-rule="evenodd" clip-rule="evenodd" d="M11.5941 9.96687V12.6563H8.3127V18.9844H11.5941V25.418H4.48469C3.98493 25.418 3.63468 25.3686 3.24598 25.2413C2.08234 24.8603 1.64078 23.8079 1.64078 22.6759V4.32432C1.64078 3.54771 1.81189 2.82405 2.37027 2.28542C2.92864 1.74698 3.67931 1.58198 4.48469 1.58198H23.5159C24.1936 1.58198 24.7141 1.6738 25.2299 1.98576C25.6665 2.24972 26.0102 2.65766 26.1764 3.12966C26.3084 3.50448 26.3596 3.84201 26.3596 4.32412V22.6757C26.3596 23.3291 26.2644 23.8311 25.9409 24.3285C25.4054 25.1521 24.5161 25.4178 23.5159 25.4178H18.1566V18.9842H22.1487L23.1017 13.4696C23.1484 13.2006 23.2216 12.896 23.2424 12.6561H18.1563V11.0741H23.0783V4.74595H17.0079C16.2636 4.74595 15.3754 5.03033 14.8748 5.27308C13.627 5.87834 12.7861 6.66566 12.1586 7.87461C11.8894 8.39341 11.5936 9.22139 11.5936 9.96667L11.5941 9.96687ZM0.000205663 3.797V23.2032C0.000205663 25.1874 1.87997 27 3.93763 27H13.2344V17.4024H9.95327V14.2384H13.2344V10.5997C13.2344 8.00689 14.9754 6.32833 17.6642 6.32833H21.4377V9.49229H17.9924C17.3024 9.49229 16.5158 10.2507 16.5158 10.916V14.2382H21.2736C21.2536 14.4697 21.1862 14.7451 21.1407 15.0067C21.0895 15.302 21.0474 15.5457 21.0001 15.8202C20.9546 16.084 20.9168 16.3027 20.8672 16.5887C20.8205 16.8576 20.7473 17.1622 20.7265 17.4022H16.5156V26.9998H24.0624C26.12 26.9998 27.9998 25.1872 27.9998 23.203V3.7968C27.9998 1.81263 26.12 0 24.0624 0H3.93742C1.87976 0 0 1.81263 0 3.7968L0.000205663 3.797Z" fill="#6B6A6A"/>
</g>
<defs>
<clipPath id="clip0_8_672">
<rect width="28" height="27" fill="white"/>
</clipPath>
</defs>
</svg>
