<svg width="27" height="27" viewBox="0 0 27 27" fill="none" xmlns="http://www.w3.org/2000/svg">
<g clip-path="url(#clip0_8_182)">
<path fill-rule="evenodd" clip-rule="evenodd" d="M23.0977 25.8399H14.0801V14.6602H23.625V25.207C23.625 25.5474 23.4276 25.8399 23.0977 25.8399ZM5.8372 5.14676e-06H6.5693C7.4885 0.0468253 8.39883 0.267117 9.12325 0.632614C9.67743 0.912217 10.1597 1.19986 10.6129 1.62146C11.4014 2.35504 11.8991 2.90716 12.4432 3.85171C12.7005 4.29825 13.4074 5.63824 13.4473 6.11719H13.5527C13.5762 5.83538 13.8794 5.20945 13.9968 4.92651C14.2987 4.19923 15.0263 3.02537 15.5961 2.41248C15.7424 2.25506 15.8021 2.15305 15.9648 1.99025L16.8523 1.24295C17.7537 0.56268 19.0522 0.102132 20.351 0H21.4142C21.9267 0.0425946 22.4215 0.149663 22.8723 0.330777C24.4882 0.979933 25.1699 2.48597 24.5222 4.11398C23.5115 6.65406 20.5721 7.62329 20.3027 7.85743C21.6738 7.85743 23.0449 7.85743 24.416 7.85743C25.2294 7.85741 25.6945 7.78982 26.2106 8.1195C26.5572 8.34094 27 8.83552 27 9.38672V13.0254C27 13.5837 26.7314 13.9127 26.4343 14.2C25.964 14.6549 25.441 14.6602 24.7852 14.6602V25.1543C24.7852 26.1719 24.0623 27 23.1504 27H3.84961C2.93765 27 2.21484 26.1719 2.21484 25.1543V14.6602C1.55896 14.6602 1.03597 14.6549 0.565655 14.2C0.268625 13.9127 0 13.5837 0 13.0254V9.38672C0 8.85266 0.445813 8.32145 0.792437 8.12253C1.38048 7.78506 1.70567 7.85741 2.58397 7.85743C3.95506 7.85743 5.32618 7.85743 6.69727 7.85743C6.56094 7.73895 6.26974 7.6446 6.0292 7.52354C5.77759 7.39693 5.60272 7.29227 5.3788 7.17197C4.21027 6.54418 2.97531 5.37661 2.4626 4.07646C2.26316 3.57075 2.17569 3.0135 2.28919 2.39466C2.38511 1.87165 2.62677 1.44531 2.96796 1.06952C3.2316 0.779184 3.83336 0.445849 4.21197 0.309629C4.70963 0.130604 5.26592 0.0297637 5.8372 0V5.14676e-06ZM3.375 25.207V14.6602H12.9199V25.8399H3.90234C3.57242 25.8399 3.375 25.5474 3.375 25.207ZM25.207 13.5H14.0801V9.01759H25.3125C25.5791 9.01759 25.8398 9.20784 25.8398 9.4922V12.9727C25.8398 13.3026 25.5474 13.5 25.207 13.5ZM1.16015 12.9727V9.4922C1.16015 9.20784 1.42094 9.01759 1.68749 9.01759H12.9199V13.5H1.79296C1.45256 13.5 1.16015 13.3026 1.16015 12.9727ZM14.1856 7.85744C14.2786 7.6635 14.551 6.42138 15.011 5.4661C15.3616 4.73806 15.7552 4.00591 16.2343 3.4199C16.7738 2.76013 17.232 2.35157 17.9714 1.88746C19.3601 1.01584 22.4968 0.746718 23.3531 2.06483C23.8315 2.80116 23.5907 3.57129 23.1821 4.25041C22.6085 5.20359 21.2133 6.15593 20.1598 6.60706C18.4706 7.3304 16.0681 7.85744 14.1856 7.85744V7.85744ZM3.375 2.95313C3.375 1.6898 4.7639 1.16016 5.85352 1.16016C7.1815 1.16016 7.8735 1.22719 9.00154 1.86174C10.0168 2.43286 10.8362 3.34857 11.4269 4.34065C11.8367 5.0287 12.195 5.81362 12.452 6.58511L12.8145 7.85744C11.5054 7.85744 9.40171 7.50101 8.18005 7.11291C6.46865 6.56929 4.21364 5.43062 3.53959 3.68502C3.4831 3.53872 3.375 3.1314 3.375 2.95313Z" fill="#686868"/>
</g>
<defs>
<clipPath id="clip0_8_182">
<rect width="27" height="27" fill="white"/>
</clipPath>
</defs>
</svg>
