<svg width="29" height="28" viewBox="0 0 29 28" fill="none" xmlns="http://www.w3.org/2000/svg">
<path fill-rule="evenodd" clip-rule="evenodd" d="M12.6402 22.4241H22.2025C22.0256 22.6857 19.1961 25.4351 18.7181 25.9089C17.1512 27.462 17.708 27.4783 14.9994 24.7936L12.6402 22.4241ZM22.5152 13.0081C22.68 12.9295 22.927 12.8342 23.0865 12.769C25.3934 11.8315 23.7506 12.0169 27.0774 12.0169V20.8753C27.0774 21.1814 26.8236 21.433 26.5148 21.433H22.0773V14.0611C22.7404 14.5013 23.9613 16.1671 24.4524 16.1671C24.755 16.1671 24.9522 15.9711 24.9522 15.6717C24.9522 15.174 22.9831 13.7008 22.5147 13.0081H22.5152ZM18.2029 15.5481C18.2029 15.8705 18.2788 16.1675 18.7027 16.1675C19.1937 16.1675 20.4146 14.5013 21.0778 14.0616V21.4334H1.6405C1.33165 21.4334 1.0779 21.1819 1.0779 20.8758V12.0174H18.3276L20.6399 13.0086C20.3039 13.5058 18.2024 15.2976 18.2024 15.5486L18.2029 15.5481ZM22.5152 11.8933C22.5461 11.5244 23.0396 10.6425 23.2445 10.2621C23.3654 10.0379 23.3997 9.95788 23.5394 9.749C24.6399 8.10485 26.0832 9.83188 24.8826 10.7086C24.6163 10.9031 24.4398 10.9898 24.1527 11.1622L22.5157 11.8938L22.5152 11.8933ZM20.6403 11.8933C20.3914 11.8358 19.8714 11.6016 19.6186 11.4813C19.1584 11.2624 18.1304 10.7618 17.8994 10.3349C17.4847 9.56935 18.3054 8.75782 19.0772 9.1679C19.5925 9.44144 20.5171 11.3682 20.6403 11.8933ZM22.0778 10.2209V6.56609H26.5153C26.8241 6.56609 27.0779 6.8176 27.0779 7.12372V11.0262H26.0779C26.1992 10.5102 26.3906 10.6908 26.3906 9.78733C26.3906 8.2754 24.1102 7.26025 22.9342 8.83974L22.2866 9.87021C22.2484 9.94111 22.2353 9.97896 22.2034 10.0355C22.1967 10.0475 22.188 10.0638 22.1812 10.0752L22.0778 10.2204V10.2209ZM16.7655 9.84913C16.7655 10.7287 16.9501 10.5519 17.0782 11.0262H1.07839V7.12372C1.07839 6.8176 1.33214 6.56609 1.64099 6.56609H21.0782V10.2832C21.0082 10.2027 21.0492 10.2626 20.9748 10.138C20.9284 10.0609 20.91 10.0149 20.8694 9.93249C20.4939 9.17317 19.8496 8.05263 18.8283 8.05263C18.1773 8.05263 17.8032 8.09718 17.2792 8.62368C17.01 8.89435 16.7659 9.33222 16.7659 9.84913H16.7655ZM15.5156 5.5749H5.95329C6.13019 5.31333 8.95962 2.56396 9.43764 2.09017C11.0046 0.537034 10.4478 0.520745 13.1564 3.20543L15.5156 5.5749ZM0.0783691 6.93784V21.0617C0.0783691 21.8033 0.725553 22.4323 1.70189 22.4261L10.8325 22.4203C11.3125 22.4203 11.2023 22.4548 11.7499 22.9976L16.2807 27.4893C16.677 27.8879 16.9163 28 17.5156 28C18.2889 28 19.272 26.7856 19.9685 26.0952L23.2499 22.8428C23.348 22.7451 23.3963 22.6891 23.4954 22.5909C23.7931 22.2958 24.2523 22.4251 25.0155 22.4251C25.6313 22.4251 26.6376 22.5329 27.1185 22.3413C27.5888 22.1535 28.0784 21.6754 28.0784 21.0622V6.93832C28.0784 6.19673 27.4312 5.56771 26.4548 5.57394L17.3242 5.57969C16.8442 5.57969 16.9544 5.5452 16.4068 5.00241L11.8761 0.510685C11.4797 0.112102 11.2405 0 10.6411 0C9.86781 0 8.88471 1.21443 8.18822 1.90477L4.90687 5.15715C4.55259 5.50926 4.61301 5.56148 4.2708 5.58017C3.41434 5.62616 1.597 5.43645 1.03827 5.65921C0.567986 5.84701 0.0783691 6.32512 0.0783691 6.93832V6.93784Z" fill="#07C207"/>
</svg>
