<svg width="20" height="20" viewBox="0 0 20 20" fill="none" xmlns="http://www.w3.org/2000/svg">
<path fill-rule="evenodd" clip-rule="evenodd" d="M14.0905 5.46222C9.48299 1.5221 2.85568 6.20641 4.47501 11.9773C6.48736 17.6171 14.9243 17.2616 15.7973 12.0401L10.2116 12.0697L10.2389 8.24294L19.8545 8.26931C21.7497 21.8066 4.58148 23.7288 0.636357 13.5076C-2.85971 4.44984 8.81727 -4.58422 16.9454 2.6018L14.0905 5.46217L14.0905 5.46222Z" fill="#E54336"/>
<path fill-rule="evenodd" clip-rule="evenodd" d="M4.49035 12.0173C5.98471 16.1004 10.8663 17.0025 13.7267 15.1604L16.9455 17.6034C12.4439 21.5831 4.21955 20.6012 1.09058 14.5141L4.4903 12.0173H4.49035Z" fill="#339966"/>
<path fill-rule="evenodd" clip-rule="evenodd" d="M13.7299 15.1704C14.7836 14.4917 15.5631 13.4416 15.7974 12.0401L10.2117 12.0697L10.239 8.24292L19.8545 8.2693C20.4535 12.548 19.1471 15.6647 16.9566 17.6061L13.7299 15.1704V15.1704Z" fill="#4280EF"/>
<path fill-rule="evenodd" clip-rule="evenodd" d="M4.59874 8.09955C4.17473 9.2589 4.08492 10.5862 4.47515 11.9773C4.48068 11.9937 4.48764 12.0096 4.49365 12.0259L1.09946 14.5345C0.930486 14.2063 0.774477 13.8653 0.636546 13.5075C-0.447608 10.6986 -0.0717114 7.89283 1.20366 5.57184L4.5988 8.0995L4.59874 8.09955Z" fill="#F5B704"/>
</svg>
