<svg width="30" height="30" viewBox="0 0 30 30" fill="none" xmlns="http://www.w3.org/2000/svg">
<g clip-path="url(#clip0_8_176)">
<path fill-rule="evenodd" clip-rule="evenodd" d="M0 14.9408C0 15.7452 0.445166 16.0783 1.20531 16.0783C1.74811 16.0783 2.70879 14.9434 3.06366 14.5893L14.9997 2.6259C15.3514 2.86149 21.3574 8.94995 21.8467 9.43581C22.1528 9.7396 22.3423 9.99932 22.6504 10.3057L27.773 15.4256C28.1877 15.8407 28.3189 16.0783 28.9951 16.0783C29.6009 16.0783 29.9993 15.6124 29.9993 14.9408C29.9993 14.2928 28.9851 13.4922 28.3756 12.883C27.0354 11.5435 16.2396 0.669346 15.7388 0.281078C14.9272 -0.347497 14.3062 0.206572 13.8112 0.701876C13.4825 1.03085 13.2027 1.30999 12.8736 1.63897C11.5334 2.97849 0.653574 13.7687 0.265105 14.2692C0.120741 14.4555 0 14.5971 0 14.9408ZM3.21433 18.0863V25.0468C3.21433 26.3061 3.9099 27.5779 4.77083 28.4436C5.17452 28.8497 5.65749 29.2202 6.20292 29.4888C6.63496 29.7013 7.56519 29.9998 8.16942 29.9998H21.8299C23.3381 29.9998 24.9051 29.0019 25.7913 27.8019C25.9503 27.5868 26.1482 27.2689 26.2737 27.0123C26.4937 26.5626 26.785 25.6764 26.785 25.0473V18.0868C26.785 16.9488 24.7555 16.7373 24.6421 18.0863L24.6426 23.7089C24.6426 25.1643 24.5739 25.8916 23.8867 26.7011C23.3344 27.3523 22.4746 27.8586 21.2945 27.8586H8.7054C7.52529 27.8586 6.66593 27.3523 6.11315 26.7011C5.42598 25.891 5.35721 25.1643 5.35721 23.7089L5.35774 18.0863C5.24382 16.7368 3.21485 16.9488 3.21485 18.0868L3.21433 18.0863Z" fill="#686868"/>
</g>
<defs>
<clipPath id="clip0_8_176">
<rect width="30" height="30" fill="white"/>
</clipPath>
</defs>
</svg>
