<svg width="20" height="24" viewBox="0 0 20 24" fill="none" xmlns="http://www.w3.org/2000/svg">
<path fill-rule="evenodd" clip-rule="evenodd" d="M8.20315 15.7038C8.36311 15.7163 8.40208 15.7559 8.55179 15.8185C8.69124 15.8769 8.78968 15.904 8.93529 15.9457C9.61205 16.1377 10.3483 16.1189 11.0332 15.9583C11.3491 15.8832 11.5234 15.7705 11.7982 15.7038C11.7982 16.4839 11.7715 16.9304 11.3942 17.3559C11.2158 17.5583 11.0825 17.6897 10.8364 17.8211C10.0325 18.2508 9.22855 18.0318 8.62767 17.3809C8.23391 16.9533 8.20315 16.5027 8.20315 15.7038ZM4.51583 7.68916C4.7168 7.68916 5.33819 8.07299 5.46739 7.29698C5.54532 6.83596 5.42023 6.86517 5.6212 6.46882C5.84064 6.03909 6.14621 5.75122 6.71633 5.65734C7.70481 5.49255 8.22366 6.65865 9.44798 6.65865C10.3196 6.65865 10.6928 6.65656 11.4844 6.15382C11.7695 5.97234 12.354 5.40076 12.4421 5.06491C12.5816 5.16087 12.639 5.261 12.7826 5.37364C13.3506 5.82423 13.447 5.69072 13.9269 6.17677C14.8744 7.13427 14.1505 7.78303 15.0672 7.78303C15.2661 7.78303 15.2538 7.68916 15.3891 7.68916C15.787 7.68916 16.0044 7.98955 15.8916 8.33583L14.6057 10.8307C14.1546 10.7202 14.052 10.8829 13.9003 11.2855C13.5024 12.3473 12.7662 13.8868 11.8146 14.5543C10.5472 15.443 8.62972 15.2261 7.63508 14.0766C7.46077 13.8764 7.32746 13.6719 7.18596 13.455C6.69582 12.7061 6.42101 12.1742 6.10724 11.3189C6.05802 11.1812 6.01701 11.0623 5.94113 10.9726C5.70529 10.6931 5.50431 10.8036 5.38946 10.8307C5.31769 10.6952 5.26847 10.5721 5.19054 10.424L4.34561 8.79894C4.26358 8.63622 4.19385 8.56738 4.13028 8.40676C3.93955 7.92697 4.33946 7.68916 4.51378 7.68916H4.51583ZM5.11466 5.48629C5.11466 1.74809 8.95169 0.519405 10.0017 1.07638C10.2416 1.20363 10.8302 1.91497 11.5521 1.29959C11.7654 1.1181 11.8146 1.03257 12.1632 0.980422C13.4552 0.790591 15.02 2.03179 15.02 3.60884V4.68733C15.02 5.1254 14.9277 5.44665 14.9277 5.81171C14.8293 5.74496 14.5893 5.42579 14.2632 5.17547C13.9802 4.95643 13.7034 4.87508 13.4306 4.6623C12.6677 4.06986 13.1189 2.99972 12.438 2.99972C11.6403 2.99972 12.1776 4.11158 11.3901 4.93349C10.8015 5.55096 10.1494 5.84926 9.24701 5.6344C8.40823 5.43622 8.11907 4.76243 7.22698 4.68733C6.75529 4.6477 6.41281 4.6769 6.0047 4.84379C5.44894 5.07116 5.38741 5.29229 5.11056 5.48212L5.11466 5.48629ZM4.14668 5.4404C4.14668 5.7095 4.1795 5.84092 4.19385 6.09542C4.21026 6.35617 4.28409 6.48759 4.28409 6.75252C3.93545 6.83596 3.72422 6.9507 3.51094 7.18433C2.87314 7.88316 3.13359 8.62371 3.53145 9.34548L4.52198 11.2438C4.67374 11.5004 4.76602 11.6276 5.09005 11.7424C5.44484 11.8696 5.14132 11.6527 5.51046 12.3911L5.75451 12.8939C5.93292 13.2193 6.07443 13.5051 6.27336 13.8201L6.87424 14.6607C7.2926 15.1176 7.23108 14.7796 7.23108 15.7976C6.8927 15.8268 6.25285 16.0897 5.92472 16.2023C4.8378 16.5757 3.2751 17.3663 2.4958 18.0589C1.09921 19.298 0.227619 20.8167 0.227619 22.8777C0.227619 23.3324 0.116876 24.0021 0.689047 24.0021H7.92424C8.53538 24.0021 8.52513 23.0654 7.96936 23.0654H1.19559C1.19559 20.8104 2.24765 19.1749 4.08516 18.1298C4.7045 17.7773 6.60764 16.8448 7.32541 16.7843C7.34592 17.7022 8.61126 18.9872 9.72074 18.9872C10.4447 18.9872 10.8446 18.9893 11.5008 18.547C11.6628 18.4365 11.7018 18.3885 11.8351 18.2779C12.153 18.0172 12.6575 17.3267 12.6698 16.7843C13.0594 16.8177 13.9269 17.1849 14.3289 17.3476C14.5298 17.4289 14.6734 17.5061 14.8744 17.5896C15.7398 17.9463 16.9498 18.6952 17.5486 19.4649C18.3566 20.5058 18.7996 21.5802 18.7996 23.0675H11.9787C11.5603 23.0675 11.4126 24.0042 12.0709 24.0042H19.3061C19.8763 24.0042 19.7676 23.3053 19.7676 22.8798C19.7676 21.7783 19.4661 20.7958 19.0929 20.0511C18.1926 18.255 16.5048 17.1953 14.739 16.4631C14.3186 16.2899 13.1292 15.831 12.7641 15.8018C12.7641 15.6412 12.7436 15.2344 12.7682 15.1009C12.7928 14.9632 13.1538 14.6294 13.404 14.2936L13.9659 13.4133C14.0623 13.2485 14.1238 13.1087 14.2243 12.9272C14.4745 12.4787 14.4929 12.3536 14.6755 11.9343C14.8334 11.5692 15.022 11.9551 15.4568 11.2751L16.191 9.86491C16.6422 8.95956 16.8657 8.8198 16.8657 8.02084C16.8657 7.44092 16.23 6.76712 15.668 6.75461C15.9634 6.12879 15.99 4.60389 15.99 3.75487C15.99 2.99972 15.7603 2.25917 15.3912 1.69176C15.1369 1.30167 14.8908 1.02214 14.5216 0.746784C13.7341 0.158518 13.1743 0.00415039 12.1632 0.00415039C11.7244 0.00415039 11.1378 0.304542 10.9656 0.567384C10.1658 0.0229249 10.217 0.00415039 9.21419 0.00415039C7.33977 0.00415039 5.37101 1.45813 4.61837 3.25213C4.36612 3.855 4.14463 4.60389 4.14463 5.44248L4.14668 5.4404Z" fill="#7C7979"/>
<path fill-rule="evenodd" clip-rule="evenodd" d="M19.0313 13.453V15.2345H17.2799C16.4863 15.2345 16.6319 16.2191 17.1876 16.2191H19.5378C19.7696 16.2191 19.9993 15.9854 19.9993 15.7497V13.3591C19.9993 12.7938 19.0313 12.6457 19.0313 13.453Z" fill="#7C7979"/>
<path fill-rule="evenodd" clip-rule="evenodd" d="M0 13.3591V15.7497C0 15.9854 0.229689 16.2191 0.461428 16.2191H2.81164C3.3674 16.2191 3.51301 15.2345 2.71935 15.2345H0.967974V13.453C0.967974 12.6457 0 12.7938 0 13.3591Z" fill="#7C7979"/>
<path fill-rule="evenodd" clip-rule="evenodd" d="M0 0.469361V2.7661C0 3.5588 0.967974 3.44198 0.967974 2.81199V0.936636H2.85675C3.42893 0.936636 3.38996 0 2.85675 0H0.369143C0.227638 0 0 0.214863 0 0.469361Z" fill="#7C7979"/>
<path fill-rule="evenodd" clip-rule="evenodd" d="M16.7283 0.469472C16.7283 0.746917 16.8964 0.938833 17.1425 0.938833H19.0313V2.81419C19.0313 3.44418 19.9993 3.55891 19.9993 2.7683V0.471558C19.9993 0.219146 19.7716 0.00219727 19.6301 0.00219727H17.1425C16.8944 0.00219727 16.7283 0.233749 16.7283 0.471558V0.469472Z" fill="#7C7979"/>
<path fill-rule="evenodd" clip-rule="evenodd" d="M9.53833 23.4848C9.53833 23.7873 9.70855 23.9583 9.90337 24H10.0941C10.2889 23.9583 10.4591 23.7873 10.4591 23.4848C10.4591 22.9195 9.53833 22.9195 9.53833 23.4848Z" fill="#7C7979"/>
</svg>
