<svg width="28" height="29" viewBox="0 0 28 29" fill="none" xmlns="http://www.w3.org/2000/svg">
<g clip-path="url(#clip0_8_675)">
<path fill-rule="evenodd" clip-rule="evenodd" d="M14.3562 26.3946C13.5648 26.3946 11.928 26.4533 11.3505 26.3863C10.6345 26.3032 9.81744 26.3815 9.04083 26.3382C8.79997 26.3247 8.81171 26.2873 8.54973 26.2794C7.3788 26.244 6.1255 26.1233 5.10562 25.4783C2.64626 23.9229 2.57537 21.2922 2.57537 18.2949C2.57537 15.8803 2.42559 8.98148 2.84357 6.9042C3.30243 4.62367 4.79598 3.32131 7.05329 2.87294C8.71818 2.54227 15.853 2.66214 17.0959 2.66214C20.8945 2.66214 24.3418 2.70607 25.2473 7.03688C25.6272 8.85368 25.3745 10.9026 25.4875 11.943L25.5361 16.6543C25.5277 16.9442 25.478 17.0026 25.4776 17.3301C25.4769 17.8214 25.4794 18.3133 25.4795 18.8047C25.4795 19.0397 25.4918 19.311 25.4797 19.5413C25.466 19.8049 25.4214 19.89 25.4235 20.2195C25.4399 22.8979 24.4322 24.8619 22.3175 25.7881C20.8601 26.4265 18.7491 26.3152 17.1485 26.3356L15.7808 26.3945C15.306 26.3945 14.8311 26.3945 14.3562 26.3945L14.3562 26.3946ZM0 10.6485V18.4082C0 22.3207 0.44186 24.609 2.36986 26.607C4.28144 28.588 6.65577 29 10.411 29H17.589C20.5014 29 23.172 28.8681 25.3029 26.9483C27.4019 25.0573 28 22.5253 28 19.711V9.06249C28 6.22111 27.2555 3.74088 25.2773 2.02154C23.108 0.136173 20.6049 0 17.6438 0H10.411C7.32811 0 4.4979 0.187708 2.36986 2.39306C0.43691 4.39621 0 6.72663 0 10.6484L0 10.6485Z" fill="#6B6A6A"/>
<path fill-rule="evenodd" clip-rule="evenodd" d="M14.1917 19.3145C12.8256 19.3145 11.6496 18.8632 10.7249 17.9137C7.86045 14.9721 9.76921 9.68554 14.0821 9.68554C18.3456 9.68554 20.5009 15.4794 16.7597 18.4007C16.1251 18.8962 15.0734 19.3145 14.1917 19.3145ZM6.79443 14.5C6.79443 21.0476 14.7477 24.8641 19.5474 19.2999C20.6107 18.0673 21.2602 16.1874 21.2602 14.5C21.2602 8.7614 15.0094 4.84006 9.90625 8.37095C8.16172 9.57803 6.79448 11.9114 6.79448 14.5H6.79443Z" fill="#6B6A6A"/>
<path fill-rule="evenodd" clip-rule="evenodd" d="M19.8354 6.57032V6.85353C19.8354 7.7193 20.587 8.49612 21.4245 8.49612C22.027 8.49612 22.3081 8.42588 22.7547 7.94541C24.2339 6.35431 21.9561 3.9502 20.396 5.45059C20.1508 5.68644 19.8354 6.10922 19.8354 6.57036V6.57032Z" fill="#6B6A6A"/>
</g>
<defs>
<clipPath id="clip0_8_675">
<rect width="28" height="29" fill="white"/>
</clipPath>
</defs>
</svg>
