<svg width="357" height="115" viewBox="0 0 357 115" fill="none" xmlns="http://www.w3.org/2000/svg">
<path d="M347.441 0.0356445H9.50159C4.25401 0.0356445 0 5.50531 0 12.2525V102.782C0 109.53 4.25401 114.999 9.50159 114.999H347.441C352.688 114.999 356.942 109.53 356.942 102.782V12.2525C356.942 5.50531 352.688 0.0356445 347.441 0.0356445Z" fill="#F9F9FA"/>
<path fill-rule="evenodd" clip-rule="evenodd" d="M254.691 0.0356445H344.841C351.502 0.0356445 356.954 5.53496 356.954 12.2525V12.8094V102.782C356.954 109.5 351.502 114.999 344.841 114.999H344.289H301.509C271.072 98.6056 250.354 66.2479 250.354 29.0057C250.354 18.9236 251.873 9.18957 254.691 0.0356445Z" fill="#F9F9FA"/>
<path fill-rule="evenodd" clip-rule="evenodd" d="M0 69.0439V47.7776C5.08439 48.6013 8.97245 53.0449 8.97245 58.405C8.97245 63.765 5.08439 68.2202 0 69.0323V69.0439Z" fill="#FFCC00"/>
<path fill-rule="evenodd" clip-rule="evenodd" d="M93.9575 21.8473C101.918 30.2123 109.579 23.4599 113.639 28.7852C115.572 30.7459 116.193 33.4608 114.882 37.2662L113.076 35.4679C113.892 32.9851 114.088 30.7575 113.248 28.9709C111.235 28.0311 107.301 28.5764 104.816 28.3443C101.262 28.0195 98.0756 26.9057 93.9575 21.8473ZM119.31 64.786C121.749 63.4402 124.119 62.8717 126.546 63.765C128.709 62.6629 131.101 64.7744 129.261 67.3268L125.591 72.3969C125.051 73.151 123.371 74.9029 124.061 75.6802C124.74 76.4459 125.925 76.0051 126.684 75.6106C129.249 74.2764 131.412 72.1416 133.298 69.4268L134.552 66.5031C135.817 64.4147 138.072 65.2617 137.612 67.5937L132.447 83.6623C145.848 80.0309 164.046 81.1331 169.027 86.4468C172.443 89.2777 169.878 92.271 166.496 89.7998C157.374 82.9778 145.008 82.827 131.55 86.1104C127.478 94.603 123.21 100.009 118.425 101.738C112.201 103.989 106.438 100.137 109.751 93.3268C110.43 91.9461 112.558 89.0224 114.192 87.7926C115.514 86.7949 116.964 87.2706 117.332 88.9412L117.723 90.7163C117.873 91.1804 118.16 91.2732 118.551 91.0528L128.57 85.2402C130.273 80.8199 131.343 75.9471 132.735 71.2947C130.791 73.7543 124.947 80.1702 121.922 76.6084C121.001 75.5294 120.633 73.7659 121.208 71.8284C121.979 69.2295 123.509 66.7699 125.706 64.438C123.912 63.6258 121.922 64.2871 119.955 65.4705C120.863 66.6423 120.817 68.2782 120.415 69.334C119.31 72.2577 115.388 71.6892 116.159 68.545C116.435 67.4429 117.24 66.2362 118.31 65.4589C114.111 62.3728 107.29 69.2876 111.109 77.3277C111.258 77.6061 110.936 77.8614 110.752 77.6061C109.579 75.5874 108.762 71.4687 110.303 68.0113C111.718 64.844 115.871 62.0247 119.322 64.7628L119.31 64.786ZM144.813 67.5473L144.663 67.8373C146.274 69.2411 148.62 68.6494 149.725 67.118C151.347 64.8904 149.449 62.1292 146.941 62.396C142.501 62.8717 139.844 66.886 139.211 70.0533C138.337 74.346 142.064 77.3625 145.043 75.7034C146.366 74.9725 147.62 73.8239 148.793 72.2461C148.989 74.9841 150.139 77.1421 153.222 76.3879C154.637 76.0399 156.201 75.0073 157.903 73.2786C157.892 75.0421 158.789 76.6664 160.078 77.3509C162.206 78.4879 163.931 76.794 165.127 75.1813L170.062 68.4986C170.925 69.1947 171.891 69.6936 173.019 69.8212C171.73 71.4107 170.764 73.0234 170.166 74.4852C168.463 78.7315 170.258 82.0381 175.066 79.8917C180.208 77.6061 189.307 67.5589 188.663 61.201C188.03 54.9012 180.519 51.3046 175.009 50.8289C173.801 49.2974 172.501 48.2185 170.752 47.8124C170.534 47.7428 170.384 48.114 170.637 48.2069C172.121 48.8102 173.191 49.7731 174.157 50.9217C172.984 51.1421 172.018 51.4322 171.305 51.9427C168.003 54.2747 171.42 59.948 174.733 56.7343C175.779 55.7133 176.378 53.8802 175.515 51.7454C178.506 51.5134 183.705 53.3813 186.293 57.0243C188.134 59.6115 188.663 63.1733 186.834 66.944C184.89 70.5986 181.842 73.9863 178.195 77.2117C176.009 79.0216 173.858 80.2282 172.202 79.6365C170.948 78.9172 172.34 76.562 173.904 74.52C174.422 73.8355 174.928 73.0582 175.63 72.6289C178.068 71.1323 179.587 69.2411 178.655 68.1158C177.781 67.0716 175.043 67.3152 173.617 69.2063C172.432 68.8467 171.765 68.4754 171.558 68.0462C171.063 67.0252 173.674 65.4473 174.974 64.7164C177.459 63.3358 175.469 62.3612 173.904 62.4076C171.201 62.4888 168.705 65.3197 169.51 67.7677L164.472 74.5432C163.931 75.2626 162.539 76.8404 161.573 76.2487C160.71 75.7266 161.918 73.7891 162.309 73.1278L165.473 67.9069C168.222 64.7164 165.116 63.4982 162.608 65.0877C159.825 67.7445 158.605 69.9025 157.926 72.3273C156.19 74.0908 154.637 74.9957 153.509 75.1233C151.6 75.3322 151.991 74.114 152.301 72.977C153.417 70.5638 154.74 68.3362 156.397 66.4103C157.317 65.3661 159.629 63.8463 159.445 66.9672C159.445 67.5589 159.836 67.6401 160.055 67.4661C162.033 64.3103 158.226 62.6048 155.074 63.649C152.071 64.6468 149.656 67.5125 148.943 71.0278C147.171 73.4526 145.572 74.8217 144.192 74.8217C140.154 73.1394 144.088 66.7003 146.389 64.7164C146.918 64.2639 147.689 63.5098 148.413 63.9855C149.23 64.5076 148.666 65.6213 148.287 66.2595C147.413 67.7329 146.17 67.9765 144.79 67.5705L144.813 67.5473ZM174.641 51.7106C173.628 51.8151 172.743 52.1399 172.029 52.778C170.81 53.8686 170.327 55.8873 172.041 56.6531C174.272 57.6392 176.93 54.1818 174.629 51.7106H174.641ZM141.074 51.699L141.143 51.1421C142.006 51.4902 142.892 51.467 143.835 50.9101C144.755 50.3648 146.251 48.6825 145.008 47.7196C143.444 46.5246 141.592 49.1814 140.867 50.3532C139.809 52.0471 139.096 54.0426 139.188 56.3166C139.867 59.8552 142.34 57.8945 145.411 54.1122C145.975 49.6223 150.173 45.8517 153.751 45.6428C155.327 45.55 156.305 46.4434 154.959 47.7544C152.555 50.0864 150.403 52.5808 148.77 55.4116C148.39 56.073 148.402 56.6415 148.632 56.9779C149.46 58.2077 152.808 55.9569 154.706 53.1493L158.065 48.5549C159.376 47.0351 161.159 46.8494 162.114 47.5571C163.206 48.3693 163.057 50.098 162.114 51.0145L157.455 55.4813C155.074 57.7668 158.088 58.6486 160.147 57.326C164.069 54.8083 167.325 48.6941 166.025 43.1136C159.963 44.3666 154.361 43.5429 151.45 41.2805C146.412 37.3707 150.806 31.6625 156.73 32.0338C160.664 32.2774 163.977 35.5027 166.784 41.1413C170.695 40.0507 174.951 38.322 178.333 36.3961C181.749 34.447 182.026 38.1248 179.621 39.0761C175.699 40.6308 171.604 42.023 167.267 42.9512C168.084 47.4643 166.197 52.9752 162.102 56.6067C158.812 59.5303 153.095 60.5165 154.073 54.7387C152.428 56.1774 149.771 59.4143 147.298 58.579C146.297 58.2425 145.457 57.0591 145.354 55.0056C139.671 62.9065 134.644 59.89 135.978 52.6156C136.611 49.1466 139.786 46.1185 142.823 45.8749C145.595 45.6544 147.815 48.1836 146.262 50.5388C145.193 52.1515 142.57 52.836 141.051 51.699H141.074ZM150.38 36.3845C149.909 37.9275 150.749 39.5634 152.854 40.7584C156.155 42.6263 161.136 42.6147 165.231 41.617C165.668 41.5125 165.565 41.2921 165.427 40.9905C162.574 34.9574 159.054 32.115 154.706 33.1011C152.969 33.4956 150.944 34.563 150.38 36.3845ZM108.774 54.4371L109.107 54.2863C109.05 52.4996 108.912 43.4501 111.408 43.3456C114.261 43.2296 118.114 54.205 119.23 56.8039C119.69 57.8829 120.944 61.7579 122.439 61.2358C123.877 60.7253 122.715 55.1564 122.531 53.5205C123.785 45.318 125.787 38.322 129.123 33.4608C129.847 32.405 132.528 30.3747 134.034 31.094C135.346 31.7205 134.575 33.9249 134.242 34.9574C132.873 39.285 130.825 42.2087 129.893 45.1207C128.363 49.9123 128.053 53.3929 128.467 55.8757C129.1 59.7044 131.389 62.2336 134.126 63.1037C137.002 64.0203 140.005 62.9877 142.777 61.2822C143.26 60.9806 142.88 60.6441 142.478 60.5165C137.037 62.3496 132.884 61.1546 133.977 54.8664C134.966 49.1234 140.062 39.8883 139.475 33.5768C137.761 25.7107 132.217 27.3466 129.18 30.5487C125.948 34.8182 123.532 42.8236 121.922 52.2211C120.553 47.7892 118.678 44.8307 116.389 43.16C112.685 40.4684 109.452 41.2573 108.394 46.0373C107.957 48.0212 107.669 51.409 108.774 54.4487V54.4371ZM118.885 65.9926C119.759 67.1992 119.736 68.9627 119.115 69.8677C118.356 70.9814 116.63 70.3781 116.803 69.0323C116.952 67.8605 118.275 66.3755 118.885 65.981V65.9926ZM115.468 88.8484C115.652 88.686 115.767 88.744 115.802 88.9644L116.285 91.1224C116.458 91.8997 116.941 92.4566 117.758 92.6074C118.62 92.7699 119.402 92.4102 120.116 91.9693L127.731 87.2822C124.153 95.8096 119.794 100.682 114.433 101.054C110.856 100.972 109.211 99.2901 110.488 95.8676C111.592 92.8975 113.329 90.7047 115.457 88.86L115.468 88.8484Z" fill="#FF6600"/>
<path d="M113.847 21.5572C113.306 21.4064 112.823 21.2904 112.397 21.2092C111.972 21.128 111.592 21.0931 111.258 21.0931C111.063 21.0931 110.902 21.1164 110.787 21.1744C110.66 21.2208 110.603 21.2904 110.603 21.36C110.603 21.5108 110.741 21.6152 111.017 21.6965C111.293 21.7777 111.684 21.8125 112.202 21.8125C112.455 21.8125 112.731 21.7893 112.995 21.7429C113.272 21.6964 113.559 21.6268 113.858 21.5456L113.847 21.5572ZM119.23 17.2645C120.196 16.9049 121.036 16.4988 121.726 16.0463C122.417 15.5938 122.992 15.0601 123.463 14.4684C123.624 14.2712 123.739 14.0856 123.831 13.9C123.912 13.7143 123.958 13.5635 123.958 13.4475C123.958 13.3199 123.923 13.2386 123.866 13.1806C123.797 13.1226 123.705 13.0994 123.555 13.0994C123.026 13.0994 122.382 13.4591 121.634 14.1784C120.887 14.8977 120.093 15.9303 119.23 17.2761V17.2645ZM118.885 17.7518C118.172 18.8656 117.482 19.7125 116.826 20.3042C116.17 20.8959 115.457 21.302 114.709 21.534C115.02 21.6268 115.308 21.6964 115.561 21.7429C115.825 21.7893 116.055 21.8125 116.251 21.8125C116.757 21.8125 117.24 21.7197 117.7 21.534C118.16 21.3484 118.666 21.0467 119.23 20.6059C119.322 20.5363 119.426 20.4434 119.564 20.3274C119.759 20.165 119.886 20.0838 119.932 20.0838C119.955 20.0838 119.978 20.0954 119.989 20.107C120.001 20.1302 120.012 20.1534 120.012 20.1766C120.012 20.223 119.966 20.3042 119.863 20.397C119.759 20.5015 119.564 20.6639 119.276 20.8959C118.724 21.3368 118.218 21.6384 117.781 21.8125C117.332 21.9865 116.86 22.0677 116.331 22.0677C116.009 22.0677 115.687 22.0329 115.354 21.9749C115.02 21.9053 114.675 21.8125 114.318 21.6732C113.985 21.8125 113.628 21.9053 113.272 21.9749C112.915 22.0445 112.535 22.0677 112.144 22.0677C111.546 22.0677 111.086 22.0097 110.775 21.8937C110.453 21.7777 110.304 21.6036 110.304 21.3716C110.304 21.1744 110.396 21.0351 110.58 20.9423C110.764 20.8495 111.051 20.8031 111.431 20.8031C111.811 20.8031 112.225 20.8495 112.696 20.9423C113.168 21.0351 113.663 21.186 114.203 21.3716C114.778 21.0931 115.342 20.6871 115.906 20.1534C116.469 19.6197 117.056 18.9352 117.654 18.0882L116.032 18.4247L115.906 18.4479C115.584 18.5175 115.388 18.5407 115.331 18.5407C115.262 18.5407 115.204 18.5291 115.17 18.5175C115.135 18.4943 115.112 18.4711 115.112 18.4363C115.112 18.3435 115.446 18.2391 116.113 18.1231C116.78 18.007 117.401 17.8678 117.976 17.7054C119.184 16.0695 120.254 14.8397 121.174 14.0276C122.106 13.2038 122.888 12.7978 123.532 12.7978C123.774 12.7978 123.946 12.8558 124.073 12.9718C124.2 13.0878 124.257 13.2618 124.257 13.4823C124.257 14.1204 123.774 14.8165 122.819 15.5706C121.853 16.3364 120.542 17.0557 118.874 17.7286L118.885 17.7518ZM120.208 20.8959C120.173 20.9771 120.139 21.0467 120.127 21.128C120.104 21.1976 120.104 21.2672 120.104 21.3252C120.104 21.4528 120.15 21.5572 120.231 21.6268C120.311 21.6964 120.426 21.7313 120.576 21.7313C120.829 21.7313 121.14 21.6384 121.508 21.4528C121.876 21.2672 122.267 21.0003 122.693 20.6523C122.796 20.5595 122.934 20.4434 123.084 20.2926C123.245 20.1418 123.337 20.0722 123.371 20.0722C123.406 20.0722 123.429 20.0838 123.44 20.0954C123.452 20.1186 123.463 20.1418 123.475 20.1766C123.475 20.223 123.417 20.3042 123.314 20.4086C123.21 20.5247 123.015 20.6871 122.75 20.9191C122.347 21.2672 121.945 21.534 121.542 21.7313C121.14 21.9285 120.783 22.0213 120.484 22.0213C120.196 22.0213 119.966 21.9285 119.794 21.7545C119.621 21.5688 119.529 21.3368 119.529 21.0235C119.529 20.7451 119.621 20.4666 119.794 20.1998C119.966 19.9214 120.219 19.6661 120.553 19.4109C120.841 19.202 121.117 19.0396 121.37 18.9352C121.623 18.8308 121.864 18.7728 122.071 18.7728C122.267 18.7728 122.405 18.8076 122.486 18.8656C122.566 18.9352 122.612 19.0396 122.612 19.1904C122.612 19.5037 122.382 19.8285 121.922 20.165C121.462 20.5014 120.898 20.7451 120.231 20.8727L120.208 20.8959ZM120.38 20.5363C120.921 20.4202 121.381 20.2346 121.749 19.991C122.117 19.7357 122.301 19.5037 122.301 19.2832C122.301 19.202 122.29 19.1556 122.255 19.1208C122.232 19.086 122.175 19.0744 122.106 19.0744C121.899 19.0744 121.657 19.202 121.358 19.4457C121.059 19.7009 120.726 20.0606 120.357 20.5479L120.38 20.5363ZM124.441 19.4805C124.188 19.6661 123.923 19.8865 123.624 20.1418C123.337 20.3854 123.164 20.5131 123.118 20.5131C123.095 20.5131 123.084 20.5015 123.061 20.4898C123.049 20.4666 123.038 20.4434 123.038 20.4086C123.038 20.3158 123.532 19.8865 124.51 19.1324L124.982 18.7612L125.511 18.1695H124.453L124.648 17.9606H125.729L126.857 16.5452C126.903 16.4872 126.949 16.4524 126.995 16.4292C127.041 16.406 127.11 16.3944 127.179 16.3944C127.317 16.3944 127.42 16.4176 127.501 16.4524C127.581 16.4872 127.627 16.5336 127.627 16.5916C127.627 16.6264 127.627 16.6496 127.616 16.6728C127.604 16.696 127.593 16.7192 127.57 16.754L126.535 17.9722H127.765L127.57 18.1811H126.385L124.97 19.8169C124.637 20.1998 124.395 20.5247 124.234 20.7915C124.073 21.0583 123.992 21.2788 123.992 21.4528C123.992 21.5456 124.004 21.6152 124.05 21.6616C124.084 21.7081 124.142 21.7313 124.211 21.7313C124.407 21.7313 124.683 21.65 125.016 21.476C125.35 21.302 125.718 21.0583 126.132 20.7451C126.282 20.6291 126.443 20.5015 126.615 20.339C126.788 20.1766 126.891 20.107 126.937 20.107C126.972 20.107 126.995 20.1186 127.006 20.1418C127.029 20.165 127.029 20.1882 127.029 20.223C127.029 20.2694 126.983 20.339 126.903 20.4318C126.822 20.5131 126.615 20.6987 126.282 20.9539C125.833 21.3136 125.419 21.592 125.028 21.7893C124.637 21.9865 124.315 22.0793 124.038 22.0793C123.854 22.0793 123.705 22.0329 123.601 21.9285C123.498 21.8241 123.44 21.6848 123.44 21.5108C123.44 21.244 123.521 20.9539 123.67 20.6291C123.831 20.3158 124.084 19.9446 124.43 19.5153L124.441 19.4805ZM131.953 15.501H131.918C131.815 15.501 131.734 15.4662 131.677 15.4082C131.619 15.3502 131.596 15.269 131.596 15.1646C131.596 14.9905 131.654 14.8397 131.78 14.7005C131.895 14.5613 132.033 14.4916 132.183 14.4916C132.309 14.4916 132.413 14.5381 132.493 14.6193C132.574 14.7005 132.608 14.8049 132.608 14.9325C132.608 15.0833 132.574 15.2226 132.493 15.3618C132.413 15.501 132.298 15.6402 132.137 15.7679C131.976 15.8955 131.803 15.9999 131.631 16.0927C131.446 16.1855 131.32 16.2203 131.228 16.2203C131.182 16.2203 131.147 16.2087 131.113 16.1971C131.078 16.1855 131.067 16.1623 131.067 16.1391C131.067 16.0811 131.17 15.9883 131.4 15.8723C131.619 15.7563 131.803 15.6286 131.964 15.4894L131.953 15.501ZM130.147 21.5804C130.17 21.6616 130.227 21.7197 130.308 21.7661C130.388 21.8009 130.503 21.8241 130.653 21.8241C131.055 21.8241 131.366 21.6036 131.585 21.1744C131.803 20.7451 131.93 20.0954 131.976 19.2252C131.596 19.4457 131.239 19.6893 130.906 19.9678C130.572 20.2462 130.388 20.397 130.354 20.397C130.331 20.397 130.296 20.3854 130.285 20.3738C130.262 20.3622 130.262 20.339 130.262 20.3158C130.262 20.2346 130.423 20.0606 130.756 19.7937C131.09 19.5269 131.516 19.2368 132.045 18.9004C132.068 18.6683 132.137 18.4711 132.24 18.3319C132.344 18.1927 132.47 18.1115 132.597 18.1115C132.666 18.1115 132.712 18.1347 132.746 18.1811C132.781 18.2275 132.804 18.2855 132.804 18.3551C132.804 18.4711 132.758 18.5871 132.677 18.7032C132.585 18.8192 132.47 18.9236 132.309 18.9932C132.39 19.1208 132.459 19.2716 132.493 19.4341C132.539 19.5965 132.551 19.7821 132.551 19.991C132.551 20.3274 132.493 20.6175 132.39 20.8727C132.286 21.128 132.125 21.3252 131.93 21.4876C132.447 21.2788 132.919 20.9887 133.368 20.6291C133.805 20.2694 134.035 20.0838 134.035 20.0838C134.058 20.0838 134.081 20.0954 134.104 20.107C134.127 20.1302 134.127 20.1534 134.127 20.1882C134.127 20.2462 134.035 20.3622 133.862 20.5247C133.69 20.6871 133.46 20.8727 133.183 21.0583C132.735 21.3716 132.298 21.6152 131.861 21.7893C131.423 21.9633 131.032 22.0445 130.687 22.0445C130.434 22.0445 130.216 21.9865 130.055 21.8705C129.894 21.7545 129.813 21.6036 129.813 21.418C129.813 21.2672 129.859 21.1396 129.951 21.0467C130.043 20.9539 130.158 20.9075 130.296 20.9075C130.4 20.9075 130.48 20.9423 130.538 21.0003C130.595 21.0583 130.63 21.1396 130.63 21.2324C130.63 21.3368 130.595 21.4296 130.515 21.4876C130.446 21.5456 130.342 21.5804 130.227 21.5804C130.193 21.5804 130.17 21.5804 130.158 21.5804C130.147 21.5804 130.124 21.5804 130.124 21.5804H130.147ZM138.417 17.2529C139.292 17.0209 140.085 16.7192 140.81 16.3596C141.535 15.9883 142.167 15.5706 142.708 15.0833C143.099 14.7353 143.398 14.4104 143.628 14.1088C143.847 13.8071 143.962 13.5751 143.962 13.4127C143.962 13.3315 143.939 13.2618 143.881 13.227C143.824 13.1922 143.743 13.169 143.617 13.169C143.042 13.169 142.271 13.5403 141.293 14.2944C140.327 15.0485 139.361 16.0347 138.417 17.2645V17.2529ZM137.106 17.5546C137.67 16.812 138.279 16.1275 138.935 15.5242C139.591 14.9093 140.292 14.364 141.052 13.8767C141.569 13.5519 142.052 13.2967 142.501 13.111C142.961 12.9254 143.329 12.8442 143.628 12.8442C143.87 12.8442 144.042 12.9022 144.157 12.995C144.272 13.0994 144.33 13.2502 144.33 13.4591C144.33 14.1552 143.743 14.9093 142.582 15.7099C141.42 16.5104 139.913 17.1717 138.049 17.6822C137.52 18.3783 137.129 18.97 136.864 19.4805C136.6 19.9794 136.473 20.397 136.473 20.7335C136.473 21.0699 136.577 21.3252 136.795 21.5108C137.014 21.6965 137.313 21.7893 137.693 21.7893C137.98 21.7893 138.302 21.6965 138.647 21.5108C138.993 21.3252 139.384 21.0351 139.821 20.6407C140.154 20.339 140.396 20.0838 140.557 19.8633C140.718 19.6545 140.799 19.4805 140.799 19.3413C140.799 19.2136 140.764 19.1208 140.707 19.0628C140.637 19.0048 140.545 18.9816 140.407 18.9816C140.177 18.9816 139.901 19.0628 139.568 19.2368C139.234 19.4109 138.912 19.6429 138.601 19.933C138.394 20.1186 138.187 20.339 137.992 20.6059C137.796 20.8727 137.67 21.0003 137.612 21.0003C137.589 21.0003 137.566 20.9887 137.543 20.9655C137.52 20.9423 137.52 20.9191 137.509 20.8843C137.509 20.8147 137.566 20.7103 137.67 20.5479C137.773 20.3854 137.911 20.223 138.072 20.0606C138.498 19.6081 138.912 19.2716 139.326 19.0396C139.74 18.8076 140.12 18.6915 140.488 18.6915C140.73 18.6915 140.914 18.7612 141.052 18.9004C141.178 19.0396 141.247 19.2368 141.247 19.4921C141.247 19.7937 141.132 20.1186 140.902 20.455C140.672 20.8031 140.361 21.1048 139.97 21.3832C139.637 21.6152 139.28 21.8009 138.912 21.9169C138.544 22.0445 138.187 22.1025 137.819 22.1025C137.256 22.1025 136.83 21.9517 136.519 21.65C136.209 21.3484 136.059 20.9307 136.059 20.3738C136.059 20.0142 136.128 19.6313 136.255 19.2252C136.381 18.8192 136.577 18.4015 136.818 17.9838C136.278 18.0999 135.829 18.1811 135.45 18.2507C135.07 18.3087 134.805 18.3435 134.644 18.3435C134.575 18.3435 134.518 18.3319 134.472 18.3087C134.426 18.2855 134.403 18.2507 134.403 18.2159C134.403 18.1231 134.725 18.0186 135.369 17.9026C136.013 17.7982 136.6 17.6706 137.141 17.5314L137.106 17.5546ZM143.099 20.9075C143.065 20.9887 143.03 21.0583 143.019 21.1396C142.996 21.2092 142.996 21.2788 142.996 21.3368C142.996 21.4644 143.042 21.5688 143.122 21.6384C143.203 21.7081 143.318 21.7429 143.467 21.7429C143.72 21.7429 144.031 21.65 144.399 21.4644C144.767 21.2788 145.158 21.0119 145.584 20.6639C145.687 20.5711 145.825 20.455 145.975 20.3042C146.136 20.1534 146.228 20.0838 146.263 20.0838C146.297 20.0838 146.32 20.0954 146.332 20.107C146.343 20.1302 146.355 20.1534 146.366 20.1882C146.366 20.2346 146.309 20.3158 146.205 20.4202C146.101 20.5363 145.906 20.6987 145.641 20.9307C145.239 21.2788 144.836 21.5456 144.434 21.7429C144.031 21.9401 143.674 22.0329 143.375 22.0329C143.088 22.0329 142.858 21.9401 142.685 21.7661C142.513 21.5804 142.42 21.3484 142.42 21.0351C142.42 20.7567 142.513 20.4782 142.685 20.2114C142.858 19.933 143.111 19.6777 143.444 19.4225C143.732 19.2136 144.008 19.0512 144.261 18.9468C144.514 18.8424 144.756 18.7844 144.963 18.7844C145.158 18.7844 145.296 18.8192 145.377 18.8772C145.457 18.9468 145.503 19.0512 145.503 19.202C145.503 19.5153 145.273 19.8401 144.813 20.1766C144.353 20.5131 143.789 20.7567 143.122 20.8843L143.099 20.9075ZM143.272 20.5479C143.812 20.4318 144.272 20.2462 144.641 20.0026C145.009 19.7473 145.193 19.5153 145.193 19.2948C145.193 19.2136 145.181 19.1672 145.147 19.1324C145.124 19.0976 145.066 19.086 144.997 19.086C144.79 19.086 144.549 19.2136 144.249 19.4573C143.95 19.7125 143.617 20.0722 143.249 20.5595L143.272 20.5479ZM147.321 19.4805C147.056 19.6777 146.78 19.8982 146.493 20.1418C146.205 20.3854 146.044 20.5131 145.998 20.5131C145.975 20.5131 145.952 20.5015 145.94 20.4898C145.929 20.4666 145.917 20.4434 145.917 20.4086C145.917 20.339 146.067 20.1882 146.366 19.933C146.665 19.6777 147.171 19.2832 147.861 18.7728L151.485 14.6657C151.542 14.6077 151.588 14.5613 151.623 14.5497C151.669 14.5265 151.715 14.5149 151.773 14.5149C151.888 14.5149 151.98 14.5265 152.06 14.5613C152.129 14.5961 152.175 14.6309 152.175 14.6773C152.175 14.7121 152.164 14.7353 152.152 14.7701C152.141 14.7933 152.106 14.8281 152.06 14.8861L147.861 19.8285C147.562 20.1882 147.332 20.5131 147.171 20.7915C147.01 21.0699 146.93 21.302 146.93 21.4644C146.93 21.5688 146.953 21.6384 146.987 21.6848C147.022 21.7313 147.079 21.7545 147.16 21.7545C147.344 21.7545 147.574 21.6964 147.827 21.5688C148.092 21.4528 148.402 21.2556 148.77 20.9887C149.012 20.8147 149.253 20.6291 149.495 20.4202C149.736 20.2114 149.875 20.107 149.909 20.107C149.944 20.107 149.967 20.1186 149.978 20.1302C149.99 20.1534 150.001 20.1766 150.013 20.2114C150.013 20.281 149.783 20.5131 149.334 20.8727L149.299 20.8959C148.851 21.2556 148.425 21.5456 148.023 21.7429C147.62 21.9517 147.286 22.0561 147.033 22.0561C146.849 22.0561 146.7 22.0097 146.596 21.9053C146.493 21.8009 146.435 21.6616 146.435 21.4876C146.435 21.2556 146.504 20.9771 146.642 20.6523C146.78 20.3274 146.999 19.9446 147.298 19.5037L147.321 19.4805ZM150.231 20.9075C150.197 20.9887 150.162 21.0583 150.151 21.1396C150.128 21.2092 150.128 21.2788 150.128 21.3368C150.128 21.4644 150.174 21.5688 150.254 21.6384C150.335 21.7081 150.45 21.7429 150.599 21.7429C150.852 21.7429 151.163 21.65 151.531 21.4644C151.899 21.2788 152.29 21.0119 152.716 20.6639C152.819 20.5711 152.957 20.455 153.107 20.3042C153.268 20.1534 153.36 20.0838 153.394 20.0838C153.429 20.0838 153.452 20.0954 153.464 20.107C153.475 20.1302 153.487 20.1534 153.498 20.1882C153.498 20.2346 153.44 20.3158 153.337 20.4202C153.233 20.5363 153.038 20.6987 152.773 20.9307C152.371 21.2788 151.968 21.5456 151.565 21.7429C151.163 21.9401 150.806 22.0329 150.507 22.0329C150.22 22.0329 149.99 21.9401 149.817 21.7661C149.644 21.5804 149.552 21.3484 149.552 21.0351C149.552 20.7567 149.644 20.4782 149.817 20.2114C149.99 19.933 150.243 19.6777 150.576 19.4225C150.864 19.2136 151.14 19.0512 151.393 18.9468C151.646 18.8424 151.888 18.7844 152.095 18.7844C152.29 18.7844 152.428 18.8192 152.509 18.8772C152.589 18.9468 152.635 19.0512 152.635 19.202C152.635 19.5153 152.405 19.8401 151.945 20.1766C151.485 20.5131 150.921 20.7567 150.254 20.8843L150.231 20.9075ZM150.404 20.5479C150.944 20.4318 151.404 20.2462 151.773 20.0026C152.141 19.7473 152.325 19.5153 152.325 19.2948C152.325 19.2136 152.313 19.1672 152.279 19.1324C152.256 19.0976 152.198 19.086 152.129 19.086C151.922 19.086 151.681 19.2136 151.381 19.4573C151.082 19.7125 150.749 20.0722 150.381 20.5595L150.404 20.5479ZM156.489 20.281C156.776 19.9562 156.983 19.7009 157.11 19.5269C157.237 19.3529 157.294 19.2136 157.294 19.1324C157.294 19.1208 157.283 19.0976 157.271 19.086C157.248 19.0744 157.225 19.0628 157.202 19.0628C157.029 19.0628 156.857 19.1672 156.684 19.3645C156.512 19.5617 156.42 19.7705 156.42 19.9794C156.42 20.0142 156.431 20.049 156.443 20.107C156.454 20.165 156.477 20.2114 156.5 20.2694L156.489 20.281ZM154.453 19.4689C154.188 19.6661 153.912 19.8865 153.625 20.1302C153.337 20.3854 153.164 20.5015 153.13 20.5015C153.107 20.5015 153.084 20.4898 153.072 20.4782C153.061 20.455 153.049 20.4318 153.049 20.397C153.049 20.3274 153.199 20.1766 153.51 19.9214C153.809 19.6661 154.315 19.2716 155.005 18.7612L158.479 14.6541C158.536 14.5961 158.582 14.5497 158.617 14.5381C158.663 14.5149 158.72 14.5033 158.789 14.5033C158.916 14.5033 159.02 14.5149 159.112 14.5497C159.192 14.5845 159.238 14.6193 159.238 14.6657C159.238 14.7121 159.204 14.7701 159.146 14.8397C159.135 14.8513 159.123 14.8629 159.123 14.8745L155.281 19.3877C154.775 19.9794 154.43 20.4318 154.246 20.7219C154.062 21.0119 153.981 21.2556 153.981 21.4528C153.981 21.5108 154.004 21.5572 154.062 21.6036C154.119 21.65 154.177 21.6732 154.257 21.6732C154.464 21.6732 154.752 21.5688 155.108 21.3716C155.465 21.1744 155.856 20.8843 156.293 20.5131C156.236 20.4086 156.19 20.3274 156.167 20.2346C156.132 20.1534 156.121 20.0606 156.121 19.991C156.121 19.7009 156.236 19.4341 156.454 19.1904C156.684 18.9468 156.926 18.8192 157.214 18.8192C157.329 18.8192 157.421 18.854 157.478 18.912C157.547 18.97 157.582 19.0512 157.582 19.1556C157.582 19.2832 157.524 19.4573 157.398 19.6545C157.271 19.8517 157.052 20.1302 156.73 20.4898C156.788 20.5363 156.857 20.5711 156.926 20.5827C156.995 20.6059 157.064 20.6175 157.145 20.6175C157.444 20.6175 157.72 20.5363 157.973 20.3622C158.226 20.1882 158.352 20.107 158.364 20.107C158.398 20.107 158.421 20.1186 158.433 20.1302C158.444 20.1418 158.456 20.165 158.467 20.1998C158.467 20.3042 158.318 20.455 158.03 20.6291C157.743 20.8031 157.444 20.8959 157.121 20.8959C157.006 20.8959 156.903 20.8843 156.799 20.8611C156.696 20.8379 156.592 20.7915 156.5 20.7451C155.983 21.186 155.523 21.5108 155.12 21.7429C154.706 21.9633 154.349 22.0793 154.05 22.0793C153.878 22.0793 153.728 22.0329 153.625 21.9285C153.51 21.8241 153.464 21.6848 153.464 21.5108C153.464 21.2324 153.544 20.9307 153.705 20.6059C153.866 20.281 154.131 19.9214 154.476 19.5153L154.453 19.4689ZM161.424 19.0396C161.435 19.028 161.447 19.0164 161.481 19.0048C161.516 18.9932 161.55 18.9932 161.573 18.9816C161.688 18.9816 161.78 18.9932 161.861 19.0164C161.941 19.0396 161.987 19.0744 161.987 19.0976C161.987 19.1092 161.953 19.1672 161.872 19.2368C161.803 19.3181 161.734 19.3877 161.688 19.4573C161.539 19.6545 161.424 19.8401 161.343 20.0258C161.263 20.2114 161.228 20.3738 161.228 20.5131C161.228 20.6175 161.251 20.7103 161.309 20.7683C161.366 20.8379 161.435 20.8611 161.527 20.8611C161.631 20.8611 161.734 20.8263 161.849 20.7683C161.964 20.7103 162.114 20.6059 162.275 20.455C162.344 20.397 162.436 20.3158 162.551 20.2114C162.678 20.0954 162.758 20.0258 162.793 20.0258C162.827 20.0258 162.85 20.0374 162.862 20.0606C162.873 20.0722 162.885 20.107 162.896 20.1418C162.896 20.1766 162.873 20.223 162.827 20.281C162.781 20.339 162.689 20.4202 162.539 20.5479C162.252 20.7915 162.022 20.9539 161.849 21.0351C161.677 21.1164 161.516 21.1628 161.355 21.1628C161.148 21.1628 160.987 21.0931 160.872 20.9655C160.756 20.8379 160.699 20.6639 160.699 20.4318C160.699 20.3506 160.71 20.2578 160.733 20.1534C160.756 20.049 160.791 19.933 160.826 19.8169C160.457 20.1534 160.112 20.5014 159.79 20.8611C159.468 21.2208 159.169 21.592 158.893 21.9633C158.789 21.9749 158.686 21.9865 158.605 21.9981C158.513 22.0097 158.433 22.0097 158.364 22.0097C158.283 22.0097 158.226 21.9981 158.18 21.9865C158.134 21.9749 158.111 21.9517 158.111 21.9285C158.111 21.8705 158.226 21.7197 158.456 21.4644C158.594 21.302 158.709 21.1744 158.801 21.0815C159.25 20.5479 159.56 20.165 159.71 19.933C159.871 19.6893 159.94 19.5153 159.94 19.3993C159.94 19.3645 159.94 19.3413 159.928 19.3181C159.917 19.3065 159.905 19.2948 159.882 19.2948C159.779 19.2948 159.641 19.3413 159.468 19.4341C159.307 19.5269 159.089 19.6777 158.812 19.8865C158.732 19.9562 158.628 20.0374 158.513 20.1534C158.364 20.2926 158.272 20.3506 158.226 20.3506C158.191 20.3506 158.168 20.339 158.145 20.3158C158.122 20.2926 158.111 20.2694 158.111 20.2346C158.111 20.1998 158.157 20.1302 158.237 20.0374C158.318 19.9562 158.467 19.8169 158.686 19.6313C158.997 19.3645 159.296 19.1556 159.583 18.9932C159.871 18.8308 160.089 18.7496 160.227 18.7496C160.342 18.7496 160.434 18.7844 160.492 18.854C160.561 18.9236 160.584 19.028 160.584 19.144C160.584 19.2368 160.572 19.3413 160.538 19.4573C160.503 19.5733 160.457 19.7009 160.388 19.8517L161.366 18.9932L161.424 19.0396ZM163.92 21.0815L165.312 19.5849C165.369 19.5269 165.404 19.4689 165.438 19.4109C165.473 19.3529 165.484 19.3065 165.484 19.2484C165.484 19.2136 165.473 19.1788 165.438 19.1556C165.415 19.1324 165.369 19.1208 165.323 19.1208C165.185 19.1208 165.001 19.1788 164.783 19.2948C164.564 19.4109 164.334 19.5733 164.092 19.7705C163.713 20.0954 163.391 20.4318 163.138 20.7799C162.885 21.128 162.758 21.3832 162.758 21.5456C162.758 21.6036 162.77 21.65 162.816 21.6848C162.85 21.7197 162.896 21.7429 162.942 21.7429C163.057 21.7429 163.195 21.6848 163.368 21.5688C163.54 21.4528 163.724 21.2904 163.908 21.0931L163.92 21.0815ZM163.966 21.3368C163.724 21.5804 163.506 21.7545 163.299 21.8705C163.092 21.9865 162.908 22.0561 162.747 22.0561C162.574 22.0561 162.447 21.9981 162.355 21.8705C162.263 21.7429 162.217 21.5688 162.217 21.3368C162.217 21.0583 162.286 20.8031 162.413 20.5595C162.539 20.3158 162.747 20.0722 163.011 19.8285C163.356 19.5153 163.736 19.2716 164.127 19.086C164.53 18.9004 164.875 18.8076 165.185 18.8076C165.358 18.8076 165.484 18.8424 165.565 18.9004C165.645 18.97 165.691 19.0744 165.703 19.2252C165.76 19.1556 165.829 19.0976 165.898 19.028C165.967 18.97 166.059 18.9004 166.151 18.8424C166.186 18.8424 166.232 18.8424 166.289 18.8308C166.347 18.8308 166.393 18.8192 166.416 18.8192C166.554 18.8192 166.658 18.8308 166.715 18.854C166.773 18.8772 166.807 18.912 166.807 18.97C166.807 19.0164 166.715 19.1208 166.531 19.2948C166.428 19.3877 166.347 19.4573 166.289 19.5037C165.749 20.0142 165.323 20.4666 165.024 20.8263C164.714 21.186 164.564 21.4412 164.564 21.5688C164.564 21.6268 164.576 21.6616 164.599 21.6732C164.622 21.6964 164.668 21.708 164.725 21.708C164.898 21.708 165.162 21.6268 165.507 21.4528C165.852 21.2788 166.22 21.0467 166.612 20.7451C166.773 20.6291 166.945 20.4782 167.129 20.3158C167.313 20.1534 167.428 20.0722 167.463 20.0722C167.497 20.0722 167.52 20.0838 167.532 20.107C167.555 20.1302 167.555 20.1534 167.555 20.1882C167.555 20.2578 167.325 20.4782 166.876 20.8495L166.842 20.8727C166.393 21.2324 165.967 21.5224 165.553 21.7197C165.139 21.9285 164.806 22.0329 164.553 22.0329C164.368 22.0329 164.219 21.9749 164.104 21.8821C163.989 21.7777 163.943 21.6384 163.943 21.4644C163.943 21.4296 163.943 21.3948 163.943 21.3832C163.943 21.36 163.954 21.3484 163.954 21.3252L163.966 21.3368ZM168.556 19.4805C168.303 19.6661 168.038 19.8865 167.739 20.1418C167.451 20.3854 167.279 20.5131 167.233 20.5131C167.21 20.5131 167.198 20.5015 167.175 20.4898C167.164 20.4666 167.152 20.4434 167.152 20.4086C167.152 20.3158 167.647 19.8865 168.625 19.1324L169.096 18.7612L169.625 18.1695H168.567L168.763 17.9606H169.844L170.971 16.5452C171.017 16.4872 171.063 16.4524 171.109 16.4292C171.155 16.406 171.224 16.3944 171.293 16.3944C171.431 16.3944 171.535 16.4176 171.615 16.4524C171.696 16.4872 171.742 16.5336 171.742 16.5916C171.742 16.6264 171.742 16.6496 171.73 16.6728C171.719 16.696 171.707 16.7192 171.684 16.754L170.649 17.9722H171.88L171.684 18.1811H170.5L169.085 19.8169C168.751 20.1998 168.51 20.5247 168.349 20.7915C168.188 21.0583 168.107 21.2788 168.107 21.4528C168.107 21.5456 168.118 21.6152 168.165 21.6616C168.199 21.7081 168.257 21.7313 168.326 21.7313C168.521 21.7313 168.797 21.65 169.131 21.476C169.464 21.302 169.832 21.0583 170.247 20.7451C170.396 20.6291 170.557 20.5015 170.73 20.339C170.902 20.1766 171.006 20.107 171.052 20.107C171.086 20.107 171.109 20.1186 171.121 20.1418C171.144 20.165 171.144 20.1882 171.144 20.223C171.144 20.2694 171.098 20.339 171.017 20.4318C170.937 20.5131 170.73 20.6987 170.396 20.9539C169.948 21.3136 169.533 21.592 169.142 21.7893C168.751 21.9865 168.429 22.0793 168.153 22.0793C167.969 22.0793 167.819 22.0329 167.716 21.9285C167.612 21.8241 167.555 21.6848 167.555 21.5108C167.555 21.244 167.635 20.9539 167.785 20.6291C167.946 20.3158 168.199 19.9446 168.544 19.5153L168.556 19.4805Z" fill="#4D4D4D"/>
<path d="M171.351 20.8959C171.316 20.9771 171.282 21.0467 171.27 21.128C171.247 21.1976 171.247 21.2672 171.247 21.3252C171.247 21.4528 171.293 21.5572 171.374 21.6268C171.454 21.6964 171.569 21.7313 171.719 21.7313C171.972 21.7313 172.283 21.6384 172.651 21.4528C173.019 21.2672 173.41 21.0003 173.835 20.6523C173.939 20.5595 174.077 20.4434 174.227 20.2926C174.388 20.1418 174.48 20.0722 174.514 20.0722C174.549 20.0722 174.572 20.0838 174.583 20.0954C174.595 20.1186 174.606 20.1418 174.618 20.1766C174.618 20.223 174.56 20.3042 174.457 20.4086C174.353 20.5247 174.158 20.6871 173.893 20.9191C173.49 21.2672 173.088 21.534 172.685 21.7313C172.283 21.9285 171.926 22.0213 171.627 22.0213C171.339 22.0213 171.109 21.9285 170.937 21.7545C170.764 21.5688 170.672 21.3368 170.672 21.0235C170.672 20.7451 170.764 20.4666 170.937 20.1998C171.109 19.9214 171.362 19.6661 171.696 19.4109C171.983 19.202 172.26 19.0396 172.513 18.9352C172.766 18.8308 173.007 18.7728 173.214 18.7728C173.41 18.7728 173.548 18.8076 173.628 18.8656C173.709 18.9352 173.755 19.0396 173.755 19.1904C173.755 19.5037 173.525 19.8285 173.065 20.165C172.605 20.5014 172.041 20.7451 171.374 20.8727L171.351 20.8959ZM171.523 20.5363C172.064 20.4202 172.524 20.2346 172.892 19.991C173.26 19.7357 173.444 19.5037 173.444 19.2832C173.444 19.202 173.433 19.1556 173.398 19.1208C173.375 19.086 173.318 19.0744 173.249 19.0744C173.042 19.0744 172.8 19.202 172.501 19.4457C172.202 19.7009 171.868 20.0606 171.5 20.5479L171.523 20.5363ZM179.518 21.7777C180.231 21.7777 181.002 21.4064 181.842 20.6639C182.67 19.9214 183.705 18.6915 184.913 16.9513C185.615 15.9419 186.19 15.1762 186.65 14.6425C187.11 14.1088 187.421 13.8535 187.582 13.8535C187.616 13.8535 187.639 13.8651 187.651 13.8767C187.662 13.8883 187.674 13.9116 187.674 13.9464C187.674 13.958 187.524 14.1668 187.225 14.5845C186.926 14.9905 186.627 15.443 186.339 15.9187C186.259 16.0579 186.132 16.2667 185.971 16.5336C184.752 18.5871 183.728 19.9794 182.877 20.7219C182.359 21.1744 181.83 21.5224 181.278 21.7545C180.737 21.9865 180.197 22.1025 179.656 22.1025C179.069 22.1025 178.609 21.9749 178.264 21.708C177.919 21.4412 177.747 21.0931 177.747 20.6639C177.747 20.4202 177.816 20.2114 177.954 20.049C178.092 19.8865 178.276 19.8169 178.494 19.8169C178.655 19.8169 178.782 19.8633 178.885 19.9678C178.989 20.0606 179.035 20.1998 179.035 20.3506C179.035 20.5014 178.989 20.6175 178.885 20.7103C178.782 20.7915 178.655 20.8379 178.494 20.8379C178.471 20.8379 178.414 20.8263 178.356 20.8147C178.287 20.8031 178.241 20.7915 178.207 20.7915C178.172 20.7915 178.161 20.8031 178.149 20.8263C178.138 20.8379 178.138 20.8727 178.126 20.9075C178.126 21.1396 178.264 21.3368 178.529 21.5108C178.805 21.6848 179.127 21.7777 179.518 21.7777ZM184.948 14.5033C184.948 14.6193 184.89 14.7933 184.775 15.0485C184.66 15.2922 184.522 15.5474 184.349 15.7795C183.97 16.3015 183.556 16.696 183.084 16.9745C182.624 17.2529 182.141 17.3805 181.635 17.3805C181.163 17.3805 180.783 17.2413 180.496 16.9513C180.208 16.6728 180.07 16.2899 180.07 15.8143C180.07 14.9441 180.484 14.2364 181.313 13.6911C182.141 13.1458 183.234 12.8674 184.579 12.8674C185.201 12.8674 186.132 12.9602 187.386 13.1574L187.467 13.169C187.616 13.1922 187.812 13.227 188.076 13.2618C189.112 13.4243 189.767 13.5055 190.032 13.5055C190.331 13.5055 190.642 13.4591 190.964 13.3663C191.033 13.3547 191.067 13.3431 191.09 13.3431C191.125 13.3431 191.159 13.3547 191.182 13.3779C191.205 13.4011 191.217 13.4243 191.217 13.4475C191.217 13.5635 191.067 13.6795 190.78 13.7955C190.492 13.9116 190.147 13.9696 189.767 13.9696C189.595 13.9696 189.422 13.958 189.25 13.9348C189.066 13.9116 188.893 13.8883 188.721 13.8419C188.629 13.8187 188.49 13.7839 188.306 13.7375C186.719 13.3431 185.546 13.1458 184.775 13.1458C184.177 13.1458 183.636 13.2154 183.153 13.3663C182.67 13.5055 182.244 13.7259 181.865 14.016C181.393 14.3872 181.036 14.7237 180.806 15.0485C180.576 15.3734 180.45 15.6866 180.45 15.9767C180.45 16.2899 180.565 16.5452 180.795 16.7424C181.025 16.9397 181.324 17.0441 181.681 17.0441C182.152 17.0441 182.601 16.8932 183.05 16.5916C183.487 16.2899 183.901 15.8491 184.28 15.269C184.384 15.1182 184.476 14.9209 184.579 14.7005C184.683 14.4684 184.752 14.364 184.809 14.364C184.844 14.364 184.878 14.3756 184.89 14.3988C184.913 14.422 184.925 14.4568 184.925 14.4916L184.948 14.5033ZM186.006 21.9981C185.971 22.0097 185.914 22.0213 185.868 22.0213C185.81 22.0329 185.718 22.0329 185.58 22.0329C185.442 22.0329 185.339 22.0213 185.293 22.0097C185.247 21.9981 185.224 21.9749 185.224 21.9401C185.224 21.8937 185.477 21.6152 185.971 21.0699C186.466 20.5363 186.938 19.991 187.386 19.4457C187.122 19.6429 186.846 19.8633 186.558 20.1186C186.259 20.3738 186.086 20.5014 186.04 20.5014C186.017 20.5014 185.994 20.4898 185.983 20.4782C185.971 20.455 185.96 20.4318 185.96 20.397C185.96 20.3158 186.144 20.1302 186.512 19.8285C186.88 19.5269 187.375 19.1556 187.996 18.7147L191.412 14.6541C191.47 14.5961 191.516 14.5497 191.55 14.5381C191.585 14.5149 191.642 14.5033 191.711 14.5033C191.826 14.5033 191.93 14.5149 191.999 14.5497C192.079 14.5845 192.114 14.6193 192.114 14.6657C192.114 14.7121 192.091 14.7701 192.033 14.8281C192.022 14.8397 192.01 14.8513 191.999 14.8629L187.927 19.7009C188.341 19.3877 188.686 19.1672 188.962 19.0164C189.25 18.8772 189.48 18.796 189.664 18.796C189.802 18.796 189.905 18.8308 189.974 18.912C190.043 18.9932 190.089 19.0976 190.089 19.2252C190.089 19.3761 190.043 19.5269 189.94 19.6777C189.836 19.8285 189.629 20.0606 189.319 20.3738C189.227 20.455 189.112 20.5711 188.951 20.7103C188.456 21.1744 188.214 21.4528 188.214 21.5456C188.214 21.592 188.237 21.6268 188.272 21.65C188.306 21.6732 188.352 21.6964 188.421 21.6964C188.594 21.6964 188.859 21.6152 189.192 21.4412C189.537 21.2672 189.894 21.0351 190.285 20.7335C190.446 20.6175 190.63 20.4666 190.814 20.3042C190.998 20.1418 191.113 20.0606 191.148 20.0606C191.171 20.0606 191.205 20.0722 191.217 20.0954C191.24 20.1186 191.24 20.1418 191.24 20.1766C191.24 20.2462 191.01 20.4782 190.561 20.8379L190.538 20.8611C190.101 21.2092 189.675 21.4876 189.261 21.708C188.847 21.9169 188.537 22.0213 188.318 22.0213C188.134 22.0213 187.984 21.9749 187.881 21.8705C187.766 21.7661 187.708 21.6384 187.708 21.476C187.708 21.2788 187.777 21.0699 187.927 20.8379C188.076 20.6059 188.283 20.3738 188.56 20.1302C188.652 20.049 188.767 19.9446 188.928 19.8169C189.296 19.5037 189.491 19.3181 189.491 19.26C189.491 19.2368 189.48 19.202 189.445 19.1904C189.422 19.1672 189.388 19.1556 189.342 19.1556C189.089 19.1556 188.629 19.4225 187.961 19.9562C187.294 20.4898 186.638 21.1628 185.994 21.9749L186.006 21.9981ZM191.447 20.9075C191.412 20.9887 191.378 21.0583 191.366 21.1396C191.343 21.2092 191.343 21.2788 191.343 21.3368C191.343 21.4644 191.389 21.5688 191.47 21.6384C191.55 21.708 191.665 21.7429 191.815 21.7429C192.068 21.7429 192.379 21.65 192.747 21.4644C193.115 21.2788 193.506 21.0119 193.931 20.6639C194.035 20.5711 194.173 20.455 194.323 20.3042C194.484 20.1534 194.576 20.0838 194.61 20.0838C194.645 20.0838 194.668 20.0954 194.679 20.107C194.691 20.1302 194.702 20.1534 194.714 20.1882C194.714 20.2346 194.656 20.3158 194.553 20.4202C194.449 20.5363 194.254 20.6987 193.989 20.9307C193.586 21.2788 193.184 21.5456 192.781 21.7429C192.379 21.9401 192.022 22.0329 191.723 22.0329C191.435 22.0329 191.205 21.9401 191.033 21.7661C190.86 21.5804 190.768 21.3484 190.768 21.0351C190.768 20.7567 190.86 20.4782 191.033 20.2114C191.205 19.933 191.458 19.6777 191.792 19.4225C192.079 19.2136 192.356 19.0512 192.609 18.9468C192.862 18.8424 193.103 18.7844 193.31 18.7844C193.506 18.7844 193.644 18.8192 193.724 18.8772C193.805 18.9468 193.851 19.0512 193.851 19.202C193.851 19.5153 193.621 19.8401 193.161 20.1766C192.701 20.513 192.137 20.7567 191.47 20.8843L191.447 20.9075ZM191.619 20.5479C192.16 20.4318 192.62 20.2462 192.988 20.0026C193.356 19.7473 193.54 19.5153 193.54 19.2948C193.54 19.2136 193.529 19.1672 193.494 19.1324C193.471 19.0976 193.414 19.086 193.345 19.086C193.138 19.086 192.896 19.2136 192.597 19.4573C192.298 19.7125 191.964 20.0722 191.596 20.5595L191.619 20.5479Z" fill="#4D4D4D"/>
<path d="M66.7985 40.8396C68.6917 40.8396 70.2265 39.2917 70.2265 37.3823C70.2265 35.4728 68.6917 33.9249 66.7985 33.9249C64.9053 33.9249 63.3706 35.4728 63.3706 37.3823C63.3706 39.2917 64.9053 40.8396 66.7985 40.8396Z" fill="#666666"/>
<path fill-rule="evenodd" clip-rule="evenodd" d="M68.4094 61.5607C49.2336 68.5102 54.5366 85.8899 43.0565 88.6628C38.5127 90.3915 33.7159 89.4517 28.5625 84.5673L32.7496 82.9198C36.1431 86.0523 39.571 87.9899 43.0565 87.8971C46.0128 85.2866 47.9913 78.4763 50.1539 74.5896C53.2482 69.0323 57.3319 64.6236 68.4209 61.5607H68.4094Z" fill="#FFCC00"/>
<path fill-rule="evenodd" clip-rule="evenodd" d="M83.5475 60.9226C88.0107 59.9944 92.3129 54.5531 91.2546 49.1698L89.1265 50.1328C89.4601 54.4255 87.7116 58.3469 83.5475 60.9342C81.1433 61.3518 79.1993 61.0734 77.7269 60.4005C79.2913 55.8641 78.7277 51.757 75.7599 53.0449L75.0582 53.741C75.2537 53.4857 75.4838 53.2537 75.7599 53.0449L73.3557 53.8106C71.9293 55.4117 71.8833 57.4188 72.9071 59.0198C73.5858 60.0872 74.9201 61.027 76.5536 61.5491L75.4493 61.2242C73.8733 64.496 71.0091 67.002 67.0635 68.8467C71.1126 67.6981 74.3335 65.3081 76.9907 61.6767H76.9792C78.9692 62.1988 81.3504 62.1176 83.559 60.9458L83.5475 60.9226ZM77.7154 60.3889C77.0712 60.0988 76.5191 59.7276 76.0589 59.3099L77.7154 60.3889ZM76.0589 59.3099C74.2529 57.6624 73.8733 55.284 75.0467 53.7294C76.289 53.857 76.4155 56.1194 76.0589 59.3099Z" fill="#33CC33"/>
<path fill-rule="evenodd" clip-rule="evenodd" d="M231.639 85.1358C243.464 88.3379 241.14 99.0001 248.146 100.091C250.952 100.903 253.771 100.091 256.623 96.9117L254.035 96.1344C252.16 98.1764 250.205 99.5106 248.111 99.6266C246.213 98.2112 244.695 94.2317 243.211 92.0157C241.083 88.8368 238.426 86.4004 231.639 85.1242V85.1358Z" fill="#33CC33"/>
<path fill-rule="evenodd" clip-rule="evenodd" d="M195.185 92.6306C199.119 93.4428 202.915 98.246 201.984 102.991L200.109 102.144C200.408 98.362 198.855 94.9046 195.185 92.6306C193.069 92.2594 191.355 92.503 190.055 93.1063C191.435 97.109 190.941 100.729 188.318 99.5918L187.697 98.9885C187.869 99.2089 188.076 99.4178 188.318 99.5918L186.19 98.9189C184.924 97.5035 184.89 95.74 185.787 94.3245C186.385 93.3848 187.559 92.5494 189.008 92.0969L188.03 92.387C186.638 89.4981 184.119 87.2937 180.634 85.6695C184.2 86.6788 187.041 88.7904 189.388 91.9925H189.376C191.125 91.5285 193.23 91.5981 195.174 92.6422L195.185 92.6306ZM190.043 93.1063C189.48 93.3616 188.997 93.6864 188.594 94.0577L190.043 93.1063ZM188.582 94.0577C186.995 95.5079 186.661 97.6079 187.685 98.9769C188.778 98.8609 188.893 96.8769 188.582 94.0577Z" fill="#FF6600"/>
<path fill-rule="evenodd" clip-rule="evenodd" d="M244.269 0.0356445H344.289C351.248 0.0356445 356.954 5.7786 356.954 12.8094V101.228C356.954 108.804 350.811 115.011 343.288 115.011H297.138C264.296 97.3178 241.946 62.4192 241.946 22.2417C241.946 14.6309 242.751 7.20564 244.269 0.0472465V0.0356445Z" fill="#FFFF00"/>
<path fill-rule="evenodd" clip-rule="evenodd" d="M254.691 0.035645H342.184C352.019 -0.590859 357.644 6.74156 356.954 14.6077V102.782C356.482 109.314 351.651 114.477 344.565 114.999H301.509C271.072 98.6056 250.354 66.2479 250.354 29.0057C250.354 18.9236 251.873 9.18957 254.691 0.035645Z" fill="#FFCC00"/>
<path fill-rule="evenodd" clip-rule="evenodd" d="M208.529 32.7415C197.394 36.7674 200.477 46.861 193.816 48.4737C191.182 49.4831 188.398 48.9262 185.396 46.0953L187.823 45.1439C189.79 46.9654 191.78 48.0908 193.805 48.0328C195.519 46.5246 196.669 42.5683 197.923 40.3059C199.717 37.0806 202.087 34.5166 208.517 32.7415H208.529Z" fill="#FFCC00"/>
</svg>
