<svg width="23" height="29" viewBox="0 0 23 29" fill="none" xmlns="http://www.w3.org/2000/svg">
<g clip-path="url(#clip0_8_246)">
<path fill-rule="evenodd" clip-rule="evenodd" d="M8.13439 21.1833C8.13439 22.6731 8.32194 22.121 8.47107 22.7689C7.71186 23.9142 8.43379 24.3077 8.47107 24.6385C8.47559 24.6808 8.13439 25.2557 8.13439 25.6013C8.13439 26.4409 8.83486 27.074 9.59294 27.074C10.003 27.074 10.2234 26.6268 9.9748 26.2937C9.72173 25.9549 9.14441 26.15 9.14441 25.6013C9.14441 24.4309 12.005 25.8933 12.005 24.6385C12.005 23.9952 11.0741 24.1286 10.6583 24.1286C10.3578 24.1286 10.0584 24.1286 9.75788 24.1321C9.41782 24.1355 9.14328 24.0636 9.14328 23.6758C9.14328 22.5681 12.0039 23.8822 12.0039 22.713C12.0039 22.4746 11.8107 22.2932 11.5802 22.2339C11.0729 22.1027 9.14328 22.4803 9.14328 21.8632V21.2962C9.61666 21.2962 11.4424 21.4046 11.7813 21.1845C12.1756 20.9266 11.9598 20.3688 11.5441 20.289C10.751 20.1384 9.3184 20.4236 8.53772 20.2662C7.97961 20.1532 8.24172 19.1905 8.15925 18.6098C8.09711 18.1787 8.10841 18.0999 7.97623 17.7748C7.8881 17.5592 7.73897 17.3014 7.58871 17.1463C6.6928 16.2189 6.42617 16.163 5.71102 14.9641C3.31477 10.9533 5.89179 4.87103 11.6683 4.87103C12.6727 4.87103 13.6059 5.18017 14.3041 5.49501C15.3785 5.97867 16.2586 6.81254 16.95 7.75135C17.1975 8.08786 17.3658 8.37874 17.542 8.79625C17.6358 9.01641 17.7002 9.12363 17.7759 9.35292C18.4086 11.2819 18.2798 12.9713 17.3907 14.7839C17.1534 15.2687 16.7772 15.6976 16.4608 16.1105C15.5525 17.2923 14.7899 16.941 14.8102 19.4859C14.8136 19.8487 14.8746 20.054 14.625 20.2046C14.4329 20.3209 14.0804 20.2787 13.8002 20.2776C13.1845 20.2764 12.4535 20.1635 12.4535 20.7875C12.4535 21.4571 13.4071 21.2974 13.8556 21.2974C13.8556 21.6031 13.9539 22.0309 13.5957 22.1677C13.1992 22.3195 12.4535 22.0309 12.4535 22.713C12.4535 23.6609 13.8556 22.7278 13.8556 23.7887C13.8556 24.4834 12.4535 23.6963 12.4535 24.7515C12.4535 25.1119 12.919 25.1484 13.1834 25.1473C14.0341 25.145 13.9765 25.8352 13.6432 26.0085C13.093 26.296 10.5465 25.5831 10.5465 26.5629C10.5465 26.7603 10.647 26.9747 10.8526 27.0466C11.152 27.1516 12.4806 27.0728 12.8467 27.0728C12.6761 27.3991 12.5801 27.577 12.2626 27.7858C11.9609 27.9843 11.6152 28.0493 11.2266 27.9751C10.6504 27.8656 10.342 27.2497 9.92057 27.3979C8.94783 27.7413 10.2053 28.9984 11.5565 28.9984C12.5066 28.9984 13.276 28.3733 13.6149 27.7345C13.7494 27.4789 13.7245 27.4128 13.8228 27.1516C13.9234 26.8835 14.0838 26.9428 14.2905 26.774C15.487 25.7987 14.5086 24.8313 14.5301 24.6363C14.5606 24.3614 15.0938 24.0477 14.7639 23.1533C14.6702 22.899 14.6509 22.9491 14.5301 22.7666C14.6803 22.113 14.8667 22.6731 14.8667 21.181C15.2701 20.986 15.609 20.7304 15.7547 20.265C15.9095 19.7722 15.7344 19.0479 15.8508 18.4935C15.9807 17.8729 16.201 17.7703 16.5625 17.3995C16.7343 17.2239 16.8936 17.1452 17.0314 16.9661C17.202 16.7448 17.3217 16.6615 17.4799 16.4562C18.0007 15.7809 18.4775 14.9755 18.7735 14.0801C19.4118 12.1454 19.2322 9.86624 18.2888 8.03881C17.7307 6.95855 16.9071 6.07791 15.9717 5.33759C15.8621 5.25089 15.8124 5.23378 15.6971 5.16192C13.4048 3.73031 11.0436 3.42232 8.47898 4.47863C8.08468 4.64061 7.67345 4.8756 7.31644 5.11629C6.1957 5.87258 5.37661 6.79885 4.69535 8.02056C4.33382 8.67077 3.9271 9.93468 3.87175 10.8712C3.83898 11.421 3.80622 11.9378 3.89434 12.5481C3.97682 13.123 4.05929 13.5873 4.24005 14.0686C4.75975 15.4558 5.08174 15.8368 5.94602 16.9341C6.07481 17.0973 6.24202 17.1999 6.41035 17.3722C6.75607 17.7246 7.04642 17.8923 7.15262 18.4924C7.37292 19.7335 6.76623 20.5183 8.13552 21.1822L8.13439 21.1833ZM1.45854 6.0608C1.45854 6.51937 3.46051 7.47643 3.59043 7.47643C3.85819 7.47643 4.09544 7.42624 4.09544 6.96653C4.09544 6.67109 3.92033 6.61063 3.72149 6.49428C3.37577 6.29351 2.22227 5.54976 1.96355 5.54976C1.68111 5.54976 1.45854 5.79616 1.45854 6.05966V6.0608ZM5.49749 1.9257C5.49749 2.22342 6.22733 3.3881 6.41713 3.71548C6.89842 4.54593 7.52996 3.98698 7.43054 3.54666L6.60807 2.05004C6.45894 1.79794 6.37985 1.47283 6.00138 1.47283C5.75169 1.47283 5.49637 1.70212 5.49637 1.9257H5.49749ZM1.45854 17.1052C1.45854 17.5273 1.84606 17.6722 1.90706 17.6722C2.18612 17.6722 3.35657 16.9204 3.67065 16.7345C4.49312 16.2486 3.95083 15.6896 3.64579 15.6896C3.44243 15.6896 1.71952 16.6889 1.61558 16.8121C1.58508 16.8486 1.45854 17.0744 1.45854 17.1064V17.1052ZM18.9046 6.96653C18.9046 7.40571 19.2085 7.55058 19.4819 7.49126C19.6683 7.45134 20.641 6.83649 20.9235 6.68363C21.0444 6.61861 21.1585 6.55701 21.2703 6.46804C21.8601 5.99806 21.346 5.5509 21.0353 5.5509C20.7811 5.5509 19.6525 6.27526 19.3135 6.47488C19.1068 6.59694 18.9034 6.65626 18.9034 6.96767L18.9046 6.96653ZM18.9046 16.0854C18.9046 16.5794 19.1802 16.6786 19.8581 17.0482C20.0434 17.1497 20.2388 17.2604 20.4298 17.3767C20.5642 17.4589 20.8681 17.671 21.0353 17.671C21.372 17.671 21.9188 17.0973 21.1517 16.6467C20.8692 16.4813 19.5474 15.6885 19.4084 15.6885C19.1768 15.6885 18.9034 15.879 18.9034 16.0854H18.9046ZM16.044 4.13413C16.3275 4.13413 16.4462 3.94135 16.5614 3.74971C16.7512 3.43487 17.5025 2.20631 17.5025 1.92456C17.5025 1.70098 17.2483 1.47169 16.9975 1.47169C16.5727 1.47169 16.314 2.19034 15.9852 2.77211C15.8745 2.96831 15.6508 3.27175 15.5819 3.50331C15.4915 3.80788 15.6858 4.13413 16.044 4.13413ZM0 11.6104C0 12.3268 1.31393 12.1203 2.24374 12.1203C3.12722 12.1203 3.02215 11.1005 2.41207 11.1005H0.50501C0.228215 11.1005 0 11.3298 0 11.6104ZM20.7563 12.1203C21.6861 12.1203 23 12.3268 23 11.6104C23 11.3309 22.7729 11.1005 22.495 11.1005H20.5879C19.9778 11.1005 19.8728 12.1203 20.7563 12.1203ZM10.995 0.621856C10.995 1.27207 10.821 2.88732 11.3882 2.88732C11.6537 2.88732 12.005 2.88162 12.005 2.26449C12.005 1.61428 12.179 -0.000976562 11.6118 -0.000976562H11.5994C11.3351 -0.000976562 10.995 0.0138528 10.995 0.621856ZM13.5754 12.5732H12.9585C12.9585 11.8579 12.7868 10.6476 13.9121 10.6476C15.0046 10.6476 15.365 12.5732 13.5754 12.5732ZM8.18975 11.6674C8.18975 10.229 10.0415 10.4092 10.0415 11.6104V12.5732C9.55678 12.5732 8.93202 12.6211 8.5558 12.3735C8.34679 12.2355 8.18975 11.9914 8.18975 11.6663V11.6674ZM7.17973 11.5545C7.17973 12.6964 8.10163 13.5371 8.91846 13.5371H10.0403V18.8049C10.0403 19.1277 10.2945 19.3787 10.586 19.3468C10.9012 19.3114 11.0492 19.0365 11.0492 18.692V13.5382H11.9463V18.692C11.9463 19.608 12.9563 19.4905 12.9563 18.8049V13.5371C13.8624 13.5371 14.6227 13.6683 15.287 12.945C16.5569 11.5613 15.3593 9.50349 13.772 9.65863C13.2489 9.70996 12.7755 9.92784 12.4501 10.3066C11.8773 10.9739 11.9463 11.6754 11.9463 12.5732H11.0492C11.0492 11.6857 11.1204 11.0206 10.5702 10.3374C9.50029 9.00956 7.1786 9.75901 7.1786 11.5534L7.17973 11.5545Z" fill="#F811A9"/>
</g>
<defs>
<clipPath id="clip0_8_246">
<rect width="23" height="29" fill="white"/>
</clipPath>
</defs>
</svg>
