<svg width="18" height="18" viewBox="0 0 18 18" fill="none" xmlns="http://www.w3.org/2000/svg">
<g clip-path="url(#clip0_8_662)">
<path fill-rule="evenodd" clip-rule="evenodd" d="M0.843702 8.99989C0.843702 8.48174 0.940587 7.66311 1.06137 7.17849C1.44597 5.63511 2.12032 4.36591 3.24316 3.24308C3.95625 2.52999 5.04066 1.76546 5.99831 1.42792C8.2301 0.641259 10.1242 0.618536 12.35 1.57182C12.5971 1.67762 12.7907 1.79632 13.0199 1.92146C13.6585 2.27019 14.2465 2.73281 14.7568 3.24308C15.6313 4.11751 16.318 5.19717 16.7126 6.38492C17.555 8.92045 17.163 11.4416 15.6871 13.6479C15.2037 14.3705 14.3705 15.2036 13.648 15.687C13.294 15.9238 12.743 16.2598 12.35 16.4281C11.8389 16.647 11.39 16.7969 10.8214 16.9386C9.99395 17.1448 8.91077 17.2116 8.04877 17.0879C5.73936 16.7568 3.62991 15.6166 2.31299 13.6479C2.01673 13.2051 1.61455 12.5308 1.42807 12.0016C1.07094 10.9884 0.843832 10.1025 0.843832 8.99989H0.843702ZM4.6054 6.60929C4.77553 6.69934 5.50379 7.30317 5.67529 7.43782C6.04727 7.73004 6.38969 8.00148 6.75457 8.29214L8.35902 9.57045C9.09216 10.1703 9.02503 10.0769 10.149 9.16455C10.4071 8.95509 13.2246 6.69908 13.3945 6.60923V11.285C13.3946 11.4872 13.4624 11.8475 13.2538 11.8475H4.74604C4.54191 11.8475 4.60507 11.518 4.6054 11.3202V6.60923V6.60929ZM5.44916 6.15228H12.5507L10.7883 7.55391C10.402 7.86169 9.33288 8.74186 8.99997 8.96479L5.56454 6.24786C5.51935 6.21296 5.48517 6.18353 5.44923 6.15228H5.44916ZM3.72647 6.3984V11.6015C3.72647 11.7707 3.75844 11.9492 3.80962 12.0809C3.97617 12.5092 4.40284 12.7265 4.85145 12.7265H13.1484C13.8195 12.7265 14.2733 12.2727 14.2733 11.6015V6.3984C14.2733 6.22924 14.2414 6.05071 14.1902 5.91905C14.0981 5.68231 13.8644 5.44863 13.6277 5.35656C13.496 5.30539 13.3175 5.27342 13.1484 5.27342H4.85145C4.17879 5.27342 3.72647 5.72314 3.72647 6.3984ZM8.71609 -1.42161e-05H9.33692C9.97448 0.0215374 10.6103 0.109371 11.2294 0.266613C12.0309 0.470214 12.8557 0.8125 13.5421 1.22341C14.1977 1.61603 14.548 1.87979 15.0903 2.38218C15.5794 2.83529 15.6931 2.95008 16.1415 3.51068C17.2918 4.9491 17.9365 6.81843 17.9999 8.71653V9.33729C17.9784 9.97472 17.8906 10.6105 17.7333 11.2293C17.4455 12.3619 17.1162 12.9645 16.5606 13.8886C16.2992 14.3234 15.9589 14.7219 15.6177 15.0902C15.1081 15.6404 14.7768 15.9332 14.1829 16.3624C13.8348 16.6139 13.2015 16.9978 12.807 17.1662C12.2701 17.3955 11.8226 17.5848 11.2012 17.7401C10.1987 17.9907 9.72367 17.9996 8.73126 17.9999H8.6836C6.96246 17.9999 4.80001 17.201 3.47234 16.1096C2.69675 15.472 2.2303 15.0011 1.63746 14.1827C1.38685 13.8368 1.00114 13.1992 0.83361 12.8068C0.159456 11.2277 0 10.4344 0 8.68339C0 7.44485 0.43305 5.99992 0.843246 5.16722C1.08982 4.66665 1.34434 4.23276 1.65211 3.79639C1.73279 3.68199 1.79718 3.58536 1.89029 3.47207C2.44353 2.79909 2.82619 2.40569 3.51076 1.85818C4.94944 0.707672 6.81831 0.063143 8.71615 -0.000274658L8.71609 -1.42161e-05Z" fill="#797575"/>
</g>
<defs>
<clipPath id="clip0_8_662">
<rect width="18" height="18" fill="white"/>
</clipPath>
</defs>
</svg>
