<svg width="23" height="23" viewBox="0 0 23 23" fill="none" xmlns="http://www.w3.org/2000/svg">
<g clip-path="url(#clip0_8_668)">
<path fill-rule="evenodd" clip-rule="evenodd" d="M5.79478 9.52315C5.79478 9.88859 6.18371 10.5995 6.34206 10.8622C6.90936 11.8019 7.1582 12.1543 7.91866 13.0592L9.55529 14.7463L10.87 15.8122C11.4999 16.2864 11.9332 16.5457 12.6223 16.8902C13.0208 17.0886 13.4446 17.3479 13.9719 16.9824C14.4643 16.6405 15.8608 14.8246 16.4403 14.8246C17.0433 14.8246 17.1912 15.1483 17.6645 15.6216L19.5065 17.4636C20.0468 18.0039 20.7081 18.5417 19.8658 19.3735L18.7051 20.549C17.1407 22.5745 14.7523 21.446 12.8077 20.6586C11.8401 20.267 10.0008 19.115 9.14983 18.4764L8.19361 17.7255C8.07789 17.6341 7.9874 17.5576 7.87341 17.4619C7.42967 17.0895 6.45343 16.1071 6.09583 15.7356L5.04389 14.4966C4.6889 14.0589 4.36262 13.6152 4.04155 13.1627C2.77123 11.3738 1.34602 8.60695 1.34602 6.33427C1.34602 5.02043 2.38056 4.28955 3.35592 3.31331C4.561 2.10823 4.78635 2.65465 6.20807 4.07725C6.54914 4.41832 7.60891 5.44329 7.83339 5.73129C8.51815 6.60922 8.02046 6.91462 7.24086 7.69422L6.02622 8.90539C5.8931 9.06635 5.79217 9.24385 5.79217 9.52489L5.79478 9.52315ZM18.0587 11.0954C18.4719 11.0954 18.8226 10.9275 18.8226 10.4663C18.8226 9.76156 18.3127 8.57214 18.0595 8.08489C17.4035 6.825 16.1862 5.5712 14.915 4.94038C14.2242 4.59756 13.2723 4.17731 12.444 4.17731C12.1194 4.17731 11.6844 4.65847 11.9767 5.18401C12.3274 5.81482 13.2706 5.10135 15.6207 7.06601L16.0313 7.50889C16.1088 7.6046 16.1619 7.64027 16.2445 7.74555C16.7318 8.36767 17.1868 9.23254 17.3869 10.0174C17.4679 10.3341 17.5322 11.0963 18.0595 11.0963L18.0587 11.0954ZM12.0838 0.538587C12.0838 0.790913 12.0629 0.971892 12.3065 1.1694C12.4248 1.26598 12.578 1.30862 12.7607 1.34429C15.0612 1.79761 16.9563 2.78342 18.6085 4.43573C18.7182 4.54536 18.8252 4.63759 18.9183 4.75505C19.034 4.89949 19.0993 4.95517 19.2133 5.08917C19.5552 5.49289 20.0311 6.13763 20.2748 6.58746L20.9334 7.86041C21.3711 8.84361 21.4189 9.40656 21.6599 10.3236C21.9131 11.2877 22.9999 10.8988 22.9999 10.3315C22.9999 9.77113 22.5622 8.37202 22.3395 7.80298C22.0515 7.06601 21.7113 6.33427 21.2849 5.66778C20.9543 5.15181 20.561 4.64716 20.1773 4.17035C19.8615 3.77794 18.9635 2.9209 18.559 2.59896C17.0259 1.37735 15.2674 0.483771 13.3306 0.100931C13.1566 0.066127 12.9826 0.0147916 12.8155 0H12.6493C12.524 0.0130514 12.4048 0.0591662 12.2943 0.165317C12.1864 0.268858 12.0838 0.351517 12.0838 0.538587ZM0 6.33601V6.33079C0.000870087 5.59991 0.247105 4.83684 0.538584 4.40179C0.969277 3.75793 1.14068 3.64307 1.67318 3.11058C2.05079 2.73296 2.85998 1.84981 3.2637 1.64621C4.04329 1.2538 4.75589 1.152 5.56246 1.66971C5.72169 1.77238 5.78173 1.81936 5.92007 1.94117C6.47954 2.43104 6.91197 2.89131 7.4462 3.42468C8.12487 4.10335 9.47873 5.20054 9.47873 6.24378C9.47873 6.79106 9.44653 7.07123 9.14635 7.57328C8.9384 7.92131 7.36441 9.49444 7.18779 9.61277C7.2835 9.79375 7.35571 9.96342 7.46534 10.1435C8.71914 12.2048 10.3401 13.8597 12.3631 15.2188C12.6885 15.4372 13.0339 15.5598 13.3428 15.7669L15.4788 13.7701C16.529 13.1323 17.5088 13.576 18.2509 14.3182L20.8116 16.8789C21.4877 17.5471 21.8923 18.5686 21.3815 19.5379C21.0091 20.2462 20.3374 20.7804 19.7318 21.3929L19.1724 22.0011C18.4511 22.7155 17.5444 23 16.442 23C14.3938 23 11.439 21.6313 9.68581 20.4576C9.46219 20.3079 9.2847 20.1896 9.0663 20.0443C8.36588 19.5771 7.09121 18.5904 6.45778 17.9813L5.71734 17.2391C4.32955 15.8592 3.12013 14.3139 2.10996 12.6259C1.19898 11.1041 0.00174017 8.64262 0.000870087 6.33601H0Z" fill="#797575"/>
</g>
<defs>
<clipPath id="clip0_8_668">
<rect width="23" height="23" fill="white"/>
</clipPath>
</defs>
</svg>
