<svg width="23" height="23" viewBox="0 0 23 23" fill="none" xmlns="http://www.w3.org/2000/svg">
<g clip-path="url(#clip0_8_716)">
<path fill-rule="evenodd" clip-rule="evenodd" d="M8.44532 7.97211C9.25067 7.97211 9.97706 8.3597 10.3891 8.76982C11.1153 9.49299 11.417 10.5673 11.0795 11.6003C10.403 13.6715 7.81345 14.1678 6.40944 12.621C6.35434 12.5602 6.33048 12.5376 6.28232 12.4783C4.84373 10.7078 6.12333 7.97211 8.44532 7.97211ZM17.834 15.351V17.8706H15.3184C14.1853 17.8706 14.1853 19.6704 15.3184 19.6704H17.834V22.1899C17.834 22.5604 18.1565 22.9998 18.5078 22.9998H18.957C19.3084 22.9998 19.6309 22.5604 19.6309 22.1899V19.6704H22.1464C23.2796 19.6704 23.2796 17.8706 22.1464 17.8706H19.6309V15.351C19.6309 14.2161 17.834 14.2161 17.834 15.351ZM22.9999 9.6052V9.76293C22.9838 9.96134 22.9062 10.1543 22.7665 10.303C22.1298 10.9812 21.3841 10.2779 21.0537 10.1014C19.5919 9.32089 17.9974 9.01345 16.3172 9.37745C15.7244 9.50584 15.7924 9.51824 15.2789 9.68716C14.9884 9.78274 14.5966 9.98281 14.3382 10.1398C14.1862 10.2322 14.0621 10.3046 13.9259 10.4017L13.1476 11.0169C12.8977 11.2743 13.0582 11.6585 12.6675 12.5606C12.5216 12.8974 12.3797 13.1291 12.1835 13.4256C11.9864 13.7238 11.634 14.0157 11.5899 14.1808C11.9542 14.2658 13.1187 14.8971 13.4224 15.1802C14.1827 15.8891 13.299 17.2648 12.2272 16.5574C10.234 15.2417 8.0354 15.0569 5.80113 15.8968C4.66391 16.3243 3.70697 17.1033 2.95069 18.0362C2.58938 18.482 1.76833 19.8192 1.81544 20.3751C1.84986 20.7813 2.09793 21.0887 2.44353 21.1823C2.88909 21.303 6.00164 21.2451 6.60361 21.2451C7.06894 21.2451 10.5565 21.1801 10.8288 21.2876C11.804 21.6726 11.3992 22.9999 10.7364 22.9999H2.29104C1.887 22.9999 1.27657 22.7015 1.02232 22.4709C0.952561 22.4077 0.932782 22.3779 0.859555 22.3191C0.801426 22.2725 0.763076 22.2519 0.712345 22.1964C0.187976 21.6225 0 21.017 0 20.2102C0 19.3393 0.802785 17.8609 1.30269 17.1957L1.78343 16.5973C2.23623 16.061 2.20573 16.1276 2.66095 15.7214C2.81178 15.5868 2.898 15.5139 3.05472 15.396C4.20114 14.5334 4.25263 14.64 5.30092 14.1362C5.2144 14.0069 5.12366 13.9508 5.02461 13.828C4.93116 13.712 4.85687 13.6183 4.76779 13.5003C3.60219 11.9543 3.54451 9.66055 4.70317 8.09339C5.19326 7.43056 5.48799 7.21371 6.13586 6.78377C7.22703 6.05955 8.90024 5.98968 10.153 6.48661C11.179 6.89371 12.4387 8.02125 12.6681 9.0068C12.8772 8.95795 14.0914 8.05936 14.5998 8.01687C14.5729 7.916 14.3103 7.63185 14.2054 7.51192C14.1497 7.44826 14.1352 7.44312 14.0789 7.36871C13.4268 6.50778 13.1622 5.55974 13.1622 4.41738C13.1622 1.44881 16.5136 -1.04385 19.6916 0.442248C20.2129 0.686025 20.5639 0.91967 20.99 1.34643C21.1851 1.54181 21.3429 1.72676 21.5058 1.95466C22.4787 3.31434 22.5929 5.13964 21.8322 6.66717C21.3856 7.56395 21.0549 7.70126 20.8439 8.01687C21.104 8.03849 21.897 8.48159 22.1281 8.62026C22.2438 8.68952 22.3151 8.7482 22.4248 8.81806C22.5381 8.89005 22.5965 8.90638 22.6983 8.99424C22.8806 9.15167 22.9814 9.37533 23.0001 9.6052H22.9999ZM14.9589 4.68747C14.9559 4.67174 15.0097 4.14245 15.0213 4.07501C15.052 3.89792 15.1315 3.67698 15.1892 3.52333C15.4122 2.92901 15.9681 2.36116 16.5453 2.09198C17.9551 1.43444 19.61 2.02997 20.2455 3.39676C20.3976 3.72386 20.485 4.10056 20.5245 4.51568C20.6021 5.32897 20.093 6.29516 19.3875 6.82853C18.8978 7.19873 18.4609 7.31034 17.8203 7.37642C17.7319 7.3855 17.345 7.34588 17.2224 7.32455C17.0456 7.29386 16.825 7.21416 16.6716 7.15639C15.859 6.85046 15.3056 6.11641 15.0666 5.29948C15.0302 5.17502 15.0175 5.12089 15.0074 4.99885L14.9588 4.68747H14.9589Z" fill="#6B6A6A"/>
</g>
<defs>
<clipPath id="clip0_8_716">
<rect width="23" height="23" fill="white"/>
</clipPath>
</defs>
</svg>
