<svg width="18" height="18" viewBox="0 0 18 18" fill="none" xmlns="http://www.w3.org/2000/svg">
<g clip-path="url(#clip0_8_665)">
<path fill-rule="evenodd" clip-rule="evenodd" d="M1.90498 0H16.095C17.1428 0 18 0.858076 18 1.90694V13.8913C18 14.9402 17.1428 15.7983 16.095 15.7983H11.4893L9.55069 17.6811C9.11016 18.1088 8.84719 18.1108 8.4066 17.6592L6.5578 15.7643L1.90498 15.7983C0.857281 15.8059 0 14.9402 0 13.8913V1.90694C0 0.858076 0.857193 0 1.90498 0ZM8.33254 3.50785C8.78563 2.41761 9.43995 2.82328 9.77214 3.6956L10.7445 5.65021L13.4792 6.07528C14.0232 6.16227 14.0941 6.71552 13.7226 7.04445L11.7865 8.97145L12.2423 11.6437C12.3354 12.2878 11.8589 12.4969 11.277 12.1906L9.00097 11.0005L6.84946 12.1C6.15687 12.5478 5.59251 12.3307 5.7794 11.4538L6.20402 8.93187L4.45459 7.27122C3.73837 6.5499 4.01571 6.09953 4.95287 5.99035L7.26286 5.65033L8.33257 3.50788L8.33254 3.50785ZM5.74621 6.94124C5.67544 6.94598 5.68323 6.98686 5.72927 7.0277L7.02738 8.28236C7.26033 8.48968 7.32318 8.73291 7.26939 9.00076L6.96026 10.718C6.90602 10.9417 6.97176 10.8716 7.15317 10.7741L8.41559 10.0957C8.80841 9.88453 9.03645 9.8009 9.45973 10.0264L10.91 10.8144C11.0237 10.8932 11.0681 10.8716 11.0346 10.7407L10.8376 9.52553C10.6664 8.46967 10.514 8.70792 11.3568 7.89758L12.1784 7.1076C12.3002 7.00837 12.3823 6.94048 12.0596 6.92058L10.4674 6.67583C9.96353 6.59834 9.95591 6.4597 9.75624 6.05362L9.08737 4.69317L8.88923 4.71583L8.19631 6.15156C8.01866 6.51985 7.94604 6.63089 7.50642 6.69975L5.74626 6.94127L5.74621 6.94124ZM16.1479 14.7092C16.5838 14.7092 16.9404 14.3522 16.9404 13.9159V1.88239C16.9404 1.44597 16.5838 1.08903 16.1479 1.08903H1.85212C1.4162 1.08903 1.05957 1.44597 1.05957 1.88239V13.9159C1.05957 14.3522 1.4162 14.7092 1.85212 14.7092L6.92481 14.6706L9.01955 16.7393L11.0297 14.7246L16.1479 14.7092Z" fill="#797575"/>
</g>
<defs>
<clipPath id="clip0_8_665">
<rect width="18" height="18" fill="white"/>
</clipPath>
</defs>
</svg>
