<svg width="15" height="16" viewBox="0 0 15 16" fill="none" xmlns="http://www.w3.org/2000/svg">
<path fill-rule="evenodd" clip-rule="evenodd" d="M1.63982 6.50004C1.63982 5.758 1.80859 5.03139 2.04448 4.51032C3.53886 1.21069 7.81706 0.634987 10.0422 3.696C10.2174 3.93706 10.329 4.16636 10.4659 4.4476C11.0874 5.72492 11.0389 7.55394 10.3067 8.79501C10.2286 8.92729 10.1703 9.04464 10.0855 9.16125C9.88511 9.43734 9.83155 9.52259 9.57233 9.78913C8.15126 11.2514 6.09845 11.6363 4.29129 10.7713C2.78286 10.0491 1.63958 8.36066 1.63958 6.50028L1.63982 6.50004ZM5.97586 0H6.55762C7.1508 0.0306224 7.74922 0.154337 8.38478 0.370899C9.33715 0.695252 10.0974 1.25919 10.787 1.96082L11.2998 2.58919C12.5594 4.31507 12.947 6.68377 12.1157 8.844L11.7511 9.625C11.5242 10.078 11.2874 10.3107 11.0829 10.6248L11.4821 11.0263C11.5304 11.0887 11.5309 11.1003 11.5909 11.1644C11.7651 11.3506 11.9291 11.5128 12.1076 11.6951L13.1091 12.7896C13.2833 12.9758 13.4473 13.138 13.6258 13.3203L14.3849 14.1329C14.4375 14.1865 14.4735 14.2188 14.5185 14.2767C14.8779 14.7402 14.9998 14.6422 14.9998 15.2502C14.9998 15.613 14.6234 16.0001 14.2709 16.0001C13.6332 16.0001 13.5846 15.7105 13.2009 15.3203L11.0148 12.9763C10.8277 12.7681 10.5776 12.5545 10.3771 12.3203C10.2279 12.1458 10.0546 11.9099 9.86821 11.7813C9.77157 11.8078 9.59304 11.9479 9.48688 12.0138C7.02869 13.5376 3.85259 13.1071 1.89023 11.0861L1.17113 10.2323C0.946188 9.92558 0.772899 9.58996 0.607227 9.25018C0.0871207 8.18305 0 7.36506 0 6.12522C0 4.5794 0.83574 2.91427 1.85977 1.8518C2.11232 1.58967 2.40677 1.36968 2.69384 1.14773L3.15801 0.843954C3.32558 0.751107 3.44532 0.670754 3.63955 0.589665C3.82046 0.513967 3.96209 0.437043 4.1787 0.363304C4.8033 0.151152 5.3922 0.0303774 5.97563 0.000244979L5.97586 0Z" fill="#727272"/>
</svg>
