<svg width="19" height="23" viewBox="0 0 19 23" fill="none" xmlns="http://www.w3.org/2000/svg">
<path fill-rule="evenodd" clip-rule="evenodd" d="M1.76197 8.75788V5.25386C1.76197 5.0936 1.92311 5.10659 2.17119 4.99615L9.50318 1.9036L14.3544 3.93715C14.6916 4.08658 15.0117 4.22301 15.3467 4.36161L17.0599 5.08277C17.1744 5.13042 17.2444 5.11093 17.2444 5.25386C17.2444 8.21213 17.4225 10.3258 16.5913 13.1217C16.3624 13.8905 15.8323 15.0188 15.44 15.7183C15.2852 15.9933 15.1199 16.2359 14.9417 16.5109L13.5636 18.2477C13.1798 18.6549 12.3126 19.4064 11.88 19.7182C11.4645 20.0149 9.82123 21.0891 9.5053 21.0912C9.42685 21.0912 8.79288 20.7707 8.67838 20.6992C8.53844 20.6126 8.40911 20.5606 8.27553 20.4827C7.70729 20.147 6.61321 19.3587 6.12979 18.9018C6.01317 18.7913 5.94108 18.6917 5.8181 18.5921L5.39192 18.1741L5.35164 18.1243C4.36146 16.9137 3.9692 16.5867 3.17197 14.9603C2.23904 13.0567 1.76409 11.1271 1.76409 8.76004L1.76197 8.75788ZM0.0021203 4.48939V9.43139C0.0021203 10.3041 0.129338 11.27 0.290481 12.0107C0.388015 12.4525 0.457985 12.7795 0.56824 13.165C0.680616 13.5569 0.790872 13.8948 0.91809 14.2456C1.692 16.3701 2.36413 17.258 3.53878 18.8021L5.72905 20.9223L6.54536 21.5265C7.02879 21.8557 8.97523 22.9992 9.3696 22.9992H9.63252C9.89968 22.9992 11.28 22.2434 11.5535 22.0874C13.3218 21.0782 14.8506 19.6771 16.0655 18.0268C17.7702 15.7074 19 12.4373 19 9.43356V4.49155C19 4.249 18.8728 4.02377 18.7477 3.896C18.5717 3.71408 17.2508 3.19216 16.9582 3.07305C16.532 2.8998 16.1546 2.72438 15.7453 2.55979C15.3382 2.39521 14.9524 2.22628 14.5325 2.04654C13.9261 1.78666 9.78942 0 9.63252 0C9.09608 0 8.7738 0.205736 8.13559 0.493767L5.71209 1.52245C5.29439 1.69787 4.92121 1.86462 4.49928 2.03571C4.20455 2.15482 0.470706 3.70109 0.275639 3.87651C0.14418 3.99345 0 4.249 0 4.49372L0.0021203 4.48939Z" fill="#7C7979"/>
<path fill-rule="evenodd" clip-rule="evenodd" d="M8.53403 11.9913C8.32412 11.8484 7.19188 10.6443 6.85263 10.2956C6.57911 10.0163 6.4837 9.87982 6.02783 9.87982C5.78612 9.87982 5.59741 9.98594 5.46383 10.1137C5.17547 10.3909 5.19031 10.6031 5.19031 10.9128C5.19031 11.3135 6.36708 12.3617 6.67452 12.6757C6.98621 12.994 8.00819 14.1916 8.40045 14.1916C8.97081 14.1916 9.00261 14.0942 9.38003 13.7087L13.3153 9.68925C13.7012 9.29726 13.8093 9.26695 13.8093 8.66706C13.8093 8.33788 13.3832 7.90259 13.0609 7.90259C12.3781 7.90259 12.3463 8.11482 11.6636 8.81216C11.3074 9.17599 10.9851 9.50517 10.631 9.86683C10.3172 10.1873 8.72697 11.8549 8.53191 11.9892L8.53403 11.9913Z" fill="#7C7979"/>
</svg>
