<svg width="25" height="25" viewBox="0 0 25 25" fill="none" xmlns="http://www.w3.org/2000/svg">
<g clip-path="url(#clip0_8_179)">
<path fill-rule="evenodd" clip-rule="evenodd" d="M6.10339 3.53569C6.10339 2.90234 6.29215 2.39777 6.68929 2.04177C8.57112 0.353577 10.971 3.09046 9.31454 4.76875C8.03499 6.06511 6.1036 4.9973 6.1036 3.53569H6.10339ZM12.5487 3.33659C12.5487 3.82006 12.7866 4.1831 13.1836 4.1831H24.3651C25.208 4.1831 25.208 2.68918 24.3651 2.68918H13.1836C12.8843 2.68918 12.5487 3.03112 12.5487 3.33659ZM0 12.3994C0 12.8829 0.237895 13.246 0.634818 13.246H12.6466C13.4896 13.246 13.4896 11.752 12.6466 11.752H0.634818C0.335294 11.752 0 12.094 0 12.3994ZM11.7187 21.4623C11.7187 21.9458 11.9564 22.3088 12.3535 22.3088H24.3653C25.2082 22.3088 25.2082 20.8149 24.3653 20.8149H12.3535C12.0542 20.8149 11.7187 21.1568 11.7187 21.4623ZM15.9668 12.499C15.9668 10.7409 18.0789 9.98122 19.1846 11.1593C20.3799 12.4328 19.4615 14.4287 17.829 14.4074C16.7955 14.394 15.9665 13.5503 15.9665 12.499H15.9668ZM24.9999 12.4304V12.5676C24.9773 12.8616 24.8079 13.1414 24.492 13.226C24.2965 13.2783 21.481 13.246 21.1425 13.246C20.4926 16.0905 16.9948 16.8843 15.2188 14.6561C15.0283 14.4171 14.8669 14.1769 14.7519 13.8874C14.6092 13.5286 14.453 12.988 14.453 12.499C14.453 11.6318 14.8406 10.7064 15.4156 10.0946C17.1474 8.25128 20.4937 8.91297 21.1423 11.752C21.4808 11.752 24.2961 11.72 24.4918 11.772C24.8077 11.8564 24.977 12.1364 24.9997 12.4304H24.9999ZM5.27334 21.6117C5.27334 21.0155 5.45995 20.587 5.8392 20.1969C7.00907 18.994 9.03311 19.8847 9.03311 21.5619C9.03311 22.6132 8.20414 23.4568 7.17068 23.4702C6.6839 23.4766 6.20725 23.2903 5.87088 22.9441C5.52459 22.5879 5.27334 22.1789 5.27334 21.6115V21.6117ZM0 21.6304V21.4933C0.0226259 21.1993 0.191997 20.9195 0.507897 20.8349C0.703342 20.7826 3.51886 20.8149 3.85739 20.8149C4.02611 20.0761 4.42821 19.3731 4.92382 18.9645C5.73469 18.2962 6.30702 18.1259 7.37302 18.1259C8.23324 18.1259 9.18719 18.7162 9.6076 19.1834C9.68689 19.2713 9.72891 19.3401 9.80347 19.432C9.98987 19.6618 10.1495 19.9233 10.2618 20.2095C10.6428 21.1806 10.6346 21.9779 10.248 22.9503C9.30743 25.3162 5.73943 25.8751 4.26315 23.3393C4.05628 22.9839 3.95931 22.7549 3.85739 22.309C3.51886 22.309 0.703557 22.3411 0.507897 22.289C0.191997 22.2047 0.0226259 21.9247 0 21.6306L0 21.6304ZM0 3.53327V3.32999C0.0400801 2.9986 0.278406 2.69533 0.729415 2.6861L4.68744 2.68896C4.71351 2.37096 4.9583 1.85255 5.10655 1.62247C5.69095 0.714861 6.63326 -1.52588e-05 7.86131 -1.52588e-05C10.6598 -1.52588e-05 11.999 2.78609 11.0684 4.81424L10.5848 5.61571C10.5072 5.71196 10.493 5.75086 10.4133 5.8392C10.3303 5.93128 10.2665 5.95919 10.1715 6.04072C9.40633 6.69648 8.82474 6.87185 7.76391 6.87185C6.28094 6.87185 4.78462 5.37023 4.68765 4.18288C3.70095 4.18288 1.5795 4.22793 0.681362 4.18529C0.271511 4.16574 0.0396492 3.86225 0 3.53327Z" fill="#686868"/>
</g>
<defs>
<clipPath id="clip0_8_179">
<rect width="25" height="25" fill="white"/>
</clipPath>
</defs>
</svg>
