<svg width="22" height="20" viewBox="0 0 22 20" fill="none" xmlns="http://www.w3.org/2000/svg">
<path fill-rule="evenodd" clip-rule="evenodd" d="M1.29363 11.6034V4.16814C1.29363 2.43703 2.41898 1.29833 4.1298 1.29833H17.8794C19.5902 1.29833 20.7156 2.43703 20.7156 4.16814V11.6034C20.7156 12.7279 20.1582 13.7034 19.1976 14.154C18.6156 14.4271 18.216 14.3845 17.4061 14.3845L14.3526 14.381C13.995 14.3881 13.8232 14.5229 13.6655 14.7286L11.4639 17.6304C11.3377 17.7829 11.1343 18.1164 11.0011 18.205C10.8714 18.1164 8.55408 15.0124 8.35775 14.7499C7.96511 14.232 7.51286 14.3774 6.66447 14.3774C5.99136 14.3774 5.31825 14.3774 4.64514 14.3774C3.82129 14.3774 3.42864 14.4236 2.83967 14.161C1.87909 13.7318 1.29363 12.7421 1.29363 11.5963V11.6034ZM0.00350577 3.73537V11.951C0.00350577 13.3984 0.995639 14.7251 2.23668 15.3423C2.98692 15.7148 3.54433 15.7325 4.64514 15.7325C5.5917 15.7325 6.53475 15.7325 7.48131 15.7325C7.51286 15.846 7.58999 15.9312 7.66712 16.0234C7.75126 16.1263 7.80034 16.1901 7.87396 16.293L10.349 19.5708C10.647 19.9361 10.6435 19.9965 11.0887 19.9965C11.4533 19.9965 11.846 19.3225 12.0458 19.0529C12.2386 18.7939 14.4788 15.917 14.5244 15.7361C15.4569 15.7361 16.386 15.7361 17.3185 15.7361C18.847 15.7361 19.5306 15.658 20.5789 14.8173C21.3361 14.2107 22.0022 13.0614 22.0022 11.9546V3.73891C22.0022 1.88719 20.2353 0 18.2195 0H3.78273C1.77041 0 0 1.88719 0 3.73891L0.00350577 3.73537Z" fill="#7C7979"/>
<path fill-rule="evenodd" clip-rule="evenodd" d="M6.87832 6.60512C6.87832 5.61186 7.66362 4.77823 8.68379 4.77823C10.1071 4.77823 10.1667 6.08365 11.0888 6.08365C11.6392 6.08365 12.0178 4.77823 13.3219 4.77823C13.8688 4.77823 14.3211 5.02654 14.6015 5.31033C15.1239 5.83889 15.3097 6.80732 14.896 7.5026C14.605 7.98504 12.6699 9.8545 12.151 10.3795C11.8776 10.6562 11.264 11.3408 11.0011 11.5218C10.7873 11.3763 8.07028 8.57745 7.63908 8.14112C7.22189 7.71899 6.87482 7.33232 6.87482 6.60866L6.87832 6.60512ZM10.917 13.1252C11.4323 13.1252 11.4814 12.923 11.8951 12.5044L15.506 8.85414C16.2773 8.08082 16.4175 7.39618 16.4175 6.34261C16.4175 5.66861 16.0599 5.04783 15.769 4.65407C15.0222 3.64307 13.69 3.23513 12.4735 3.56858C12.1685 3.65372 11.9371 3.77078 11.6742 3.93041C11.534 4.01555 11.4393 4.07585 11.3201 4.17872C11.1974 4.28514 11.1378 4.38092 11.0081 4.46961C10.8258 4.34545 10.6891 4.10423 10.2649 3.87365C7.57597 2.42988 4.94314 4.90948 5.7074 7.52743C5.91424 8.24045 6.31389 8.65194 6.78717 9.13083L10.1387 12.5221C10.314 12.6995 10.6295 13.1216 10.924 13.1216L10.917 13.1252Z" fill="#7C7979"/>
</svg>
