<svg width="97" height="95" viewBox="0 0 97 95" fill="none" xmlns="http://www.w3.org/2000/svg">
<path fill-rule="evenodd" clip-rule="evenodd" d="M24.3544 0H72.6456C86.041 0 97 10.9856 97 24.4126V70.5863C97 84.0143 86.041 94.9999 72.6456 94.9999H24.3544C10.959 94.9999 0 84.0143 0 70.5863V24.4126C0 10.9847 10.959 0 24.3544 0ZM35.4943 34.4329L32.4131 56.9166H38.9336L40.3299 48.8606L42.68 46.915L42.1057 51.2248L56.3055 51.2434L62.0624 42.1355L56.9809 33.9948L36.0306 34.0432C35.7327 34.0451 35.5518 34.1725 35.4952 34.4338L35.4943 34.4329ZM32.3742 28.9977L59.0415 28.9382L63.3724 31.2075L71.2901 43.7891C71.6854 44.3806 71.6928 44.5387 71.2948 45.1302L62.6413 58.6995C62.3463 59.0241 61.9622 59.1766 61.5159 59.2027L45.3715 59.198C45.2351 59.2082 45.1498 59.2696 45.1238 59.3915L44.505 64.5076C44.402 65.3586 43.7173 65.6348 42.9574 65.6348H29.434C29.1974 65.6227 29.01 65.5037 28.8634 65.2991L26.2656 61.1725L30.2421 30.8318C30.4388 29.5176 31.2228 29.0061 32.3751 28.9968L32.3742 28.9977Z" fill="#FFCC00"/>
</svg>
