<svg width="13" height="11" viewBox="0 0 13 11" fill="none" xmlns="http://www.w3.org/2000/svg">
<g clip-path="url(#clip0_8_117)">
<path fill-rule="evenodd" clip-rule="evenodd" d="M11.4616 7.61056L9.62917 9.55143C9.4499 9.73552 9.09594 9.99269 9.09594 10.3179C9.09594 10.7096 9.56017 11.4641 10.3856 10.6067C10.8516 10.1226 11.6474 9.36126 12.0139 8.93401C12.1175 8.81329 12.1494 8.7567 12.2668 8.63633C12.3582 8.54264 12.4345 8.43758 12.5144 8.33313C12.8062 7.95202 13.1709 7.20229 12.9112 6.71945C12.7986 6.51014 12.5364 6.29669 12.2371 6.29669H0.641768C0.180965 6.29669 -0.151732 6.7747 0.0708041 7.24107C0.280504 7.68048 0.771517 7.61053 1.37861 7.61053H11.4615L11.4616 7.61056Z" fill="#6B6A6A"/>
<path fill-rule="evenodd" clip-rule="evenodd" d="M0.0212402 3.74242V3.94147C0.0212402 4.36539 0.435384 4.69794 0.874413 4.69794H12.1983C12.6551 4.69794 12.9756 4.23486 12.7816 3.78089C12.5861 3.3239 12.1204 3.38408 11.5003 3.38408H1.57244C1.70426 3.12833 2.52727 2.34414 2.78433 2.08023C3.00063 1.85816 3.18852 1.66527 3.40482 1.44321C3.63563 1.20626 3.89926 1.04545 3.89926 0.636972C3.89926 0.280144 3.61877 0 3.27881 0C2.91359 0 2.64336 0.393546 2.2996 0.746484L1.40742 1.62218C1.07088 1.96569 0.472209 2.6305 0.241182 3.05251C0.16589 3.19004 0.0212674 3.55403 0.0212674 3.74243L0.0212402 3.74242Z" fill="#6B6A6A"/>
</g>
<defs>
<clipPath id="clip0_8_117">
<rect width="13" height="11" fill="white"/>
</clipPath>
</defs>
</svg>
