<svg width="24" height="18" viewBox="0 0 24 18" fill="none" xmlns="http://www.w3.org/2000/svg">
<g clip-path="url(#clip0_8_258)">
<path fill-rule="evenodd" clip-rule="evenodd" d="M1.23821 12.6829V2.84467C1.23821 1.89533 1.9702 1.21284 2.66721 1.21284H21.3335C21.7423 1.21284 22.133 1.49504 22.3464 1.71231C22.6033 1.97326 22.7613 2.35228 22.7613 2.84467V12.6829C22.7613 13.644 22.1258 14.3619 21.3805 14.3619H2.61897C1.87855 14.3619 1.23821 13.6499 1.23821 12.6829ZM5.71454 5.59587C5.71454 5.98434 5.98467 6.24884 6.38141 6.24884H8.00095V9.88562C8.00095 10.8149 9.23942 10.7004 9.23942 10.025V6.24766H10.906C11.7754 6.24766 11.6705 5.035 11.0012 5.035H6.28735C6.00155 5.035 5.71575 5.31485 5.71575 5.59469L5.71454 5.59587ZM15.4293 10.5386C16.0395 10.5386 16.0154 10.3237 16.4447 9.4818C16.6702 9.04137 16.8535 8.634 17.079 8.19239C17.2961 7.76613 18.2849 5.90878 18.2849 5.59705C18.2849 5.29359 18.0172 5.03736 17.6181 5.03736C17.2008 5.03736 17.0694 5.4589 16.9198 5.75173C16.7305 6.1225 15.6356 8.4191 15.4752 8.53364C15.4137 8.27505 15.1532 7.88893 15.0326 7.61499C14.7456 6.95494 14.4091 6.40116 14.1101 5.76826C13.9003 5.32311 13.858 5.03736 13.3323 5.03736C13.0634 5.03736 12.7932 5.29005 12.739 5.53093C12.6726 5.82612 13.5867 7.49337 13.7447 7.80392L14.8397 9.99543C14.9687 10.2493 15.0567 10.5398 15.4269 10.5398L15.4293 10.5386ZM0.000946974 2.75139V12.8694C0.000946974 13.7125 0.476075 14.5438 0.958439 14.9157C1.74951 15.525 2.19691 15.6206 3.28584 15.6206C5.33348 15.6206 7.38111 15.6206 9.42874 15.6206C9.4203 15.6277 9.40583 15.6265 9.40221 15.6407C9.39739 15.6549 9.38051 15.6572 9.37448 15.6608L7.30152 16.7554C6.86377 16.9655 6.53938 17.3174 6.89392 17.7756C7.32323 18.3305 8.0528 17.7153 8.58702 17.4544C8.9922 17.256 9.32383 17.0706 9.71454 16.8805C9.98225 16.7506 11.89 15.7151 11.9997 15.7151L14.8119 17.158C14.9952 17.2619 15.1966 17.3375 15.3787 17.4414C15.5741 17.5524 16.3398 17.9987 16.5713 17.9987C17.0272 17.9987 17.19 17.7035 17.19 17.2997C17.19 16.9773 16.9319 16.8711 16.698 16.7554L15.269 16.0091C15.1339 15.943 15.0519 15.9087 14.9241 15.8344L14.5707 15.6206C16.6027 15.6206 18.6346 15.6206 20.6654 15.6206C21.7314 15.6206 22.2367 15.5439 23.0145 14.9358C23.5017 14.5556 23.9985 13.7491 23.9985 12.9155V2.75139C23.9985 1.2518 22.7082 0.000183105 21.3793 0.000183105H2.61777C1.87252 0.000183105 1.24303 0.394562 0.771523 0.85034C0.350661 1.25889 -0.00146484 1.94728 -0.00146484 2.75139H0.000946974Z" fill="#E54336"/>
</g>
<defs>
<clipPath id="clip0_8_258">
<rect width="24" height="18" fill="white"/>
</clipPath>
</defs>
</svg>
