<svg width="32" height="33" viewBox="0 0 32 33" fill="none" xmlns="http://www.w3.org/2000/svg">
<g clip-path="url(#clip0_8_713)">
<path fill-rule="evenodd" clip-rule="evenodd" d="M17.416 19.4004C17.7469 19.428 18.2163 19.6966 18.535 19.8331C20.015 20.4672 19.6038 20.506 20.7815 19.7219C22.2192 18.7649 22.0497 19.8401 22.3253 17.2626C22.3525 17.0061 22.3966 16.6953 22.4008 16.5C25.2007 16.5 24.459 16.1486 24.6942 17.8261C24.7688 18.3565 24.7069 18.8929 25.042 19.1555L26.1291 19.6845C26.3112 19.7938 26.4694 19.9018 26.6229 20.0307C26.8383 20.2125 26.9299 20.3027 27.2561 20.3027C27.4875 20.3027 29.2561 19.4761 29.5222 19.3359C29.6048 19.6887 30.4572 20.8391 30.5581 21.2695L29.1514 22.254C28.2934 22.8853 28.6159 22.868 28.6159 24.0414C28.6159 25.4726 27.9428 25.1339 30.5581 26.8773C30.5018 27.1184 29.7006 28.4109 29.5222 28.7464C28.6839 28.552 27.9395 27.8441 27.0622 27.8441C26.9064 27.8441 26.1695 28.4922 25.6104 28.7193C24.629 29.1179 24.8486 29.1534 24.6942 30.2562C24.4605 31.9229 25.2039 31.5823 22.4008 31.5823L22.2605 30.1753C22.2046 29.6412 22.2502 29.2295 21.8657 28.9567L20.8256 28.4455C19.8549 27.9132 20.1877 27.4689 18.5167 28.2959L17.4156 28.7464C17.3611 28.5431 17.0452 28.0515 16.9175 27.824C16.7279 27.4861 16.5561 27.209 16.3796 26.8773C19.0772 25.0792 18.3219 25.5068 18.3219 24.1059C18.3219 22.5811 19.0251 23.068 16.7814 21.5143C16.6125 21.3975 16.5627 21.3186 16.3796 21.2695L17.4156 19.4004H17.416ZM21.4301 24.1054C21.4301 22.9428 22.3961 22.0428 23.2429 22.0428H23.6958C24.5745 22.0428 25.5086 22.9727 25.5086 23.8475C25.5086 24.5811 25.4729 24.9488 24.8787 25.5409C23.6583 26.7563 21.4297 25.8881 21.4297 24.1054H21.4301ZM20.0056 24.0409C20.0056 27.203 23.8212 28.5959 25.8498 26.5717C26.9458 25.4783 27.2631 23.9531 26.6097 22.5582C26.1305 21.5349 24.8871 20.6251 23.7606 20.6251H23.3072C21.5494 20.6251 20.0051 22.2587 20.0051 24.0409H20.0056ZM0.000225237 22.4297V28.2305C0.000225237 28.581 0.29875 28.8749 0.647498 28.8749H11.783C12.6105 28.8749 12.7659 27.4567 11.5887 27.4567H1.42385V22.4293C1.42385 21.5059 1.84676 20.5148 2.32975 19.8504C2.47056 19.6565 2.71041 19.3527 2.89723 19.1906C3.91437 18.306 4.90429 17.9158 6.34434 17.9173C6.93341 17.9182 14.2008 17.9715 14.5984 17.8841C15.569 17.671 15.2611 16.4991 14.5669 16.4991H5.95616C4.53254 16.4991 2.69117 17.3196 1.80358 18.2948C0.767658 19.4322 -0.000244141 20.7625 -0.000244141 22.4288L0.000225237 22.4297ZM6.92778 6.96102C6.92778 5.2877 7.57505 3.9583 8.49738 3.04524C8.94141 2.60553 9.39905 2.24947 9.99047 1.95368C11.4216 1.23735 13.3949 1.2294 14.8279 1.93219C15.4287 2.22704 15.9046 2.59058 16.3642 3.04524C19.3827 6.03254 17.8366 11.2502 13.6878 12.2081C12.5326 12.4749 11.2564 12.3889 10.2069 11.8819C9.28546 11.4366 8.55933 10.8829 7.95337 10.0651C7.78627 9.83991 7.56003 9.47216 7.44597 9.21656C7.17608 8.61331 6.92778 7.83015 6.92778 6.96102ZM12.0881 0H12.8199C13.7394 0.0471949 14.65 0.273824 15.4972 0.685495C19.3334 2.55133 20.5397 7.61661 18.0825 10.8469C17.577 11.5114 17.0748 12.0665 16.3548 12.5426C15.9661 12.7996 15.6976 12.9445 15.2808 13.1492C14.9077 13.3323 14.4322 13.4968 13.9811 13.5959C12.8302 13.8482 12.0778 13.8412 10.9344 13.6071C10.4786 13.5136 10.0092 13.3552 9.62435 13.1707C7.09863 11.9595 5.50321 9.68758 5.50321 6.83205C5.50321 5.81058 5.77217 4.79706 6.1073 4.08166C6.3725 3.51579 6.66962 2.9845 7.0714 2.52797C7.74872 1.75836 8.41993 1.12287 9.40844 0.664935C10.259 0.27102 11.1705 0.0471949 12.0881 0ZM20.8477 18.0467C20.643 18.1831 20.4829 18.2495 20.268 18.3719C19.4522 18.8364 19.9286 18.9326 18.6247 18.3261C17.8882 17.9836 17.2015 17.6182 16.4815 18.3406C16.4721 18.3499 16.459 18.3635 16.4496 18.3733C16.1952 18.6439 16.0957 18.8943 15.9145 19.1943C15.7277 19.5037 15.5836 19.7873 15.3968 20.0966C15.3005 20.256 15.233 20.3859 15.1363 20.5466C14.4237 21.7307 15.6939 22.5017 16.3285 22.9325C16.5294 23.069 16.7392 23.2722 16.9631 23.3321C16.9218 23.826 16.8138 24.1119 16.9631 24.7502C15.3869 25.8011 14.358 26.3217 15.332 27.9212C15.5132 28.2188 15.6423 28.474 15.8248 28.7838C16.4261 29.802 16.5017 30.1646 17.6751 30.1646C17.8619 30.1646 19.4461 29.451 19.6822 29.3267C20.0464 29.8683 20.7575 29.6805 20.842 30.2987C20.9561 31.1332 20.7758 33.0005 22.2717 33.0005H24.6675C26.4713 33.0005 25.8371 30.3861 26.2483 29.9982C26.2802 29.9678 26.5572 29.8291 26.6224 29.7907C27.6546 29.1852 26.9669 29.2394 28.5145 29.88C29.189 30.159 29.9573 30.4389 30.584 29.6739L31.595 27.9735C31.9423 27.3357 31.9836 27.4819 31.9836 26.6843C31.9836 25.9708 30.1733 24.8502 30.0414 24.8152V23.3325C30.2784 23.2078 31.4711 22.3601 31.6776 22.1255C32.3981 21.3064 31.7419 20.4008 31.3636 19.7607C31.1172 19.3434 30.9313 18.9696 30.6778 18.5738C29.9977 17.5112 28.9256 18.0182 28.0554 18.4556C27.9437 18.5116 27.5349 18.7102 27.4227 18.7298C27.1894 18.7696 26.9862 18.5434 26.8022 18.4369C25.9564 17.9472 26.2272 18.399 26.0643 17.2378C25.9629 16.5117 26.0826 15.0832 24.4088 15.0832C23.0059 15.0832 21.6156 14.8416 21.1039 15.9182C20.9434 16.2556 20.8477 17.507 20.8477 18.0481V18.0467Z" fill="#6B6A6A"/>
</g>
<defs>
<clipPath id="clip0_8_713">
<rect width="32" height="33" fill="white"/>
</clipPath>
</defs>
</svg>
