<svg width="22" height="26" viewBox="0 0 22 26" fill="none" xmlns="http://www.w3.org/2000/svg">
<g clip-path="url(#clip0_8_470)">
<path fill-rule="evenodd" clip-rule="evenodd" d="M5.51294 14.1172C5.8871 14.1172 6.46608 14.5815 6.79107 14.7872C7.27916 15.0959 7.43865 15.194 7.9867 15.437C9.95726 16.3112 12.0108 16.2897 13.9771 15.4519C14.7606 15.1181 14.5208 15.1976 15.1828 14.812C15.72 14.499 16.0935 14.1172 16.4873 14.1172C17.1555 14.1172 17.7287 14.3801 18.1573 14.6548C18.4449 14.8392 18.5161 14.8988 18.7248 15.1621C18.8346 15.3006 18.8766 15.3167 18.9821 15.4671C20.2689 17.302 20.2763 19.0951 20.4519 21.1787C20.5059 21.8195 20.344 22.645 20.1245 23.0344C19.5674 24.0237 18.6387 24.4769 17.1056 24.4769H4.89486C3.1049 24.4769 1.88601 23.7433 1.6253 22.2659C1.49602 21.5342 1.59963 19.9352 1.71548 19.1596C1.92294 17.7705 2.34531 16.1607 3.23298 15.2219C3.51599 14.9224 3.29222 15.0385 3.8122 14.6756C4.17677 14.421 4.89198 14.1175 5.51294 14.1175V14.1172ZM0.000109183 20.8711C0.000109183 22.6552 0.111157 23.8485 1.55742 25.0237C1.84547 25.2577 2.23546 25.492 2.59043 25.6305C3.09171 25.8262 3.70115 26 4.37943 26H17.6205C18.2688 26 18.9193 25.8442 19.3743 25.6466C19.8571 25.4369 20.3121 25.1991 20.6999 24.8204C22.0493 23.5032 21.9996 22.3562 21.9996 20.668C21.9996 19.6355 21.8106 18.5279 21.608 17.6516C21.1832 15.8146 20.2567 13.8967 18.4631 13.0324C17.7913 12.7088 16.9924 12.5431 16.1774 12.5431C15.0427 12.5431 12.5473 16.0323 8.08767 13.7624C7.35303 13.3884 6.50278 12.5431 5.66692 12.5431C2.62065 12.5431 0.900007 15.1016 0.381702 17.7438C0.284325 18.24 0.179273 18.7173 0.117153 19.2097C0.048318 19.7555 -0.000610352 20.2886 -0.000610352 20.8711H0.000109183Z" fill="#A7A3A3"/>
<path fill-rule="evenodd" clip-rule="evenodd" d="M15.6111 6.04306C15.6111 7.34892 15.3742 8.36992 14.4908 9.30606L13.9241 9.86467C13.812 9.96726 13.7454 10.0294 13.6178 10.1214C11.6491 11.5407 8.56832 11.1452 7.1091 9.24341C6.21664 8.08034 5.79691 6.72578 6.17179 5.1691C6.48191 3.88168 7.31249 2.82995 8.43281 2.16709C9.68144 1.42834 11.5426 1.3553 12.7092 1.89523C13.6101 2.31224 14.1063 2.72877 14.6908 3.44623C15.1657 4.02895 15.6111 5.00197 15.6111 6.04306ZM10.5207 3.05176e-05H11.1315C11.6093 0.0203607 12.0799 0.0882068 12.5202 0.202623C13.251 0.392214 13.9967 0.742555 14.6033 1.19667C17.024 3.00937 17.9201 6.1589 16.6247 8.9212C16.1762 9.87767 15.6054 10.4372 14.8767 11.1086C14.5515 11.4083 13.842 11.8433 13.4257 12.0145C10.217 13.3333 6.76924 12.0469 5.21337 9.23254L4.86128 8.46235C4.78645 8.24251 4.73656 8.10989 4.67684 7.88223C4.46937 7.09054 4.48209 6.73996 4.48209 5.94141C4.48209 3.67152 6.09312 1.56427 8.10494 0.574713C8.8144 0.22579 9.66321 0.0361993 10.5202 3.05176e-05L10.5207 3.05176e-05Z" fill="#A7A3A3"/>
</g>
<defs>
<clipPath id="clip0_8_470">
<rect width="22" height="26" fill="white"/>
</clipPath>
</defs>
</svg>
