<svg width="22" height="31" viewBox="0 0 22 31" fill="none" xmlns="http://www.w3.org/2000/svg">
<g clip-path="url(#clip0_8_449)">
<path d="M3.14277 0.0329208H18.2285C18.8571 0.0329208 20.1142 0.651604 20.7428 1.27029C21.3713 1.88897 21.9999 2.50765 21.9999 3.74502V27.8737C21.9999 28.4924 21.3713 29.7297 20.7428 30.3484C20.1142 30.9671 19.4856 31.5858 18.2285 31.5858H3.14277C2.5142 31.5858 1.25705 30.9671 0.628481 30.3484C-9.06587e-05 29.7297 -0.628662 29.111 -0.628662 27.8737V3.74502C-0.628662 3.12634 -9.06587e-05 1.88897 0.628481 1.27029C1.25705 0.651604 1.88562 0.0329208 3.14277 0.0329208ZM8.17134 4.3637H13.1999C13.8285 4.3637 13.8285 4.98239 13.8285 4.98239V5.60107C13.8285 6.21975 13.1999 6.21975 13.1999 6.21975H8.17134C7.54277 6.21975 7.54277 5.60107 7.54277 5.60107V4.98239C7.54277 4.3637 8.17134 4.3637 8.17134 4.3637ZM6.9142 24.1616H13.8285C14.4571 24.1616 14.4571 24.7803 14.4571 24.7803V25.3989C14.4571 26.0176 13.8285 26.0176 13.8285 26.0176H6.9142C6.28562 26.0176 6.28562 25.3989 6.28562 25.3989V24.7803C6.28562 24.1616 6.9142 24.1616 6.9142 24.1616ZM18.2285 2.50765H3.14277C3.14277 2.50765 2.51419 2.50765 2.51419 3.12634L1.88562 3.74502V27.8737C1.88562 27.8737 1.88562 28.4924 2.51419 28.4924L3.14277 29.111H18.2285C18.2285 29.111 18.8571 29.111 18.8571 28.4924L19.4856 27.8737V3.74502C19.4856 3.74502 19.4856 3.12634 18.8571 3.12634L18.2285 2.50765Z" fill="#6B6A6A"/>
</g>
<defs>
<clipPath id="clip0_8_449">
<rect width="22" height="31" fill="white"/>
</clipPath>
</defs>
</svg>
