<svg width="14" height="12" viewBox="0 0 14 12" fill="none" xmlns="http://www.w3.org/2000/svg">
<path fill-rule="evenodd" clip-rule="evenodd" d="M11.5399 8.61074L9.70754 10.5516C9.52827 10.7357 9.17431 10.9929 9.17431 11.318C9.17431 11.7098 9.63854 12.4643 10.4639 11.6069C10.93 11.1227 11.7258 10.3614 12.0922 9.93419C12.1958 9.81347 12.2278 9.75688 12.3452 9.63651C12.4366 9.54282 12.5128 9.43776 12.5928 9.33331C12.8846 8.95221 13.2493 8.20247 12.9896 7.71964C12.877 7.51032 12.6148 7.29688 12.3155 7.29688H0.720137C0.259335 7.29688 -0.0733633 7.77489 0.149173 8.24125C0.358874 8.68067 0.849886 8.61072 1.45698 8.61072H11.5399L11.5399 8.61074Z" fill="#FFCC00"/>
<path fill-rule="evenodd" clip-rule="evenodd" d="M0.0996094 3.74242V3.94147C0.0996094 4.36539 0.513753 4.69794 0.952782 4.69794H12.2767C12.7335 4.69794 13.054 4.23486 12.8599 3.78089C12.6645 3.3239 12.1988 3.38408 11.5786 3.38408H1.6508C1.78263 3.12833 2.60564 2.34414 2.8627 2.08023C3.079 1.85816 3.26689 1.66527 3.48319 1.44321C3.714 1.20626 3.97763 1.04545 3.97763 0.636972C3.97763 0.280144 3.69714 0 3.35718 0C2.99196 0 2.72173 0.393546 2.37796 0.746484L1.48579 1.62218C1.14925 1.96569 0.550578 2.6305 0.319552 3.05251C0.244259 3.19004 0.0996365 3.55403 0.0996365 3.74243L0.0996094 3.74242Z" fill="#9B9898"/>
</svg>
