<svg width="35" height="25" viewBox="0 0 35 25" fill="none" xmlns="http://www.w3.org/2000/svg">
<path fill-rule="evenodd" clip-rule="evenodd" d="M0.0783691 6.49064C0.0783691 7.08422 4.52023 19.9432 4.91776 21.1442C5.50377 22.9145 5.25605 22.5527 9.00223 21.2945L27.0149 15.1586C28.5145 14.6558 28.2016 14.782 27.1148 11.4976C26.8788 10.7837 26.7104 9.59508 26.0035 9.72721C25.9051 9.74545 25.7587 9.83665 25.7044 9.89286C25.6583 9.94117 25.5129 10.1763 25.5129 10.236C25.5129 10.4692 26.6365 13.7846 26.7745 14.0479C26.5464 14.0671 25.7651 14.3757 25.4713 14.4743C25.015 14.6277 24.5984 14.7672 24.1759 14.9087C23.2971 15.2035 22.4673 15.5062 21.6027 15.7951L7.40819 20.6265C7.01017 20.7601 6.45109 20.91 6.12161 21.0692C5.88465 20.5718 2.35927 9.93624 1.96321 8.73923C1.7855 8.20185 1.56813 7.39185 1.34048 6.95899L18.2742 1.20812C18.5503 1.20812 21.9993 2.81333 22.5917 3.07955C22.8325 3.18752 23.0626 3.20626 23.1801 3.42318C23.2785 3.6051 24.3639 7.10985 24.5676 7.37608C24.922 7.8395 25.579 7.50475 25.579 7.09309C25.579 6.75391 24.4873 3.70764 24.2924 3.10568C24.0795 2.44802 24.0442 2.42928 23.4259 2.17292L19.7443 0.530237C17.9246 -0.215677 18.8514 -0.199901 16.0246 0.748637L0.44016 6.05286C0.291332 6.12681 0.0783691 6.30922 0.0783691 6.49114L0.0783691 6.49064Z" fill="#7C7979"/>
<path fill-rule="evenodd" clip-rule="evenodd" d="M32.4188 16.9897C32.4188 17.6858 32.6592 19.1382 32.7566 19.9935C32.7889 20.279 32.8775 20.7183 32.8839 21.0022L27.4849 21.651C23.1772 22.2239 18.2972 22.8648 14.0242 23.343L11.3017 23.6773C11.1578 21.937 10.1062 22.7248 10.1062 23.0753C10.1062 25.5245 10.4768 24.9137 13.7584 24.5464L31.469 22.3195C34.8989 21.8635 34.1499 22.6873 33.6143 17.5246C33.5536 16.9379 33.5188 16.5889 32.95 16.5889C32.5799 16.5889 32.4188 16.9182 32.4188 16.9902V16.9897Z" fill="#FF9900"/>
<path fill-rule="evenodd" clip-rule="evenodd" d="M8.11377 16.9897C8.11377 18.0926 9.15655 17.5503 9.68186 17.3649L16.2901 15.1257C17.5737 14.6948 18.7761 14.2683 20.0583 13.8379L23.3682 12.6907C23.8598 12.4151 23.7056 11.6396 23.1215 11.6396C22.7108 11.6396 12.5527 15.1765 11.7077 15.4599L8.88484 16.4292C8.6053 16.5209 8.11328 16.6772 8.11328 16.9897H8.11377Z" fill="#07C207"/>
<path fill-rule="evenodd" clip-rule="evenodd" d="M8.24638 11.506C6.43155 11.506 6.41295 8.69741 8.24638 8.69741C10.0891 8.69741 10.0216 11.506 8.24638 11.506ZM5.72314 9.96788C5.72314 13.5717 10.7701 13.4322 10.7701 10.0349C10.7701 8.72058 9.69599 7.56055 8.11371 7.56055C6.90301 7.56055 5.72314 8.74868 5.72314 9.96788Z" fill="#7C7979"/>
<path fill-rule="evenodd" clip-rule="evenodd" d="M26.7742 5.95565C26.7742 6.43534 27.1639 6.63501 27.558 6.90517L31.3511 9.63888C31.5259 9.80304 31.4451 9.64183 31.5127 9.94404C31.6033 10.3478 31.6424 11.0498 31.708 11.5527C31.7781 12.0866 31.8872 13.9093 32.1795 14.1538C32.4948 14.4176 33.2399 14.562 33.0769 13.1836C33.0152 12.661 32.6911 9.32138 32.4688 9.04777L28.0255 5.83191C27.7709 5.64111 27.3959 5.27284 26.9862 5.63421C26.9299 5.68401 26.7737 5.89008 26.7737 5.95516L26.7742 5.95565Z" fill="#FF9900"/>
<path fill-rule="evenodd" clip-rule="evenodd" d="M15.6838 11.6395C15.6838 12.7266 16.9337 12.0334 17.884 11.7149L21.3535 10.5278C22.3537 10.192 22.7894 10.2083 22.7894 9.49936C22.7894 9.30413 22.4585 9.03101 22.2583 9.03101C22.0683 9.03101 20.7871 9.4826 20.5413 9.57577C19.196 10.0836 17.6465 10.543 16.2723 11.0277C15.9663 11.1356 15.6843 11.2402 15.6843 11.639L15.6838 11.6395Z" fill="#07C207"/>
</svg>
