<svg width="28" height="28" viewBox="0 0 28 28" fill="none" xmlns="http://www.w3.org/2000/svg">
<g clip-path="url(#clip0_8_710)">
<path fill-rule="evenodd" clip-rule="evenodd" d="M21.4949 13.3397H24.7502L24.7226 10.3114C24.7226 9.36656 24.1757 8.72801 23.0354 8.73234L3.42058 8.72888C2.05772 8.66485 1.63851 9.40376 1.63851 10.3927L1.648 24.6051C1.47548 25.601 2.27163 26.3642 2.96083 26.3642L23.1717 26.3789C24.1481 26.3789 24.7502 25.6988 24.7502 24.7367L24.7321 21.5881L21.2223 21.5344C16.4436 20.9703 16.4281 13.8295 21.494 13.338L21.4949 13.3397ZM2.9522 7.09876L2.56577 6.19199C2.08791 5.07064 2.67532 3.96833 3.76043 3.49331L12.9313 0.15176C14.1854 -0.305086 15.2412 0.300581 15.6958 1.50845L16.3039 3.12472H21.5889C22.5912 3.12472 23.4115 3.94756 23.4115 4.95297V7.0754C25.1599 7.20605 26.3365 8.36807 26.3365 10.2154L26.3546 13.3916C27.1662 13.6417 27.8822 13.9861 27.9995 15.341V19.6162C27.9995 20.4105 27.4285 21.4289 26.3641 21.5552L26.3365 24.9512C26.3365 26.8158 25.0702 27.9995 23.1665 27.9995L3.48441 27.9969C1.45478 27.9969 0.00135136 26.7535 0.00135136 24.6597V10.5338C-0.0555782 8.48055 1.21499 7.30037 2.9522 7.0979V7.09876ZM14.5615 3.12559L14.1216 1.92463C14.0181 1.69448 13.8413 1.61488 13.5049 1.68842L4.54882 4.98066C4.09338 5.14852 3.92345 5.24283 4.11581 5.72996L4.64284 7.06762L12.2214 7.06589V4.95384C12.2214 3.94843 13.0417 3.12559 14.044 3.12559H14.5607H14.5615ZM21.8261 7.06416V5.04036C21.8261 4.8976 21.7096 4.78165 21.5673 4.78165H14.1216C13.9793 4.78165 13.8628 4.89846 13.8628 5.04036V7.06589L21.8252 7.06416H21.8261ZM21.7217 16.7107C22.1573 16.7107 22.511 17.0655 22.511 17.5024C22.511 17.9393 22.1573 18.2941 21.7217 18.2941C21.2861 18.2941 20.9325 17.9393 20.9325 17.5024C20.9325 17.0655 21.2861 16.7107 21.7217 16.7107ZM21.8037 15.0183H26.0432C26.2148 15.0183 26.3563 15.1593 26.3563 15.3324V19.6897C26.3563 19.8619 26.2157 20.0038 26.0432 20.0038H21.8218C18.6182 20.0038 18.2102 15.0192 21.8037 15.0192V15.0183Z" fill="#6B6A6A"/>
</g>
<defs>
<clipPath id="clip0_8_710">
<rect width="28" height="28" fill="white"/>
</clipPath>
</defs>
</svg>
