<svg width="27" height="27" viewBox="0 0 27 27" fill="none" xmlns="http://www.w3.org/2000/svg">
<g clip-path="url(#clip0_8_686)">
<path fill-rule="evenodd" clip-rule="evenodd" d="M13.4999 0.000147938C20.9558 0.000147938 27 5.98999 27 13.3789C27 20.7678 20.9559 26.7576 13.4999 26.7576C11.2166 26.7576 8.97823 26.19 6.97977 25.0954L6.97801 25.0945L0.0240672 27.0001L1.83424 20.114C0.668598 18.1358 0 15.8348 0 13.3787C0 5.98985 6.04409 0 13.4999 0V0.000147938ZM9.44519 7.14435C9.71404 7.17586 9.88427 7.36655 9.99272 7.65681L11.0584 10.2399C11.141 10.5005 11.1038 10.6879 10.9538 10.8999L10.1431 12.0051C10.0199 12.2232 10.0058 12.438 10.1552 12.6481C11.3326 14.5319 12.8321 15.9111 14.7635 16.6144C15.0107 16.7128 15.22 16.6273 15.3951 16.3779L16.3186 15.2438C16.514 14.9668 16.7524 14.8568 17.1282 14.9881L19.6423 16.208C20.5026 16.4585 19.8776 18.1283 19.4511 18.6233C18.8927 19.2715 17.9493 19.5933 17.0231 19.6486C16.3779 19.6871 15.7301 19.5923 15.1987 19.3778C13.3014 18.6117 12.3628 18.2571 10.7213 16.8443C8.06911 14.5612 6.06669 11.3677 6.75598 9.17302C7.14516 8.30255 7.62739 7.50369 8.26311 7.20456C8.49953 7.09346 9.15565 7.14509 9.44505 7.1442L9.44519 7.14435ZM13.2889 24.2057C19.432 24.2057 24.4122 19.2703 24.4122 13.1824C24.4122 7.09435 19.4322 2.15915 13.2889 2.15915C7.14575 2.15915 2.16561 7.09449 2.16561 13.1824C2.16561 14.4045 2.36665 15.5802 2.7372 16.6788L4.20471 19.5517L3.08001 23.7495L7.35957 22.5816C9.58681 23.8656 10.8782 24.2057 13.2889 24.2057Z" fill="#6B6A6A"/>
</g>
<defs>
<clipPath id="clip0_8_686">
<rect width="27" height="27" fill="white"/>
</clipPath>
</defs>
</svg>
