<svg width="30" height="21" viewBox="0 0 30 21" fill="none" xmlns="http://www.w3.org/2000/svg">
<g clip-path="url(#clip0_8_79)">
<path fill-rule="evenodd" clip-rule="evenodd" d="M14.3467 2.12825C16.7765 2.12825 17.9264 2.18655 20.2405 2.8236C22.7606 3.51772 26.0799 5.19992 27.8857 7.01428C29.3337 8.46908 30.638 6.71728 29.6615 5.77713C28.5644 4.72099 27.0388 3.59098 25.7111 2.8413C25.1375 2.51744 24.5534 2.22654 23.951 1.93381C21.2847 0.63744 17.7919 9.15527e-05 14.7388 9.15527e-05C13.1012 9.15527e-05 11.3539 0.252833 10.0351 0.58036C7.58991 1.1881 4.77179 2.32025 2.73658 3.82296C1.89584 4.44322 1.08695 5.05676 0.338978 5.77713C-0.642758 6.72247 0.690238 8.41871 2.05045 7.0793L3.5028 5.86871C6.45512 3.67889 10.6248 2.12856 14.3473 2.12856L14.3467 2.12825ZM13.2357 19.2826C13.2357 21.5723 16.7638 21.5723 16.7638 19.2826C16.7638 16.9936 13.2357 16.9936 13.2357 19.2826ZM9.38146 16.7674C10.2067 16.7674 10.4303 15.9646 11.7107 15.3267C13.9209 14.2254 16.0307 14.2165 18.2449 15.3053C19.4706 15.9079 19.8435 16.7674 20.5525 16.7674C21.3209 16.7674 22.905 15.5913 19.7662 13.7394C16.7048 11.933 13.3526 11.9168 10.2748 13.7156C9.80539 13.99 8.94517 14.6512 8.61432 15.0431C8.03022 15.7351 8.56361 16.7674 9.38115 16.7674H9.38146ZM5.06955 12.2535C5.6722 12.2535 5.78011 12.2108 6.39389 11.6259L7.2705 10.8787C9.04783 9.44616 12.0771 8.3192 14.4775 8.3192C17.0044 8.3192 18.6181 8.58965 20.7272 9.63053C21.8759 10.1974 22.2649 10.5337 23.1666 11.2205C23.354 11.3634 23.4303 11.4583 23.606 11.6256C24.2213 12.2123 24.3369 12.2532 24.9303 12.2532C25.507 12.2532 25.9102 11.5658 25.7927 11.0203C25.6783 10.488 24.6576 9.67967 24.1752 9.32254C19.3476 5.75027 13.1662 5.09491 7.83511 8.01731C7.01138 8.46877 6.57633 8.76669 5.82557 9.32254C5.3432 9.67937 4.32282 10.4852 4.2081 11.0203C4.0906 11.5658 4.4935 12.2532 5.07048 12.2532L5.06955 12.2535Z" fill="#4280EF"/>
</g>
<defs>
<clipPath id="clip0_8_79">
<rect width="30" height="21" fill="white"/>
</clipPath>
</defs>
</svg>
