<svg width="37" height="27" viewBox="0 0 37 27" fill="none" xmlns="http://www.w3.org/2000/svg">
<g clip-path="url(#clip0_8_681)">
<path fill-rule="evenodd" clip-rule="evenodd" d="M2.16783 13.5696C2.16783 12.3953 2.24049 11.4141 2.24005 10.2991C2.23982 9.673 2.38981 6.87427 2.49603 6.30062C3.28663 2.03171 5.46935 2.73395 8.11336 2.38497L9.75345 2.29403C10.0354 2.2859 10.3403 2.29681 10.6247 2.29788C11.0442 2.2996 11.1542 2.24375 11.4898 2.22642C12.0502 2.19732 12.6608 2.24525 13.227 2.22899L14.959 2.15709C15.5372 2.15709 16.1154 2.15645 16.6936 2.15709C17.3775 2.15795 17.7679 2.08563 18.4277 2.08734C19.0878 2.08884 19.4689 2.16073 20.0895 2.15773L27.754 2.36229C28.0531 2.38604 28.3867 2.34581 28.686 2.36956C29.737 2.45323 31.0124 2.4712 31.8859 2.69801C34.2309 3.30697 34.5133 5.75286 34.6155 7.72437C34.6519 8.42812 34.7613 9.32615 34.7601 10.1598L34.6882 18.789C34.6217 19.9878 34.4677 21.1257 34.1015 22.1904C33.1794 24.8708 30.7078 24.389 28.5349 24.6237C28.2753 24.6517 28.0089 24.6284 27.7476 24.6312C27.3578 24.6353 27.3223 24.6954 26.9579 24.7059C23.8894 24.7942 18.6136 24.9378 15.3906 24.845C15.0266 24.8345 14.9904 24.775 14.6008 24.7703C14.0262 24.7634 13.4385 24.7707 12.8625 24.7739L10.4036 24.7061C10.0141 24.7014 9.97788 24.6419 9.61391 24.6314C9.3286 24.6233 9.02818 24.6398 8.74153 24.6366C8.3509 24.6318 8.31512 24.5709 7.95137 24.5623C6.92345 24.5381 5.70133 24.4326 4.88495 24.1748C2.864 23.5367 2.64046 21.6895 2.4047 19.9523C2.29404 19.1373 2.16827 14.2261 2.16827 13.5692L2.16783 13.5696ZM36.9997 11.1535V15.3111C36.9857 16.3296 36.9622 17.1788 36.9313 17.5396C36.9066 17.8252 36.9389 18.1526 36.93 18.4428C36.9189 18.7997 36.8564 18.8692 36.8553 19.2755C36.8526 20.1995 36.646 21.4882 36.376 22.3629C36.1038 23.2453 35.6856 24.1921 35.1043 24.7568C34.4097 25.4317 33.9549 25.8403 32.9336 26.2156C31.5575 26.7213 30.7536 26.525 29.6486 26.6708C29.3684 26.7078 29.1473 26.7228 28.7602 26.72L26.161 26.8614C23.8659 26.8488 21.2959 26.9996 18.9336 26.9996C16.4763 26.9996 13.8138 26.8526 11.4162 26.8621C10.9734 26.8638 10.8574 26.7994 10.4807 26.7887L7.73606 26.7176C4.38832 26.4512 1.80852 26.1033 0.640616 22.4857C0.300199 21.4309 0.103992 19.5511 0.0697723 18.4428C0.0608841 18.1526 0.0928816 17.8252 0.068439 17.5396C0.0339973 17.1388 0.0126657 16.645 0 16.1039V11.2731L0.0699945 8.62647C0.0808825 8.27449 0.142655 8.24282 0.145766 7.86452C0.174875 4.42603 1.49344 0.993524 5.39802 0.466088C6.27728 0.347335 6.73414 0.372155 7.06233 0.328934L9.74545 0.198626C10.5829 0.108117 13.2781 0.0657506 14.1647 0.07003C14.8004 0.0732395 15.2141 -0.000366092 15.8985 -0.000152122L28.3084 0.227726C29.5792 0.395478 30.2998 0.258965 31.7255 0.486415C33.1145 0.708088 34.382 1.35021 35.2494 2.38155C36.474 3.8374 36.8071 6.03572 36.8542 7.93428C36.8631 8.29032 36.93 8.36286 36.9304 8.76555C36.9306 9.02531 36.9091 9.34006 36.9384 9.59276C36.9678 9.84482 36.988 10.4198 37.0002 11.1532L36.9997 11.1535Z" fill="#6B6A6A"/>
<path fill-rule="evenodd" clip-rule="evenodd" d="M15.9703 16.2835V9.95109C16.4327 10.2494 16.9549 10.4563 17.4573 10.746L21.1966 12.7124C21.4683 12.8587 21.6441 13.0098 21.9683 13.0825V13.2216C21.6858 13.2942 18.1368 15.2105 17.4882 15.5184L15.9701 16.2833L15.9703 16.2835ZM13.8022 8.76805V17.6056C13.8022 18.2289 14.5044 18.8582 15.4643 18.8582C15.8919 18.8582 18.0386 17.6142 18.6436 17.3268L21.8005 15.7043C22.4933 15.372 24.4981 14.4092 24.786 13.9168C25.7662 12.2416 23.4239 11.5058 22.5882 11.0241C22.0863 10.7349 21.5772 10.5301 21.0872 10.2427C19.8264 9.50346 17.8548 8.5896 16.5516 7.86018C16.0678 7.5895 15.5772 7.25357 14.8471 7.47674C14.2978 7.64471 13.8022 8.11095 13.8022 8.76805Z" fill="#6B6A6A"/>
</g>
<defs>
<clipPath id="clip0_8_681">
<rect width="37" height="27" fill="white"/>
</clipPath>
</defs>
</svg>
